RobotoSerifText-SuperCond.ufo
<glyph name="exclam" format="2">
  <advance width="282"/>
  <unicode hex="0021"/>
  <outline>
    <contour>
      <point x="251" y="714" type="line"/>
      <point x="251" y="551"/>
      <point x="214" y="450"/>
      <point x="214" y="255" type="curve"/>
      <point x="69" y="255" type="line"/>
      <point x="69" y="450"/>
      <point x="31" y="550"/>
      <point x="31" y="714" type="curve"/>
    </contour>
    <component base="period" xOffset="-15"/>
  </outline>
</glyph>
<glyph name="numbersign" format="2">
  <advance width="528"/>
  <unicode hex="0023"/>
  <outline>
    <contour>
      <point x="37" y="0" type="line"/>
      <point x="130" y="0" type="line"/>
      <point x="309" y="750" type="line"/>
      <point x="216" y="750" type="line"/>
    </contour>
    <contour>
      <point x="5" y="191" type="line"/>
      <point x="476" y="191" type="line"/>
      <point x="476" y="330" type="line"/>
      <point x="5" y="330" type="line"/>
    </contour>
    <contour>
      <point x="54" y="440" type="line"/>
      <point x="526" y="440" type="line"/>
      <point x="526" y="579" type="line"/>
      <point x="54" y="579" type="line"/>
    </contour>
    <contour>
      <point x="205" y="0" type="line"/>
      <point x="298" y="0" type="line"/>
      <point x="477" y="750" type="line"/>
      <point x="382" y="750" type="line"/>
    </contour>
  </outline>
</glyph>
<glyph name="dollar" format="2">
  <advance width="471"/>
  <unicode hex="0024"/>
  <outline>
    <contour>
      <point x="186" y="790" type="line"/>
      <point x="186" y="646" type="line"/>
      <point x="201" y="627" type="line"/>
      <point x="201" y="79" type="line"/>
      <point x="186" y="57" type="line"/>
      <point x="186" y="-120" type="line"/>
      <point x="287" y="-120" type="line"/>
      <point x="287" y="56" type="line"/>
      <point x="272" y="81" type="line"/>
      <point x="272" y="633" type="line"/>
      <point x="287" y="652" type="line"/>
      <point x="287" y="790" type="line"/>
    </contour>
    <contour>
      <point x="233" y="100" type="curve" smooth="yes"/>
      <point x="156" y="100"/>
      <point x="116" y="139"/>
      <point x="90" y="172" type="curve"/>
      <point x="81" y="169"/>
      <point x="109" y="107"/>
      <point x="139" y="110" type="curve"/>
      <point x="139" y="219" type="line"/>
      <point x="5" y="219" type="line"/>
      <point x="5" y="85" type="line"/>
      <point x="41" y="52"/>
      <point x="127" y="12"/>
      <point x="236" y="12" type="curve" smooth="yes"/>
      <point x="384" y="12"/>
      <point x="465" y="87"/>
      <point x="465" y="238" type="curve" smooth="yes"/>
      <point x="465" y="368"/>
      <point x="392" y="423"/>
      <point x="243" y="466" type="curve" smooth="yes"/>
      <point x="199" y="484"/>
      <point x="150" y="491"/>
      <point x="150" y="547" type="curve"/>
      <point x="150" y="590"/>
      <point x="177" y="611"/>
      <point x="238" y="611" type="curve" smooth="yes"/>
      <point x="286" y="611"/>
      <point x="324" y="596"/>
      <point x="356" y="561" type="curve"/>
      <point x="366" y="574"/>
      <point x="354" y="621"/>
      <point x="323" y="618" type="curve"/>
      <point x="323" y="518" type="line"/>
      <point x="444" y="518" type="line"/>
      <point x="444" y="636" type="line"/>
      <point x="413" y="665"/>
      <point x="333" y="698"/>
      <point x="241" y="698" type="curve"/>
      <point x="106" y="698"/>
      <point x="16" y="626"/>
      <point x="16" y="492" type="curve" smooth="yes"/>
      <point x="16" y="367"/>
      <point x="88" y="309"/>
      <point x="200" y="273" type="curve" smooth="yes"/>
      <point x="289" y="243"/>
      <point x="322" y="231"/>
      <point x="322" y="172" type="curve" smooth="yes"/>
      <point x="322" y="120"/>
      <point x="291" y="100"/>
    </contour>
  </outline>
</glyph>
<glyph name="ampersand" format="2">
  <advance width="674"/>
  <unicode hex="0026"/>
  <outline>
    <contour>
      <point x="605" y="289" type="curve" smooth="yes"/>
      <point x="611" y="322"/>
      <point x="619" y="327"/>
      <point x="636" y="327" type="curve" smooth="yes"/>
      <point x="650" y="327" type="line"/>
      <point x="650" y="403" type="line"/>
      <point x="482" y="403" type="line"/>
      <point x="482" y="327" type="line"/>
      <point x="490" y="327" type="line" smooth="yes"/>
      <point x="505" y="327"/>
      <point x="522" y="324"/>
      <point x="522" y="317" type="curve" smooth="yes"/>
      <point x="522" y="217"/>
      <point x="410" y="88"/>
      <point x="336" y="88" type="curve" smooth="yes"/>
      <point x="268" y="88"/>
      <point x="225" y="146"/>
      <point x="225" y="233" type="curve" smooth="yes"/>
      <point x="225" y="309"/>
      <point x="240" y="363"/>
      <point x="282" y="395" type="curve"/>
      <point x="246" y="433" type="line"/>
      <point x="114" y="406"/>
      <point x="21" y="330"/>
      <point x="21" y="212" type="curve" smooth="yes"/>
      <point x="21" y="69"/>
      <point x="129" y="-10"/>
      <point x="275" y="-10" type="curve" smooth="yes"/>
      <point x="484" y="-10"/>
      <point x="586" y="193"/>
    </contour>
    <contour>
      <point x="672" y="0" type="line"/>
      <point x="672" y="79" type="line"/>
      <point x="670" y="79" type="line" smooth="yes"/>
      <point x="653" y="79"/>
      <point x="646" y="82"/>
      <point x="631" y="100" type="curve" smooth="yes"/>
      <point x="440" y="282"/>
      <point x="355" y="425"/>
      <point x="355" y="542" type="curve" smooth="yes"/>
      <point x="355" y="603"/>
      <point x="365" y="626"/>
      <point x="384" y="626" type="curve" smooth="yes"/>
      <point x="401" y="626"/>
      <point x="404" y="604"/>
      <point x="404" y="573" type="curve" smooth="yes"/>
      <point x="404" y="513"/>
      <point x="384" y="472"/>
      <point x="312" y="444" type="curve"/>
      <point x="342" y="373" type="line"/>
      <point x="459" y="408"/>
      <point x="542" y="467"/>
      <point x="542" y="569" type="curve" smooth="yes"/>
      <point x="542" y="656"/>
      <point x="483" y="720"/>
      <point x="368" y="720" type="curve" smooth="yes"/>
      <point x="239" y="720"/>
      <point x="156" y="652"/>
      <point x="156" y="529" type="curve" smooth="yes"/>
      <point x="156" y="387"/>
      <point x="278" y="159"/>
      <point x="469" y="0" type="curve"/>
    </contour>
  </outline>
</glyph>
<glyph name="quotesingle" format="2">
  <advance width="220"/>
  <unicode hex="0027"/>
  <outline>
    <contour>
      <point x="188" y="710" type="line"/>
      <point x="188" y="616"/>
      <point x="165" y="586"/>
      <point x="165" y="446" type="curve"/>
      <point x="56" y="446" type="line"/>
      <point x="56" y="586"/>
      <point x="33" y="615"/>
      <point x="33" y="710" type="curve"/>
    </contour>
  </outline>
</glyph>
<glyph name="parenleft" format="2">
  <advance width="328"/>
  <unicode hex="0028"/>
  <outline>
    <contour>
      <point x="207" y="310" type="curve" smooth="yes"/>
      <point x="207" y="113"/>
      <point x="269" y="-50"/>
      <point x="325" y="-127" type="curve"/>
      <point x="325" y="-130" type="line"/>
      <point x="195" y="-130" type="line"/>
      <point x="100" y="-51"/>
      <point x="17" y="116"/>
      <point x="17" y="310" type="curve" smooth="yes"/>
      <point x="17" y="504"/>
      <point x="100" y="671"/>
      <point x="195" y="750" type="curve"/>
      <point x="325" y="750" type="line"/>
      <point x="325" y="747" type="line"/>
      <point x="269" y="670"/>
      <point x="207" y="507"/>
    </contour>
  </outline>
</glyph>
<glyph name="hyphen" format="2">
  <advance width="409"/>
  <unicode hex="002D"/>
  <outline>
    <contour>
      <point x="49" y="363" type="line"/>
      <point x="49" y="211" type="line"/>
      <point x="360" y="211" type="line"/>
      <point x="360" y="363" type="line"/>
    </contour>
  </outline>
</glyph>
<glyph name="slash" format="2">
  <advance width="431"/>
  <unicode hex="002F"/>
  <outline>
    <contour>
      <point x="438" y="733" type="line"/>
      <point x="141" y="-147" type="line"/>
      <point x="-7" y="-147" type="line"/>
      <point x="290" y="733" type="line"/>
    </contour>
  </outline>
</glyph>
<glyph name="one" format="2">
  <advance width="471"/>
  <unicode hex="0031"/>
  <outline>
    <contour>
      <point x="378" y="122" type="curve" smooth="yes"/>
      <point x="378" y="609" type="line"/>
      <point x="185" y="609" type="line"/>
      <point x="157" y="561"/>
      <point x="124" y="533"/>
      <point x="26" y="532" type="curve"/>
      <point x="26" y="413" type="line"/>
      <point x="106" y="412"/>
      <point x="149" y="437"/>
      <point x="174" y="521" type="curve"/>
      <point x="156" y="513" type="line"/>
      <point x="156" y="122" type="line" smooth="yes"/>
      <point x="156" y="84"/>
      <point x="112" y="77"/>
      <point x="64" y="77" type="curve" smooth="yes"/>
      <point x="44" y="77" type="line"/>
      <point x="44" y="0" type="line"/>
      <point x="477" y="0" type="line"/>
      <point x="477" y="77" type="line"/>
      <point x="468" y="77" type="line" smooth="yes"/>
      <point x="416" y="77"/>
      <point x="378" y="84"/>
    </contour>
  </outline>
</glyph>
<glyph name="two" format="2">
  <advance width="471"/>
  <unicode hex="0032"/>
  <outline>
    <contour>
      <point x="272" y="147" type="line" smooth="yes"/>
      <point x="334" y="147"/>
      <point x="356" y="151"/>
      <point x="362" y="187" type="curve" smooth="yes"/>
      <point x="368" y="236" type="line"/>
      <point x="451" y="236" type="line"/>
      <point x="451" y="0" type="line"/>
      <point x="11" y="0" type="line"/>
      <point x="11" y="160" type="line"/>
      <point x="142" y="248"/>
      <point x="227" y="301"/>
      <point x="227" y="439" type="curve" smooth="yes"/>
      <point x="227" y="500"/>
      <point x="217" y="528"/>
      <point x="191" y="528" type="curve" smooth="yes"/>
      <point x="172" y="528"/>
      <point x="162" y="506"/>
      <point x="152" y="481" type="curve"/>
      <point x="147" y="488"/>
      <point x="145" y="535"/>
      <point x="173" y="538" type="curve"/>
      <point x="173" y="413" type="line"/>
      <point x="14" y="413" type="line"/>
      <point x="14" y="543" type="line"/>
      <point x="54" y="581"/>
      <point x="125" y="618"/>
      <point x="224" y="618" type="curve" smooth="yes"/>
      <point x="369" y="618"/>
      <point x="442" y="550"/>
      <point x="442" y="439" type="curve" smooth="yes"/>
      <point x="442" y="278"/>
      <point x="254" y="190"/>
      <point x="107" y="125" type="curve"/>
      <point x="88" y="120"/>
      <point x="95" y="141"/>
      <point x="96" y="147" type="curve"/>
    </contour>
  </outline>
</glyph>
<glyph name="four" format="2">
  <advance width="471"/>
  <unicode hex="0034"/>
  <outline>
    <contour>
      <point x="16" y="77" type="line"/>
      <point x="466" y="77" type="line"/>
      <point x="466" y="219" type="line"/>
      <point x="101" y="219" type="line"/>
      <point x="66" y="142" type="line"/>
      <point x="246" y="528" type="line"/>
      <point x="257" y="609" type="line"/>
      <point x="200" y="609" type="line"/>
      <point x="16" y="221" type="line"/>
    </contour>
    <contour>
      <point x="425" y="-77" type="line"/>
      <point x="425" y="609" type="line"/>
      <point x="229" y="609" type="line"/>
      <point x="214" y="520" type="line"/>
      <point x="214" y="-77" type="line"/>
    </contour>
  </outline>
</glyph>
<glyph name="five" format="2">
  <advance width="471"/>
  <unicode hex="0035"/>
  <outline>
    <contour>
      <point x="229" y="-90" type="curve" smooth="yes"/>
      <point x="103" y="-90"/>
      <point x="38" y="-20"/>
      <point x="7" y="72" type="curve"/>
      <point x="94" y="127" type="line"/>
      <point x="110" y="74"/>
      <point x="141" y="5"/>
      <point x="190" y="5" type="curve" smooth="yes"/>
      <point x="236" y="5"/>
      <point x="253" y="57"/>
      <point x="253" y="152" type="curve" smooth="yes"/>
      <point x="253" y="233"/>
      <point x="239" y="278"/>
      <point x="199" y="278" type="curve" smooth="yes"/>
      <point x="163" y="278"/>
      <point x="147" y="251"/>
      <point x="137" y="207" type="curve"/>
      <point x="50" y="207" type="line"/>
      <point x="50" y="609" type="line"/>
      <point x="416" y="609" type="line"/>
      <point x="405" y="461" type="line"/>
      <point x="132" y="461" type="line"/>
      <point x="145" y="589" type="line"/>
      <point x="145" y="276" type="line"/>
      <point x="140" y="263"/>
      <point x="130" y="258"/>
      <point x="120" y="269" type="curve"/>
      <point x="149" y="324"/>
      <point x="183" y="366"/>
      <point x="276" y="366" type="curve" smooth="yes"/>
      <point x="397" y="366"/>
      <point x="462" y="273"/>
      <point x="462" y="151" type="curve" smooth="yes"/>
      <point x="462" y="4"/>
      <point x="374" y="-90"/>
    </contour>
  </outline>
</glyph>
<glyph name="six" format="2">
  <advance width="471"/>
  <unicode hex="0036"/>
  <outline>
    <contour>
      <point x="414" y="654" type="line"/>
      <point x="298" y="618"/>
      <point x="220" y="493"/>
      <point x="220" y="286" type="curve" smooth="yes"/>
      <point x="220" y="122"/>
      <point x="223" y="76"/>
      <point x="235" y="76" type="curve" smooth="yes"/>
      <point x="248" y="76"/>
      <point x="248" y="125"/>
      <point x="248" y="229" type="curve" smooth="yes"/>
      <point x="248" y="313"/>
      <point x="250" y="367"/>
      <point x="227" y="367" type="curve" smooth="yes"/>
      <point x="213" y="367"/>
      <point x="201" y="331"/>
      <point x="186" y="283" type="curve"/>
      <point x="183" y="355" type="line"/>
      <point x="195" y="401"/>
      <point x="222" y="453"/>
      <point x="294" y="453" type="curve" smooth="yes"/>
      <point x="395" y="453"/>
      <point x="462" y="377"/>
      <point x="462" y="237" type="curve" smooth="yes"/>
      <point x="462" y="82"/>
      <point x="376" y="-10"/>
      <point x="242" y="-10" type="curve" smooth="yes"/>
      <point x="99" y="-10"/>
      <point x="9" y="83"/>
      <point x="9" y="295" type="curve" smooth="yes"/>
      <point x="9" y="513"/>
      <point x="168" y="697"/>
      <point x="401" y="740" type="curve"/>
    </contour>
  </outline>
</glyph>
<glyph name="question" format="2">
  <advance width="506"/>
  <unicode hex="003F"/>
  <outline>
    <contour>
      <point x="176" y="390" type="line"/>
      <point x="241" y="421"/>
      <point x="274" y="473"/>
      <point x="274" y="549" type="curve" smooth="yes"/>
      <point x="274" y="596"/>
      <point x="263" y="629"/>
      <point x="223" y="629" type="curve" smooth="yes"/>
      <point x="207" y="629"/>
      <point x="186" y="616"/>
      <point x="169" y="589" type="curve"/>
      <point x="155" y="612"/>
      <point x="171" y="625"/>
      <point x="190" y="630" type="curve"/>
      <point x="190" y="527" type="line"/>
      <point x="20" y="527" type="line"/>
      <point x="20" y="644" type="line"/>
      <point x="50" y="676"/>
      <point x="128" y="723"/>
      <point x="249" y="723" type="curve" smooth="yes"/>
      <point x="418" y="723"/>
      <point x="491" y="646"/>
      <point x="491" y="537" type="curve" smooth="yes"/>
      <point x="491" y="409"/>
      <point x="381" y="360"/>
      <point x="289" y="335" type="curve"/>
      <point x="289" y="255" type="line"/>
      <point x="176" y="255" type="line"/>
    </contour>
    <component base="period" xOffset="76"/>
  </outline>
</glyph>
<glyph name="B" format="2">
  <advance width="646"/>
  <unicode hex="0042"/>
  <outline>
    <contour>
      <point x="376" y="710" type="curve" smooth="yes"/>
      <point x="14" y="710" type="line"/>
      <point x="14" y="633" type="line"/>
      <point x="23" y="633" type="line" smooth="yes"/>
      <point x="40" y="633"/>
      <point x="52" y="626"/>
      <point x="52" y="597" type="curve" smooth="yes"/>
      <point x="52" y="113" type="line" smooth="yes"/>
      <point x="52" y="84"/>
      <point x="40" y="77"/>
      <point x="23" y="77" type="curve" smooth="yes"/>
      <point x="14" y="77" type="line"/>
      <point x="14" y="0" type="line"/>
      <point x="382" y="0" type="line" smooth="yes"/>
      <point x="546" y="0"/>
      <point x="633" y="75"/>
      <point x="633" y="200" type="curve" smooth="yes"/>
      <point x="633" y="317"/>
      <point x="544" y="373"/>
      <point x="447" y="380" type="curve"/>
      <point x="446" y="362" type="line"/>
      <point x="446" y="385" type="line"/>
      <point x="441" y="371" type="line"/>
      <point x="530" y="377"/>
      <point x="610" y="426"/>
      <point x="610" y="539" type="curve" smooth="yes"/>
      <point x="610" y="645"/>
      <point x="531" y="710"/>
    </contour>
    <contour>
      <point x="262" y="411" type="line"/>
      <point x="262" y="329" type="line"/>
      <point x="303" y="329" type="line" smooth="yes"/>
      <point x="359" y="329"/>
      <point x="384" y="286"/>
      <point x="384" y="209" type="curve"/>
      <point x="384" y="124"/>
      <point x="352" y="85"/>
      <point x="310" y="85" type="curve" smooth="yes"/>
      <point x="299" y="85" type="line"/>
      <point x="299" y="625" type="line"/>
      <point x="306" y="625" type="line" smooth="yes"/>
      <point x="340" y="625"/>
      <point x="366" y="589"/>
      <point x="366" y="526" type="curve" smooth="yes"/>
      <point x="366" y="449"/>
      <point x="346" y="411"/>
      <point x="299" y="411" type="curve" smooth="yes"/>
    </contour>
  </outline>
</glyph>
<glyph name="E" format="2">
  <advance width="549"/>
  <unicode hex="0045"/>
  <anchor x="334" y="741" name="top"/>
  <anchor x="399" y="0" name="right"/>
  <anchor x="334" y="0" name="bottom"/>
  <outline>
    <contour>
      <point x="536" y="232" type="line"/>
      <point x="437" y="232" type="line"/>
      <point x="427" y="130" type="line" smooth="yes"/>
      <point x="424" y="94"/>
      <point x="400" y="87"/>
      <point x="338" y="87" type="curve" smooth="yes"/>
      <point x="299" y="87" type="line"/>
      <point x="299" y="623" type="line"/>
      <point x="345" y="623" type="line" smooth="yes"/>
      <point x="381" y="623"/>
      <point x="412" y="616"/>
      <point x="413" y="580" type="curve" smooth="yes"/>
      <point x="417" y="503" type="line"/>
      <point x="514" y="503" type="line"/>
      <point x="514" y="710" type="line"/>
      <point x="14" y="710" type="line"/>
      <point x="14" y="633" type="line"/>
      <point x="23" y="633" type="line" smooth="yes"/>
      <point x="40" y="633"/>
      <point x="52" y="626"/>
      <point x="52" y="597" type="curve" smooth="yes"/>
      <point x="52" y="113" type="line" smooth="yes"/>
      <point x="52" y="84"/>
      <point x="40" y="77"/>
      <point x="23" y="77" type="curve" smooth="yes"/>
      <point x="14" y="77" type="line"/>
      <point x="14" y="0" type="line"/>
      <point x="536" y="0" type="line"/>
    </contour>
    <contour>
      <point x="277" y="401" type="curve"/>
      <point x="277" y="326" type="line"/>
      <point x="334" y="321"/>
      <point x="390" y="317"/>
      <point x="447" y="313" type="curve"/>
      <point x="447" y="414" type="line"/>
      <point x="390" y="410"/>
      <point x="334" y="406"/>
    </contour>
  </outline>
</glyph>
<glyph name="H" format="2">
  <advance width="690"/>
  <unicode hex="0048"/>
  <anchor x="345" y="741" name="top"/>
  <anchor x="345" y="0" name="bottom"/>
  <outline>
    <contour>
      <point x="138" y="410" type="line"/>
      <point x="138" y="322" type="line"/>
      <point x="501" y="322" type="line"/>
      <point x="501" y="410" type="line"/>
    </contour>
    <contour>
      <point x="14" y="0" type="line"/>
      <point x="335" y="0" type="line"/>
      <point x="335" y="77" type="line"/>
      <point x="328" y="77" type="line" smooth="yes"/>
      <point x="315" y="77"/>
      <point x="299" y="80"/>
      <point x="299" y="87" type="curve" smooth="yes"/>
      <point x="299" y="623" type="line"/>
      <point x="299" y="630"/>
      <point x="315" y="633"/>
      <point x="328" y="633" type="curve" smooth="yes"/>
      <point x="335" y="633" type="line"/>
      <point x="335" y="710" type="line"/>
      <point x="14" y="710" type="line"/>
      <point x="14" y="633" type="line"/>
      <point x="23" y="633" type="line" smooth="yes"/>
      <point x="40" y="633"/>
      <point x="52" y="626"/>
      <point x="52" y="597" type="curve" smooth="yes"/>
      <point x="52" y="113" type="line" smooth="yes"/>
      <point x="52" y="84"/>
      <point x="40" y="77"/>
      <point x="23" y="77" type="curve" smooth="yes"/>
      <point x="14" y="77" type="line"/>
    </contour>
    <contour>
      <point x="355" y="0" type="line"/>
      <point x="675" y="0" type="line"/>
      <point x="675" y="77" type="line"/>
      <point x="667" y="77" type="line" smooth="yes"/>
      <point x="650" y="77"/>
      <point x="638" y="84"/>
      <point x="638" y="113" type="curve" smooth="yes"/>
      <point x="638" y="597" type="line" smooth="yes"/>
      <point x="638" y="626"/>
      <point x="650" y="633"/>
      <point x="667" y="633" type="curve" smooth="yes"/>
      <point x="675" y="633" type="line"/>
      <point x="675" y="710" type="line"/>
      <point x="355" y="710" type="line"/>
      <point x="355" y="633" type="line"/>
      <point x="361" y="633" type="line" smooth="yes"/>
      <point x="375" y="633"/>
      <point x="391" y="630"/>
      <point x="391" y="623" type="curve"/>
      <point x="391" y="87" type="line" smooth="yes"/>
      <point x="391" y="80"/>
      <point x="375" y="77"/>
      <point x="361" y="77" type="curve" smooth="yes"/>
      <point x="355" y="77" type="line"/>
    </contour>
  </outline>
</glyph>
<glyph name="I" format="2">
  <advance width="351"/>
  <unicode hex="0049"/>
  <anchor x="176" y="741" name="top"/>
  <anchor x="242" y="0" name="right"/>
  <anchor x="176" y="0" name="bottom"/>
  <outline>
    <contour>
      <point x="52" y="113" type="line" smooth="yes"/>
      <point x="52" y="84"/>
      <point x="40" y="77"/>
      <point x="23" y="77" type="curve" smooth="yes"/>
      <point x="14" y="77" type="line"/>
      <point x="14" y="0" type="line"/>
      <point x="336" y="0" type="line"/>
      <point x="336" y="77" type="line"/>
      <point x="328" y="77" type="line" smooth="yes"/>
      <point x="311" y="77"/>
      <point x="299" y="84"/>
      <point x="299" y="113" type="curve" smooth="yes"/>
      <point x="299" y="597" type="line" smooth="yes"/>
      <point x="299" y="626"/>
      <point x="311" y="633"/>
      <point x="328" y="633" type="curve" smooth="yes"/>
      <point x="336" y="633" type="line"/>
      <point x="336" y="710" type="line"/>
      <point x="14" y="710" type="line"/>
      <point x="14" y="633" type="line"/>
      <point x="23" y="633" type="line" smooth="yes"/>
      <point x="40" y="633"/>
      <point x="52" y="626"/>
      <point x="52" y="597" type="curve" smooth="yes"/>
    </contour>
  </outline>
</glyph>
<glyph name="L" format="2">
  <advance width="553"/>
  <unicode hex="004C"/>
  <anchor x="350" y="741" name="top"/>
  <anchor x="448" y="710" name="right"/>
  <anchor x="450" y="410" name="mid"/>
  <anchor x="350" y="0" name="bottom"/>
  <outline>
    <contour>
      <point x="345" y="710" type="line"/>
      <point x="345" y="633" type="line"/>
      <point x="330" y="633" type="line" smooth="yes"/>
      <point x="312" y="633"/>
      <point x="299" y="626"/>
      <point x="299" y="597" type="curve" smooth="yes"/>
      <point x="299" y="87" type="line"/>
      <point x="338" y="87" type="line" smooth="yes"/>
      <point x="399" y="87"/>
      <point x="425" y="94"/>
      <point x="428" y="130" type="curve" smooth="yes"/>
      <point x="436" y="245" type="line"/>
      <point x="537" y="245" type="line"/>
      <point x="537" y="0" type="line"/>
      <point x="14" y="0" type="line"/>
      <point x="14" y="77" type="line"/>
      <point x="23" y="77" type="line" smooth="yes"/>
      <point x="40" y="77"/>
      <point x="52" y="84"/>
      <point x="52" y="113" type="curve" smooth="yes"/>
      <point x="52" y="597" type="line" smooth="yes"/>
      <point x="52" y="626"/>
      <point x="40" y="633"/>
      <point x="23" y="633" type="curve" smooth="yes"/>
      <point x="14" y="633" type="line"/>
      <point x="14" y="710" type="line"/>
    </contour>
  </outline>
</glyph>
<glyph name="M" format="2">
  <advance width="824"/>
  <unicode hex="004D"/>
  <anchor x="400" y="0" name="bottom"/>
  <outline>
    <contour>
      <point x="14" y="0" type="line"/>
      <point x="180" y="0" type="line"/>
      <point x="180" y="77" type="line"/>
      <point x="172" y="77" type="line" smooth="yes"/>
      <point x="156" y="77"/>
      <point x="141" y="80"/>
      <point x="141" y="87" type="curve" smooth="yes"/>
      <point x="141" y="688" type="line"/>
      <point x="124" y="687" type="line"/>
      <point x="272" y="-2" type="line"/>
      <point x="393" y="-2" type="line"/>
      <point x="539" y="686" type="line"/>
      <point x="525" y="688" type="line"/>
      <point x="525" y="87" type="line" smooth="yes"/>
      <point x="525" y="80"/>
      <point x="509" y="77"/>
      <point x="493" y="77" type="curve" smooth="yes"/>
      <point x="486" y="77" type="line"/>
      <point x="486" y="0" type="line"/>
      <point x="809" y="0" type="line"/>
      <point x="809" y="77" type="line"/>
      <point x="801" y="77" type="line"/>
      <point x="784" y="77"/>
      <point x="772" y="84"/>
      <point x="772" y="113" type="curve" smooth="yes"/>
      <point x="772" y="597" type="line" smooth="yes"/>
      <point x="772" y="626"/>
      <point x="784" y="633"/>
      <point x="801" y="633" type="curve" smooth="yes"/>
      <point x="809" y="633" type="line"/>
      <point x="809" y="710" type="line"/>
      <point x="455" y="710" type="line"/>
      <point x="395" y="311" type="line"/>
      <point x="440" y="226" type="line"/>
      <point x="373" y="710" type="line"/>
      <point x="14" y="710" type="line"/>
      <point x="14" y="633" type="line"/>
      <point x="23" y="633" type="line" smooth="yes"/>
      <point x="40" y="633"/>
      <point x="52" y="626"/>
      <point x="52" y="597" type="curve" smooth="yes"/>
      <point x="52" y="113" type="line" smooth="yes"/>
      <point x="52" y="84"/>
      <point x="40" y="77"/>
      <point x="23" y="77" type="curve"/>
      <point x="14" y="77" type="line"/>
    </contour>
  </outline>
</glyph>
<glyph name="P" format="2">
  <advance width="621"/>
  <unicode hex="0050"/>
  <outline>
    <contour>
      <point x="299" y="87" type="line" smooth="yes"/>
      <point x="299" y="80"/>
      <point x="313" y="77"/>
      <point x="326" y="77" type="curve" smooth="yes"/>
      <point x="345" y="77" type="line"/>
      <point x="345" y="0" type="line"/>
      <point x="14" y="0" type="line"/>
      <point x="14" y="77" type="line"/>
      <point x="22" y="77" type="line" smooth="yes"/>
      <point x="39" y="77"/>
      <point x="52" y="84"/>
      <point x="52" y="113" type="curve" smooth="yes"/>
      <point x="52" y="597" type="line" smooth="yes"/>
      <point x="52" y="626"/>
      <point x="39" y="633"/>
      <point x="22" y="633" type="curve" smooth="yes"/>
      <point x="14" y="633" type="line"/>
      <point x="14" y="710" type="line"/>
      <point x="377" y="710" type="line" smooth="yes"/>
      <point x="531" y="710"/>
      <point x="620" y="633"/>
      <point x="620" y="496" type="curve" smooth="yes"/>
      <point x="620" y="353"/>
      <point x="526" y="268"/>
      <point x="373" y="268" type="curve" smooth="yes"/>
      <point x="273" y="268" type="line"/>
      <point x="273" y="355" type="line"/>
      <point x="308" y="355" type="line" smooth="yes"/>
      <point x="349" y="355"/>
      <point x="382" y="400"/>
      <point x="382" y="491" type="curve" smooth="yes"/>
      <point x="382" y="583"/>
      <point x="349" y="622"/>
      <point x="311" y="622" type="curve" smooth="yes"/>
      <point x="299" y="622" type="line"/>
    </contour>
  </outline>
</glyph>
<glyph name="Q" format="2">
  <advance width="688"/>
  <unicode hex="0051"/>
  <outline>
    <contour>
      <point x="296" y="3" type="line"/>
      <point x="294" y="-163"/>
      <point x="361" y="-229"/>
      <point x="510" y="-229" type="curve" smooth="yes"/>
      <point x="563" y="-229"/>
      <point x="615" y="-215"/>
      <point x="640" y="-195" type="curve"/>
      <point x="640" y="-31" type="line"/>
      <point x="620" y="-44"/>
      <point x="557" y="-71"/>
      <point x="489" y="-71" type="curve" smooth="yes"/>
      <point x="430" y="-71"/>
      <point x="396" y="-54"/>
      <point x="399" y="10" type="curve"/>
    </contour>
    <contour>
      <point x="344" y="-10" type="curve" smooth="yes"/>
      <point x="537" y="-10"/>
      <point x="667" y="134"/>
      <point x="667" y="355" type="curve" smooth="yes"/>
      <point x="667" y="575"/>
      <point x="537" y="720"/>
      <point x="344" y="720" type="curve" smooth="yes"/>
      <point x="151" y="720"/>
      <point x="21" y="575"/>
      <point x="21" y="355" type="curve" smooth="yes"/>
      <point x="21" y="134"/>
      <point x="151" y="-10"/>
    </contour>
    <contour>
      <point x="344" y="84" type="curve" smooth="yes"/>
      <point x="300" y="84"/>
      <point x="276" y="177"/>
      <point x="276" y="355" type="curve" smooth="yes"/>
      <point x="276" y="533"/>
      <point x="300" y="626"/>
      <point x="344" y="626" type="curve" smooth="yes"/>
      <point x="389" y="626"/>
      <point x="412" y="533"/>
      <point x="412" y="355" type="curve" smooth="yes"/>
      <point x="412" y="177"/>
      <point x="389" y="84"/>
    </contour>
  </outline>
</glyph>
<glyph name="V" format="2">
  <advance width="625"/>
  <unicode hex="0056"/>
  <outline>
    <contour>
      <point x="425" y="69" type="line"/>
      <point x="298" y="623" type="line"/>
      <point x="298" y="630"/>
      <point x="313" y="633"/>
      <point x="326" y="633" type="curve" smooth="yes"/>
      <point x="340" y="633" type="line"/>
      <point x="340" y="710" type="line"/>
      <point x="9" y="710" type="line"/>
      <point x="9" y="633" type="line"/>
      <point x="13" y="633" type="line" smooth="yes"/>
      <point x="31" y="633"/>
      <point x="42" y="628"/>
      <point x="47" y="605" type="curve" smooth="yes"/>
      <point x="197" y="0" type="line"/>
      <point x="432" y="0" type="line"/>
      <point x="578" y="590" type="line" smooth="yes"/>
      <point x="586" y="624"/>
      <point x="593" y="633"/>
      <point x="612" y="633" type="curve" smooth="yes"/>
      <point x="616" y="633" type="line"/>
      <point x="616" y="710" type="line"/>
      <point x="455" y="710" type="line"/>
      <point x="455" y="633" type="line"/>
      <point x="465" y="633" type="line" smooth="yes"/>
      <point x="478" y="633"/>
      <point x="493" y="626"/>
      <point x="493" y="615" type="curve"/>
      <point x="382" y="126" type="line"/>
    </contour>
  </outline>
</glyph>
<glyph name="X" format="2">
  <advance width="616"/>
  <unicode hex="0058"/>
  <outline>
    <contour>
      <point x="6" y="633" type="line"/>
      <point x="9" y="633" type="line" smooth="yes"/>
      <point x="26" y="633"/>
      <point x="31" y="629"/>
      <point x="45" y="601" type="curve" smooth="yes"/>
      <point x="182" y="330" type="line"/>
      <point x="187" y="326" type="line"/>
      <point x="303" y="87" type="line"/>
      <point x="303" y="80"/>
      <point x="289" y="77"/>
      <point x="277" y="77" type="curve" smooth="yes"/>
      <point x="265" y="77" type="line"/>
      <point x="265" y="0" type="line"/>
      <point x="613" y="0" type="line"/>
      <point x="613" y="77" type="line"/>
      <point x="605" y="77" type="line" smooth="yes"/>
      <point x="589" y="77"/>
      <point x="585" y="83"/>
      <point x="570" y="111" type="curve" smooth="yes"/>
      <point x="405" y="411" type="line"/>
      <point x="401" y="414" type="line"/>
      <point x="310" y="623" type="line"/>
      <point x="310" y="630"/>
      <point x="325" y="633"/>
      <point x="337" y="633" type="curve" smooth="yes"/>
      <point x="348" y="633" type="line"/>
      <point x="348" y="710" type="line"/>
      <point x="6" y="710" type="line"/>
    </contour>
    <contour>
      <point x="4" y="0" type="line"/>
      <point x="166" y="0" type="line"/>
      <point x="166" y="77" type="line"/>
      <point x="156" y="77" type="line" smooth="yes"/>
      <point x="143" y="77"/>
      <point x="127" y="84"/>
      <point x="127" y="95" type="curve"/>
      <point x="266" y="352" type="line"/>
      <point x="200" y="395" type="line"/>
      <point x="51" y="123" type="line" smooth="yes"/>
      <point x="33" y="89"/>
      <point x="28" y="77"/>
      <point x="11" y="77" type="curve" smooth="yes"/>
      <point x="4" y="77" type="line"/>
    </contour>
    <contour>
      <point x="439" y="364" type="line"/>
      <point x="543" y="588" type="line" smooth="yes"/>
      <point x="560" y="621"/>
      <point x="567" y="633"/>
      <point x="585" y="633" type="curve" smooth="yes"/>
      <point x="589" y="633" type="line"/>
      <point x="589" y="710" type="line"/>
      <point x="430" y="710" type="line"/>
      <point x="430" y="633" type="line"/>
      <point x="439" y="633" type="line" smooth="yes"/>
      <point x="452" y="633"/>
      <point x="467" y="626"/>
      <point x="467" y="615" type="curve"/>
      <point x="371" y="405" type="line"/>
    </contour>
  </outline>
</glyph>
<glyph name="Z" format="2">
  <advance width="545"/>
  <unicode hex="005A"/>
  <anchor x="291" y="741" name="top"/>
  <anchor x="291" y="0" name="bottom"/>
  <outline>
    <contour>
      <point x="160" y="88" type="line"/>
      <point x="203" y="9" type="line"/>
      <point x="524" y="601" type="line"/>
      <point x="524" y="710" type="line"/>
      <point x="27" y="710" type="line"/>
      <point x="27" y="494" type="line"/>
      <point x="126" y="494" type="line"/>
      <point x="130" y="579" type="line" smooth="yes"/>
      <point x="131" y="615"/>
      <point x="162" y="622"/>
      <point x="198" y="622" type="curve" smooth="yes"/>
      <point x="351" y="622" type="line"/>
      <point x="319" y="689" type="line"/>
      <point x="8" y="112" type="line"/>
      <point x="8" y="0" type="line"/>
      <point x="539" y="0" type="line"/>
      <point x="539" y="239" type="line"/>
      <point x="440" y="239" type="line"/>
      <point x="429" y="131" type="line" smooth="yes"/>
      <point x="426" y="95"/>
      <point x="402" y="88"/>
      <point x="340" y="88" type="curve" smooth="yes"/>
    </contour>
  </outline>
</glyph>
<glyph name="a" format="2">
  <advance width="532"/>
  <unicode hex="0061"/>
  <anchor x="242" y="513" name="top"/>
  <anchor x="424" y="-10" name="right"/>
  <anchor x="275" y="0" name="bottom"/>
  <outline>
    <contour>
      <point x="293" y="308" type="line"/>
      <point x="105" y="281"/>
      <point x="8" y="238"/>
      <point x="8" y="127" type="curve" smooth="yes"/>
      <point x="8" y="36"/>
      <point x="56" y="-10"/>
      <point x="158" y="-10" type="curve" smooth="yes"/>
      <point x="227" y="-10"/>
      <point x="270" y="23"/>
      <point x="293" y="89" type="curve"/>
      <point x="293" y="165" type="line"/>
      <point x="282" y="110"/>
      <point x="266" y="76"/>
      <point x="246" y="76" type="curve" smooth="yes"/>
      <point x="227" y="76"/>
      <point x="216" y="95"/>
      <point x="216" y="136" type="curve" smooth="yes"/>
      <point x="216" y="190"/>
      <point x="242" y="227"/>
      <point x="293" y="241" type="curve"/>
    </contour>
    <contour>
      <point x="290" y="0" type="line"/>
      <point x="524" y="0" type="line"/>
      <point x="524" y="75" type="line"/>
      <point x="517" y="77" type="line" smooth="yes"/>
      <point x="504" y="82"/>
      <point x="503" y="86"/>
      <point x="503" y="104" type="curve" smooth="yes"/>
      <point x="503" y="338" type="line" smooth="yes"/>
      <point x="503" y="467"/>
      <point x="415" y="523"/>
      <point x="266" y="523" type="curve" smooth="yes"/>
      <point x="136" y="523"/>
      <point x="65" y="475"/>
      <point x="40" y="453" type="curve"/>
      <point x="40" y="342" type="line"/>
      <point x="207" y="342" type="line"/>
      <point x="207" y="446" type="line"/>
      <point x="163" y="441"/>
      <point x="153" y="409"/>
      <point x="189" y="387" type="curve"/>
      <point x="196" y="415"/>
      <point x="214" y="436"/>
      <point x="239" y="436" type="curve" smooth="yes"/>
      <point x="267" y="436"/>
      <point x="278" y="416"/>
      <point x="278" y="374" type="curve" smooth="yes"/>
      <point x="278" y="93" type="line"/>
      <point x="290" y="96" type="line"/>
    </contour>
  </outline>
</glyph>
<glyph name="b" format="2">
  <advance width="588"/>
  <unicode hex="0062"/>
  <outline>
    <contour>
      <point x="372" y="-10" type="curve" smooth="yes"/>
      <point x="486" y="-10"/>
      <point x="568" y="103"/>
      <point x="568" y="263" type="curve" smooth="yes"/>
      <point x="568" y="419"/>
      <point x="496" y="523"/>
      <point x="379" y="523" type="curve" smooth="yes"/>
      <point x="304" y="523"/>
      <point x="269" y="482"/>
      <point x="215" y="378" type="curve"/>
      <point x="215" y="264" type="line"/>
      <point x="263" y="370"/>
      <point x="272" y="416"/>
      <point x="300" y="416" type="curve" smooth="yes"/>
      <point x="324" y="416"/>
      <point x="332" y="363"/>
      <point x="332" y="263" type="curve" smooth="yes"/>
      <point x="332" y="161"/>
      <point x="323" y="97"/>
      <point x="292" y="97" type="curve" smooth="yes"/>
      <point x="253" y="97"/>
      <point x="250" y="154"/>
      <point x="215" y="238" type="curve"/>
      <point x="215" y="88" type="line"/>
      <point x="248" y="21"/>
      <point x="292" y="-10"/>
    </contour>
    <contour>
      <point x="30" y="629" type="curve" smooth="yes"/>
      <point x="30" y="0" type="line"/>
      <point x="165" y="0" type="line"/>
      <point x="235" y="105" type="line"/>
      <point x="262" y="111" type="line"/>
      <point x="262" y="735" type="line"/>
      <point x="10" y="735" type="line"/>
      <point x="10" y="660" type="line"/>
      <point x="16" y="658" type="line" smooth="yes"/>
      <point x="27" y="651"/>
      <point x="30" y="647"/>
    </contour>
  </outline>
</glyph>
<glyph name="c" format="2">
  <advance width="498"/>
  <unicode hex="0063"/>
  <anchor x="269" y="513" name="top"/>
  <anchor x="280" y="0" name="bottom"/>
  <outline>
    <contour>
      <point x="326" y="82" type="curve" smooth="yes"/>
      <point x="279" y="82"/>
      <point x="252" y="146"/>
      <point x="252" y="257" type="curve" smooth="yes"/>
      <point x="252" y="368"/>
      <point x="271" y="434"/>
      <point x="301" y="434" type="curve" smooth="yes"/>
      <point x="311" y="434"/>
      <point x="311" y="421"/>
      <point x="318" y="402" type="curve"/>
      <point x="343" y="412"/>
      <point x="350" y="457"/>
      <point x="313" y="459" type="curve"/>
      <point x="313" y="325" type="line"/>
      <point x="474" y="325" type="line"/>
      <point x="474" y="466" type="line"/>
      <point x="455" y="485"/>
      <point x="397" y="523"/>
      <point x="285" y="523" type="curve" smooth="yes"/>
      <point x="120" y="523"/>
      <point x="15" y="424"/>
      <point x="15" y="257" type="curve" smooth="yes"/>
      <point x="15" y="88"/>
      <point x="130" y="-10"/>
      <point x="279" y="-10" type="curve" smooth="yes"/>
      <point x="392" y="-10"/>
      <point x="448" y="51"/>
      <point x="484" y="138" type="curve"/>
      <point x="416" y="185" type="line"/>
      <point x="399" y="140"/>
      <point x="369" y="82"/>
    </contour>
  </outline>
</glyph>
<glyph name="d" format="2">
  <advance width="583"/>
  <unicode hex="0064"/>
  <anchor x="600" y="735" name="right"/>
  <anchor x="267" y="0" name="bottom"/>
  <outline>
    <contour>
      <point x="554" y="104" type="curve" smooth="yes"/>
      <point x="554" y="735" type="line"/>
      <point x="298" y="735" type="line"/>
      <point x="298" y="660" type="line"/>
      <point x="303" y="658" type="line" smooth="yes"/>
      <point x="314" y="651"/>
      <point x="321" y="647"/>
      <point x="321" y="629" type="curve" smooth="yes"/>
      <point x="321" y="108" type="line"/>
      <point x="334" y="121" type="line"/>
      <point x="334" y="0" type="line"/>
      <point x="573" y="0" type="line"/>
      <point x="573" y="75" type="line"/>
      <point x="567" y="77" type="line" smooth="yes"/>
      <point x="555" y="82"/>
      <point x="554" y="86"/>
    </contour>
    <contour>
      <point x="211" y="523" type="curve" smooth="yes"/>
      <point x="97" y="523"/>
      <point x="15" y="410"/>
      <point x="15" y="250" type="curve" smooth="yes"/>
      <point x="15" y="94"/>
      <point x="89" y="-10"/>
      <point x="204" y="-10" type="curve" smooth="yes"/>
      <point x="291" y="-10"/>
      <point x="330" y="41"/>
      <point x="369" y="140" type="curve"/>
      <point x="369" y="253" type="line"/>
      <point x="320" y="142"/>
      <point x="311" y="97"/>
      <point x="284" y="97" type="curve" smooth="yes"/>
      <point x="259" y="97"/>
      <point x="252" y="150"/>
      <point x="252" y="250" type="curve" smooth="yes"/>
      <point x="252" y="352"/>
      <point x="260" y="416"/>
      <point x="292" y="416" type="curve" smooth="yes"/>
      <point x="323" y="416"/>
      <point x="330" y="372"/>
      <point x="369" y="280" type="curve"/>
      <point x="369" y="394" type="line"/>
      <point x="344" y="479"/>
      <point x="293" y="523"/>
    </contour>
  </outline>
</glyph>
<glyph name="e" format="2">
  <advance width="527"/>
  <unicode hex="0065"/>
  <anchor x="269" y="513" name="top"/>
  <anchor x="445" y="1" name="right"/>
  <anchor x="293" y="0" name="bottom"/>
  <outline>
    <contour>
      <point x="286" y="-10" type="curve" smooth="yes"/>
      <point x="401" y="-10"/>
      <point x="465" y="45"/>
      <point x="499" y="124" type="curve"/>
      <point x="429" y="172" type="line"/>
      <point x="410" y="129"/>
      <point x="381" y="84"/>
      <point x="331" y="84" type="curve" smooth="yes"/>
      <point x="258" y="84"/>
      <point x="248" y="144"/>
      <point x="248" y="255" type="curve" smooth="yes"/>
      <point x="248" y="387"/>
      <point x="255" y="434"/>
      <point x="277" y="434" type="curve" smooth="yes"/>
      <point x="297" y="434"/>
      <point x="304" y="401"/>
      <point x="305" y="268" type="curve"/>
      <point x="320" y="302" type="line"/>
      <point x="232" y="302" type="line"/>
      <point x="232" y="222" type="line"/>
      <point x="512" y="222" type="line"/>
      <point x="511" y="423"/>
      <point x="428" y="523"/>
      <point x="271" y="523" type="curve" smooth="yes"/>
      <point x="121" y="523"/>
      <point x="15" y="417"/>
      <point x="15" y="255" type="curve" smooth="yes"/>
      <point x="15" y="91"/>
      <point x="113" y="-10"/>
    </contour>
  </outline>
</glyph>
<glyph name="g" format="2">
  <advance width="563"/>
  <unicode hex="0067"/>
  <anchor x="268" y="513" name="top"/>
  <outline>
    <contour>
      <point x="560" y="392" type="curve"/>
      <point x="560" y="533" type="line"/>
      <point x="480" y="546"/>
      <point x="440" y="493"/>
      <point x="402" y="408" type="curve"/>
      <point x="425" y="407" type="line"/>
      <point x="455" y="414"/>
      <point x="505" y="409"/>
    </contour>
    <contour>
      <point x="257" y="166" type="curve" smooth="yes"/>
      <point x="399" y="166"/>
      <point x="491" y="231"/>
      <point x="491" y="342" type="curve" smooth="yes"/>
      <point x="491" y="453"/>
      <point x="399" y="523"/>
      <point x="257" y="523" type="curve" smooth="yes"/>
      <point x="116" y="523"/>
      <point x="27" y="453"/>
      <point x="27" y="342" type="curve" smooth="yes"/>
      <point x="27" y="231"/>
      <point x="114" y="166"/>
    </contour>
    <contour>
      <point x="257" y="241" type="curve" smooth="yes"/>
      <point x="242" y="241"/>
      <point x="234" y="268"/>
      <point x="234" y="341" type="curve" smooth="yes"/>
      <point x="234" y="414"/>
      <point x="241" y="444"/>
      <point x="257" y="444" type="curve" smooth="yes"/>
      <point x="275" y="444"/>
      <point x="281" y="414"/>
      <point x="281" y="341" type="curve" smooth="yes"/>
      <point x="281" y="268"/>
      <point x="275" y="241"/>
    </contour>
    <contour>
      <point x="211" y="-236" type="curve" smooth="yes"/>
      <point x="270" y="-236" type="line" smooth="yes"/>
      <point x="441" y="-236"/>
      <point x="552" y="-172"/>
      <point x="552" y="-39" type="curve" smooth="yes"/>
      <point x="552" y="57"/>
      <point x="485" y="104"/>
      <point x="363" y="104" type="curve" smooth="yes"/>
      <point x="202" y="104" type="line" smooth="yes"/>
      <point x="173" y="104"/>
      <point x="164" y="113"/>
      <point x="164" y="134" type="curve" smooth="yes"/>
      <point x="164" y="158"/>
      <point x="184" y="176"/>
      <point x="222" y="190" type="curve"/>
      <point x="162" y="216" type="line"/>
      <point x="62" y="185"/>
      <point x="10" y="138"/>
      <point x="10" y="72" type="curve" smooth="yes"/>
      <point x="10" y="8"/>
      <point x="46" y="-30"/>
      <point x="105" y="-53" type="curve"/>
      <point x="110" y="-74" type="line"/>
      <point x="349" y="-74" type="line" smooth="yes"/>
      <point x="365" y="-74"/>
      <point x="371" y="-82"/>
      <point x="371" y="-100" type="curve" smooth="yes"/>
      <point x="371" y="-133"/>
      <point x="342" y="-157"/>
      <point x="262" y="-157" type="curve" smooth="yes"/>
      <point x="241" y="-157" type="line" smooth="yes"/>
      <point x="171" y="-157"/>
      <point x="142" y="-142"/>
      <point x="142" y="-110" type="curve" smooth="yes"/>
      <point x="142" y="-87"/>
      <point x="150" y="-72"/>
      <point x="176" y="-57" type="curve"/>
      <point x="139" y="-26" type="line"/>
      <point x="23" y="-46"/>
      <point x="-18" y="-72"/>
      <point x="-18" y="-124" type="curve" smooth="yes"/>
      <point x="-18" y="-207"/>
      <point x="70" y="-236"/>
    </contour>
  </outline>
</glyph>
<glyph name="j" format="2">
  <advance width="278"/>
  <unicode hex="006A"/>
  <outline>
    <contour>
      <point x="28" y="-27" type="line" smooth="yes"/>
      <point x="28" y="-117"/>
      <point x="13" y="-146"/>
      <point x="-21" y="-146" type="curve" smooth="yes"/>
      <point x="-46" y="-146"/>
      <point x="-66" y="-136"/>
      <point x="-82" y="-128" type="curve"/>
      <point x="-82" y="-221" type="line"/>
      <point x="-70" y="-228"/>
      <point x="-27" y="-236"/>
      <point x="29" y="-236" type="curve" smooth="yes"/>
      <point x="194" y="-236"/>
      <point x="260" y="-173"/>
      <point x="260" y="0" type="curve" smooth="yes"/>
      <point x="260" y="513" type="line"/>
      <point x="0" y="513" type="line"/>
      <point x="0" y="438" type="line"/>
      <point x="4" y="436" type="line" smooth="yes"/>
      <point x="15" y="430"/>
      <point x="28" y="425"/>
      <point x="28" y="407" type="curve" smooth="yes"/>
    </contour>
    <contour>
      <point x="142" y="565" type="curve" smooth="yes"/>
      <point x="216" y="565"/>
      <point x="258" y="599"/>
      <point x="258" y="657" type="curve" smooth="yes"/>
      <point x="258" y="714"/>
      <point x="216" y="749"/>
      <point x="142" y="749" type="curve" smooth="yes"/>
      <point x="69" y="749"/>
      <point x="28" y="714"/>
      <point x="28" y="657" type="curve" smooth="yes"/>
      <point x="28" y="598"/>
      <point x="69" y="565"/>
    </contour>
  </outline>
</glyph>
<glyph name="k" format="2">
  <advance width="628"/>
  <unicode hex="006B"/>
  <anchor x="319" y="0" name="bottom"/>
  <outline>
    <contour>
      <point x="620" y="0" type="line"/>
      <point x="620" y="72" type="line"/>
      <point x="618" y="72" type="line"/>
      <point x="598" y="72"/>
      <point x="580" y="80"/>
      <point x="571" y="104" type="curve" smooth="yes"/>
      <point x="438" y="366" type="line"/>
      <point x="378" y="269" type="line"/>
      <point x="507" y="402" type="line" smooth="yes"/>
      <point x="524" y="424"/>
      <point x="547" y="442"/>
      <point x="580" y="442" type="curve"/>
      <point x="581" y="442" type="line"/>
      <point x="581" y="513" type="line"/>
      <point x="354" y="513" type="line"/>
      <point x="354" y="442" type="line"/>
      <point x="361" y="442" type="line" smooth="yes"/>
      <point x="379" y="442"/>
      <point x="415" y="439"/>
      <point x="415" y="424" type="curve"/>
      <point x="278" y="280" type="line"/>
      <point x="278" y="250" type="line"/>
      <point x="329" y="80" type="line"/>
      <point x="329" y="74"/>
      <point x="319" y="72"/>
      <point x="314" y="72" type="curve" smooth="yes"/>
      <point x="311" y="72" type="line"/>
      <point x="311" y="0" type="line"/>
    </contour>
    <contour>
      <point x="262" y="735" type="line"/>
      <point x="10" y="735" type="line"/>
      <point x="10" y="660" type="line"/>
      <point x="15" y="658" type="line" smooth="yes"/>
      <point x="27" y="651"/>
      <point x="30" y="647"/>
      <point x="30" y="629" type="curve" smooth="yes"/>
      <point x="30" y="99" type="line"/>
      <point x="30" y="78"/>
      <point x="21" y="72"/>
      <point x="10" y="72" type="curve" smooth="yes"/>
      <point x="9" y="72" type="line"/>
      <point x="9" y="0" type="line"/>
      <point x="280" y="0" type="line"/>
      <point x="280" y="72" type="line"/>
      <point x="277" y="72" type="line" smooth="yes"/>
      <point x="271" y="72"/>
      <point x="262" y="74"/>
      <point x="262" y="80" type="curve"/>
    </contour>
  </outline>
</glyph>
<glyph name="m" format="2">
  <advance width="855"/>
  <unicode hex="006D"/>
  <anchor x="434" y="-10" name="bottom"/>
  <outline>
    <contour>
      <point x="10" y="0" type="line"/>
      <point x="271" y="0" type="line"/>
      <point x="271" y="72" type="line"/>
      <point x="269" y="72" type="line"/>
      <point x="266" y="72"/>
      <point x="263" y="74"/>
      <point x="263" y="80" type="curve" smooth="yes"/>
      <point x="263" y="405" type="line"/>
      <point x="250" y="394" type="line"/>
      <point x="250" y="513" type="line"/>
      <point x="10" y="513" type="line"/>
      <point x="10" y="438" type="line"/>
      <point x="15" y="436" type="line" smooth="yes"/>
      <point x="27" y="429"/>
      <point x="30" y="425"/>
      <point x="30" y="407" type="curve" smooth="yes"/>
      <point x="30" y="99" type="line"/>
      <point x="30" y="78"/>
      <point x="21" y="72"/>
      <point x="10" y="72" type="curve" smooth="yes"/>
      <point x="10" y="72" type="line"/>
    </contour>
    <contour>
      <point x="554" y="0" type="line"/>
      <point x="554" y="72" type="line"/>
      <point x="553" y="72" type="line"/>
      <point x="549" y="72"/>
      <point x="545" y="74"/>
      <point x="545" y="80" type="curve" smooth="yes"/>
      <point x="545" y="345" type="line" smooth="yes"/>
      <point x="545" y="461"/>
      <point x="488" y="523"/>
      <point x="399" y="523" type="curve" smooth="yes"/>
      <point x="326" y="523"/>
      <point x="267" y="477"/>
      <point x="241" y="396" type="curve"/>
      <point x="241" y="290" type="line"/>
      <point x="266" y="381"/>
      <point x="282" y="407"/>
      <point x="295" y="407" type="curve" smooth="yes"/>
      <point x="309" y="407"/>
      <point x="312" y="388"/>
      <point x="312" y="350" type="curve" smooth="yes"/>
      <point x="312" y="80" type="line" smooth="yes"/>
      <point x="312" y="74"/>
      <point x="308" y="72"/>
      <point x="303" y="72" type="curve"/>
      <point x="303" y="72" type="line"/>
      <point x="303" y="0" type="line"/>
    </contour>
    <contour>
      <point x="847" y="0" type="line"/>
      <point x="847" y="72" type="line"/>
      <point x="845" y="72" type="line" smooth="yes"/>
      <point x="835" y="72"/>
      <point x="827" y="78"/>
      <point x="827" y="99" type="curve"/>
      <point x="827" y="345" type="line" smooth="yes"/>
      <point x="827" y="461"/>
      <point x="770" y="523"/>
      <point x="682" y="523" type="curve" smooth="yes"/>
      <point x="609" y="523"/>
      <point x="551" y="478"/>
      <point x="523" y="397" type="curve"/>
      <point x="523" y="294" type="line"/>
      <point x="546" y="374"/>
      <point x="561" y="407"/>
      <point x="577" y="407" type="curve" smooth="yes"/>
      <point x="591" y="407"/>
      <point x="595" y="388"/>
      <point x="595" y="350" type="curve" smooth="yes"/>
      <point x="595" y="80" type="line" smooth="yes"/>
      <point x="595" y="74"/>
      <point x="591" y="72"/>
      <point x="586" y="72" type="curve"/>
      <point x="585" y="72" type="line"/>
      <point x="585" y="0" type="line"/>
    </contour>
  </outline>
</glyph>
<glyph name="n" format="2">
  <advance width="585"/>
  <unicode hex="006E"/>
  <anchor x="290" y="513" name="top"/>
  <anchor x="299" y="0" name="bottom"/>
  <outline>
    <contour>
      <point x="10" y="0" type="line"/>
      <point x="280" y="0" type="line"/>
      <point x="280" y="72" type="line"/>
      <point x="277" y="72" type="line" smooth="yes"/>
      <point x="272" y="72"/>
      <point x="263" y="74"/>
      <point x="263" y="80" type="curve" smooth="yes"/>
      <point x="263" y="405" type="line"/>
      <point x="250" y="400" type="line"/>
      <point x="250" y="513" type="line"/>
      <point x="10" y="513" type="line"/>
      <point x="10" y="438" type="line"/>
      <point x="15" y="436" type="line" smooth="yes"/>
      <point x="27" y="429"/>
      <point x="30" y="425"/>
      <point x="30" y="407" type="curve" smooth="yes"/>
      <point x="30" y="99" type="line" smooth="yes"/>
      <point x="30" y="78"/>
      <point x="21" y="72"/>
      <point x="10" y="72" type="curve" smooth="yes"/>
      <point x="10" y="72" type="line"/>
    </contour>
    <contour>
      <point x="578" y="0" type="line"/>
      <point x="578" y="72" type="line"/>
      <point x="576" y="72" type="line" smooth="yes"/>
      <point x="566" y="72"/>
      <point x="557" y="78"/>
      <point x="557" y="99" type="curve"/>
      <point x="557" y="345" type="line" smooth="yes"/>
      <point x="557" y="461"/>
      <point x="497" y="523"/>
      <point x="406" y="523" type="curve" smooth="yes"/>
      <point x="325" y="523"/>
      <point x="259" y="473"/>
      <point x="241" y="394" type="curve"/>
      <point x="241" y="285" type="line"/>
      <point x="261" y="367"/>
      <point x="278" y="407"/>
      <point x="304" y="407" type="curve" smooth="yes"/>
      <point x="317" y="407"/>
      <point x="325" y="388"/>
      <point x="325" y="351" type="curve" smooth="yes"/>
      <point x="325" y="80" type="line" smooth="yes"/>
      <point x="325" y="74"/>
      <point x="316" y="72"/>
      <point x="308" y="72" type="curve" smooth="yes"/>
      <point x="308" y="72" type="line"/>
      <point x="308" y="0" type="line"/>
    </contour>
  </outline>
</glyph>
<glyph name="o" format="2">
  <advance width="571"/>
  <unicode hex="006F"/>
  <anchor x="286" y="513" name="top"/>
  <anchor x="400" y="0" name="right"/>
  <anchor x="286" y="0" name="bottom"/>
  <outline>
    <contour>
      <point x="286" y="-10" type="curve" smooth="yes"/>
      <point x="457" y="-10"/>
      <point x="556" y="98"/>
      <point x="556" y="257" type="curve" smooth="yes"/>
      <point x="556" y="415"/>
      <point x="457" y="523"/>
      <point x="286" y="523" type="curve" smooth="yes"/>
      <point x="114" y="523"/>
      <point x="15" y="415"/>
      <point x="15" y="257" type="curve" smooth="yes"/>
      <point x="15" y="98"/>
      <point x="114" y="-10"/>
    </contour>
    <contour>
      <point x="286" y="76" type="curve" smooth="yes"/>
      <point x="260" y="76"/>
      <point x="252" y="135"/>
      <point x="252" y="257" type="curve" smooth="yes"/>
      <point x="252" y="378"/>
      <point x="260" y="434"/>
      <point x="286" y="434" type="curve" smooth="yes"/>
      <point x="310" y="434"/>
      <point x="319" y="378"/>
      <point x="319" y="257" type="curve" smooth="yes"/>
      <point x="319" y="135"/>
      <point x="310" y="76"/>
    </contour>
  </outline>
</glyph>
<glyph name="p" format="2">
  <advance width="589"/>
  <unicode hex="0070"/>
  <outline>
    <contour>
      <point x="303" y="-223" type="line"/>
      <point x="303" y="-151" type="line"/>
      <point x="305" y="-151" type="line"/>
      <point x="288" y="-151"/>
      <point x="263" y="-149"/>
      <point x="263" y="-143" type="curve" smooth="yes"/>
      <point x="263" y="376" type="line"/>
      <point x="251" y="373" type="line"/>
      <point x="251" y="513" type="line"/>
      <point x="10" y="513" type="line"/>
      <point x="10" y="438" type="line"/>
      <point x="16" y="436" type="line" smooth="yes"/>
      <point x="28" y="429"/>
      <point x="31" y="425"/>
      <point x="31" y="407" type="curve" smooth="yes"/>
      <point x="31" y="-124" type="line" smooth="yes"/>
      <point x="31" y="-145"/>
      <point x="22" y="-151"/>
      <point x="11" y="-151" type="curve" smooth="yes"/>
      <point x="10" y="-151" type="line"/>
      <point x="10" y="-223" type="line"/>
    </contour>
    <contour>
      <point x="373" y="-10" type="curve" smooth="yes"/>
      <point x="487" y="-10"/>
      <point x="569" y="103"/>
      <point x="569" y="263" type="curve" smooth="yes"/>
      <point x="569" y="419"/>
      <point x="496" y="523"/>
      <point x="380" y="523" type="curve" smooth="yes"/>
      <point x="313" y="523"/>
      <point x="276" y="486"/>
      <point x="242" y="414" type="curve"/>
      <point x="242" y="296" type="line"/>
      <point x="262" y="369"/>
      <point x="273" y="416"/>
      <point x="300" y="416" type="curve" smooth="yes"/>
      <point x="324" y="416"/>
      <point x="333" y="363"/>
      <point x="333" y="263" type="curve" smooth="yes"/>
      <point x="333" y="161"/>
      <point x="324" y="97"/>
      <point x="293" y="97" type="curve" smooth="yes"/>
      <point x="261" y="97"/>
      <point x="254" y="142"/>
      <point x="242" y="202" type="curve"/>
      <point x="242" y="58" type="line"/>
      <point x="271" y="11"/>
      <point x="314" y="-10"/>
    </contour>
  </outline>
</glyph>
<glyph name="q" format="2">
  <advance width="583"/>
  <unicode hex="0071"/>
  <outline>
    <contour>
      <point x="282" y="-223" type="line"/>
      <point x="573" y="-223" type="line"/>
      <point x="573" y="-151" type="line"/>
      <point x="573" y="-151" type="line" smooth="yes"/>
      <point x="563" y="-151"/>
      <point x="554" y="-145"/>
      <point x="554" y="-124" type="curve" smooth="yes"/>
      <point x="554" y="514" type="line"/>
      <point x="420" y="514" type="line"/>
      <point x="342" y="400" type="line"/>
      <point x="321" y="402" type="line"/>
      <point x="321" y="-143" type="line" smooth="yes"/>
      <point x="321" y="-149"/>
      <point x="297" y="-151"/>
      <point x="279" y="-151" type="curve"/>
      <point x="282" y="-151" type="line"/>
    </contour>
    <contour>
      <point x="211" y="523" type="curve" smooth="yes"/>
      <point x="97" y="523"/>
      <point x="15" y="410"/>
      <point x="15" y="250" type="curve" smooth="yes"/>
      <point x="15" y="94"/>
      <point x="89" y="-10"/>
      <point x="204" y="-10" type="curve" smooth="yes"/>
      <point x="291" y="-10"/>
      <point x="330" y="41"/>
      <point x="369" y="139" type="curve"/>
      <point x="369" y="253" type="line"/>
      <point x="320" y="143"/>
      <point x="311" y="97"/>
      <point x="284" y="97" type="curve" smooth="yes"/>
      <point x="259" y="97"/>
      <point x="252" y="150"/>
      <point x="252" y="250" type="curve" smooth="yes"/>
      <point x="252" y="352"/>
      <point x="260" y="416"/>
      <point x="292" y="416" type="curve" smooth="yes"/>
      <point x="323" y="416"/>
      <point x="330" y="372"/>
      <point x="369" y="280" type="curve"/>
      <point x="369" y="394" type="line"/>
      <point x="344" y="479"/>
      <point x="293" y="523"/>
    </contour>
  </outline>
</glyph>
<glyph name="r" format="2">
  <advance width="419"/>
  <unicode hex="0072"/>
  <anchor x="231" y="513" name="top"/>
  <anchor x="166" y="0" name="bottom"/>
  <outline>
    <contour>
      <point x="401" y="512" type="line"/>
      <point x="395" y="515"/>
      <point x="384" y="518"/>
      <point x="366" y="518" type="curve" smooth="yes"/>
      <point x="282" y="518"/>
      <point x="261" y="439"/>
      <point x="241" y="327" type="curve"/>
      <point x="241" y="269" type="line"/>
      <point x="259" y="323"/>
      <point x="302" y="336"/>
      <point x="348" y="336" type="curve" smooth="yes"/>
      <point x="368" y="336"/>
      <point x="387" y="332"/>
      <point x="401" y="328" type="curve"/>
    </contour>
    <contour>
      <point x="10" y="0" type="line"/>
      <point x="302" y="0" type="line"/>
      <point x="302" y="72" type="line"/>
      <point x="303" y="72" type="line"/>
      <point x="285" y="72"/>
      <point x="263" y="74"/>
      <point x="263" y="83" type="curve" smooth="yes"/>
      <point x="263" y="359" type="line"/>
      <point x="250" y="345" type="line"/>
      <point x="250" y="513" type="line"/>
      <point x="10" y="513" type="line"/>
      <point x="10" y="438" type="line"/>
      <point x="15" y="436" type="line" smooth="yes"/>
      <point x="27" y="429"/>
      <point x="30" y="425"/>
      <point x="30" y="407" type="curve" smooth="yes"/>
      <point x="30" y="99" type="line" smooth="yes"/>
      <point x="30" y="78"/>
      <point x="21" y="72"/>
      <point x="10" y="72" type="curve" smooth="yes"/>
      <point x="10" y="72" type="line"/>
    </contour>
  </outline>
</glyph>
<glyph name="u" format="2">
  <advance width="581"/>
  <unicode hex="0075"/>
  <anchor x="268" y="513" name="top"/>
  <anchor x="449" y="0" name="right"/>
  <anchor x="265" y="0" name="bottom"/>
  <outline>
    <contour>
      <point x="261" y="513" type="line"/>
      <point x="8" y="513" type="line"/>
      <point x="8" y="438" type="line"/>
      <point x="14" y="436" type="line" smooth="yes"/>
      <point x="25" y="430"/>
      <point x="28" y="425"/>
      <point x="28" y="407" type="curve" smooth="yes"/>
      <point x="28" y="168" type="line" smooth="yes"/>
      <point x="28" y="52"/>
      <point x="88" y="-10"/>
      <point x="179" y="-10" type="curve" smooth="yes"/>
      <point x="252" y="-10"/>
      <point x="316" y="32"/>
      <point x="342" y="116" type="curve"/>
      <point x="342" y="228" type="line"/>
      <point x="319" y="138"/>
      <point x="301" y="106"/>
      <point x="281" y="106" type="curve" smooth="yes"/>
      <point x="266" y="106"/>
      <point x="261" y="126"/>
      <point x="261" y="166" type="curve" smooth="yes"/>
    </contour>
    <contour>
      <point x="553" y="513" type="line"/>
      <point x="286" y="513" type="line"/>
      <point x="286" y="438" type="line"/>
      <point x="293" y="436" type="line" smooth="yes"/>
      <point x="304" y="431"/>
      <point x="320" y="425"/>
      <point x="320" y="407" type="curve" smooth="yes"/>
      <point x="320" y="108" type="line"/>
      <point x="333" y="119" type="line"/>
      <point x="333" y="0" type="line"/>
      <point x="573" y="0" type="line"/>
      <point x="573" y="75" type="line"/>
      <point x="566" y="77" type="line" smooth="yes"/>
      <point x="554" y="82"/>
      <point x="553" y="86"/>
      <point x="553" y="104" type="curve" smooth="yes"/>
    </contour>
  </outline>
</glyph>
<glyph name="x" format="2">
  <advance width="510"/>
  <unicode hex="0078"/>
  <outline>
    <contour>
      <point x="503" y="0" type="line"/>
      <point x="503" y="71" type="line"/>
      <point x="502" y="71" type="line"/>
      <point x="485" y="71"/>
      <point x="480" y="81"/>
      <point x="468" y="105" type="curve" smooth="yes"/>
      <point x="372" y="280" type="line"/>
      <point x="369" y="284" type="line"/>
      <point x="288" y="434" type="line"/>
      <point x="288" y="440"/>
      <point x="303" y="442"/>
      <point x="315" y="442" type="curve" smooth="yes"/>
      <point x="317" y="442" type="line"/>
      <point x="317" y="513" type="line"/>
      <point x="5" y="513" type="line"/>
      <point x="5" y="441" type="line"/>
      <point x="5" y="441" type="line"/>
      <point x="21" y="441"/>
      <point x="24" y="436"/>
      <point x="35" y="415" type="curve" smooth="yes"/>
      <point x="132" y="238" type="line"/>
      <point x="135" y="235" type="line"/>
      <point x="220" y="80" type="line"/>
      <point x="220" y="73"/>
      <point x="203" y="71"/>
      <point x="190" y="71" type="curve" smooth="yes"/>
      <point x="189" y="71" type="line"/>
      <point x="189" y="0" type="line"/>
    </contour>
    <contour>
      <point x="10" y="0" type="line"/>
      <point x="152" y="0" type="line"/>
      <point x="152" y="71" type="line"/>
      <point x="152" y="71" type="line" smooth="yes"/>
      <point x="139" y="71"/>
      <point x="126" y="79"/>
      <point x="126" y="91" type="curve"/>
      <point x="217" y="240" type="line"/>
      <point x="152" y="274" type="line"/>
      <point x="46" y="109" type="line" smooth="yes"/>
      <point x="31" y="84"/>
      <point x="24" y="71"/>
      <point x="11" y="71" type="curve"/>
      <point x="10" y="71" type="line"/>
    </contour>
    <contour>
      <point x="359" y="244" type="line"/>
      <point x="454" y="397" type="line" smooth="yes"/>
      <point x="472" y="427"/>
      <point x="479" y="442"/>
      <point x="495" y="442" type="curve"/>
      <point x="494" y="442" type="line"/>
      <point x="494" y="513" type="line"/>
      <point x="359" y="513" type="line"/>
      <point x="359" y="442" type="line"/>
      <point x="361" y="442" type="line" smooth="yes"/>
      <point x="371" y="442"/>
      <point x="382" y="434"/>
      <point x="382" y="422" type="curve"/>
      <point x="296" y="281" type="line"/>
    </contour>
  </outline>
</glyph>
<glyph name="currency" format="2">
  <advance width="471"/>
  <unicode hex="00A4"/>
  <outline>
    <contour>
      <point x="283" y="373" type="curve" smooth="yes"/>
      <point x="283" y="324"/>
      <point x="265" y="291"/>
      <point x="235" y="291" type="curve" smooth="yes"/>
      <point x="205" y="291"/>
      <point x="188" y="324"/>
      <point x="188" y="373" type="curve" smooth="yes"/>
      <point x="188" y="422"/>
      <point x="205" y="455"/>
      <point x="235" y="455" type="curve" smooth="yes"/>
      <point x="265" y="455"/>
      <point x="283" y="422"/>
    </contour>
    <contour>
      <point x="45" y="373" type="curve" smooth="yes"/>
      <point x="45" y="245"/>
      <point x="128" y="153"/>
      <point x="235" y="153" type="curve" smooth="yes"/>
      <point x="345" y="153"/>
      <point x="426" y="245"/>
      <point x="426" y="373" type="curve" smooth="yes"/>
      <point x="426" y="501"/>
      <point x="345" y="593"/>
      <point x="235" y="593" type="curve" smooth="yes"/>
      <point x="128" y="593"/>
      <point x="45" y="501"/>
    </contour>
    <contour>
      <point x="5" y="565" type="line"/>
      <point x="98" y="456" type="line"/>
      <point x="193" y="539" type="line"/>
      <point x="94" y="655" type="line"/>
    </contour>
    <contour>
      <point x="466" y="565" type="line"/>
      <point x="378" y="655" type="line"/>
      <point x="278" y="539" type="line"/>
      <point x="373" y="456" type="line"/>
    </contour>
    <contour>
      <point x="5" y="181" type="line"/>
      <point x="94" y="91" type="line"/>
      <point x="193" y="207" type="line"/>
      <point x="98" y="290" type="line"/>
    </contour>
    <contour>
      <point x="466" y="181" type="line"/>
      <point x="373" y="290" type="line"/>
      <point x="278" y="207" type="line"/>
      <point x="378" y="91" type="line"/>
    </contour>
  </outline>
</glyph>
<glyph name="yen" format="2">
  <advance width="471"/>
  <unicode hex="00A5"/>
  <outline>
    <contour>
      <point x="35" y="374" type="line"/>
      <point x="35" y="281" type="line"/>
      <point x="440" y="281" type="line"/>
      <point x="440" y="374" type="line"/>
    </contour>
    <contour>
      <point x="35" y="242" type="line"/>
      <point x="35" y="149" type="line"/>
      <point x="440" y="149" type="line"/>
      <point x="440" y="242" type="line"/>
    </contour>
    <contour>
      <point x="118" y="375" type="line"/>
      <point x="118" y="113" type="line" smooth="yes"/>
      <point x="118" y="84"/>
      <point x="106" y="77"/>
      <point x="90" y="77" type="curve" smooth="yes"/>
      <point x="78" y="77" type="line"/>
      <point x="78" y="0" type="line"/>
      <point x="396" y="0" type="line"/>
      <point x="396" y="77" type="line"/>
      <point x="385" y="77" type="line" smooth="yes"/>
      <point x="369" y="77"/>
      <point x="357" y="84"/>
      <point x="357" y="113" type="curve" smooth="yes"/>
      <point x="357" y="375" type="line"/>
    </contour>
    <contour>
      <point x="345" y="328" type="line"/>
      <point x="433" y="592" type="line" smooth="yes"/>
      <point x="445" y="626"/>
      <point x="450" y="633"/>
      <point x="461" y="633" type="curve" smooth="yes"/>
      <point x="463" y="633" type="line"/>
      <point x="463" y="710" type="line"/>
      <point x="338" y="710" type="line"/>
      <point x="338" y="633" type="line"/>
      <point x="337" y="633" type="line" smooth="yes"/>
      <point x="348" y="633"/>
      <point x="356" y="626"/>
      <point x="356" y="615" type="curve"/>
      <point x="283" y="382" type="line"/>
      <point x="335" y="400" type="line"/>
      <point x="266" y="623" type="line"/>
      <point x="266" y="630"/>
      <point x="271" y="633"/>
      <point x="281" y="633" type="curve" smooth="yes"/>
      <point x="284" y="633" type="line"/>
      <point x="284" y="710" type="line"/>
      <point x="8" y="710" type="line"/>
      <point x="8" y="633" type="line"/>
      <point x="10" y="633" type="line" smooth="yes"/>
      <point x="19" y="633"/>
      <point x="24" y="629"/>
      <point x="31" y="607" type="curve" smooth="yes"/>
      <point x="132" y="330" type="line"/>
    </contour>
  </outline>
</glyph>
<glyph name="dieresis" format="2">
  <advance width="421"/>
  <unicode hex="00A8"/>
  <anchor x="210" y="526" name="_top"/>
  <outline>
    <contour>
      <point x="99" y="563" type="curve" smooth="yes"/>
      <point x="166" y="563"/>
      <point x="205" y="597"/>
      <point x="205" y="655" type="curve" smooth="yes"/>
      <point x="205" y="712"/>
      <point x="166" y="747"/>
      <point x="99" y="747" type="curve" smooth="yes"/>
      <point x="31" y="747"/>
      <point x="-8" y="712"/>
      <point x="-8" y="655" type="curve" smooth="yes"/>
      <point x="-8" y="596"/>
      <point x="31" y="563"/>
    </contour>
    <contour>
      <point x="321" y="563" type="curve" smooth="yes"/>
      <point x="390" y="563"/>
      <point x="429" y="597"/>
      <point x="429" y="655" type="curve" smooth="yes"/>
      <point x="429" y="712"/>
      <point x="390" y="747"/>
      <point x="321" y="747" type="curve" smooth="yes"/>
      <point x="254" y="747"/>
      <point x="214" y="712"/>
      <point x="214" y="655" type="curve" smooth="yes"/>
      <point x="214" y="596"/>
      <point x="254" y="563"/>
    </contour>
  </outline>
</glyph>
<glyph name="acute" format="2">
  <advance width="421"/>
  <unicode hex="00B4"/>
  <anchor x="169" y="527" name="_top"/>
  <outline>
    <contour>
      <point x="170" y="682" type="curve" smooth="yes"/>
      <point x="154" y="585" type="line"/>
      <point x="154" y="555" type="line"/>
      <point x="220" y="555" type="line"/>
      <point x="279" y="604" type="line" smooth="yes"/>
      <point x="331" y="635"/>
      <point x="355" y="669"/>
      <point x="355" y="711" type="curve" smooth="yes"/>
      <point x="355" y="750"/>
      <point x="323" y="780"/>
      <point x="274" y="780" type="curve" smooth="yes"/>
      <point x="216" y="780"/>
      <point x="186" y="744"/>
    </contour>
  </outline>
</glyph>
<glyph name="cedilla" format="2">
  <advance width="505"/>
  <unicode hex="00B8"/>
  <anchor x="255" y="34" name="_bottom"/>
  <outline>
    <contour>
      <point x="269" y="4" type="line"/>
      <point x="186" y="4" type="line"/>
      <point x="158" y="-100" type="line"/>
      <point x="175" y="-100" type="line" smooth="yes"/>
      <point x="212" y="-100"/>
      <point x="224" y="-112"/>
      <point x="224" y="-132" type="curve" smooth="yes"/>
      <point x="224" y="-151"/>
      <point x="215" y="-163"/>
      <point x="199" y="-163" type="curve" smooth="yes"/>
      <point x="181" y="-163"/>
      <point x="161" y="-149"/>
      <point x="137" y="-127" type="curve"/>
      <point x="94" y="-190" type="line"/>
      <point x="126" y="-220"/>
      <point x="165" y="-238"/>
      <point x="223" y="-238" type="curve" smooth="yes"/>
      <point x="296" y="-238"/>
      <point x="345" y="-207"/>
      <point x="345" y="-138" type="curve" smooth="yes"/>
      <point x="345" y="-80"/>
      <point x="304" y="-49"/>
      <point x="230" y="-54" type="curve"/>
      <point x="238" y="-66" type="line"/>
    </contour>
  </outline>
</glyph>
<glyph name="ordmasculine" format="2">
  <advance width="450"/>
  <unicode hex="00BA"/>
  <outline>
    <contour>
      <point x="225" y="720" type="curve" smooth="yes"/>
      <point x="90" y="720"/>
      <point x="12" y="638"/>
      <point x="12" y="516" type="curve" smooth="yes"/>
      <point x="12" y="393"/>
      <point x="90" y="310"/>
      <point x="225" y="310" type="curve" smooth="yes"/>
      <point x="360" y="310"/>
      <point x="438" y="393"/>
      <point x="438" y="516" type="curve" smooth="yes"/>
      <point x="438" y="638"/>
      <point x="360" y="720"/>
    </contour>
    <contour>
      <point x="225" y="386" type="curve" smooth="yes"/>
      <point x="205" y="386"/>
      <point x="199" y="427"/>
      <point x="199" y="516" type="curve" smooth="yes"/>
      <point x="199" y="603"/>
      <point x="205" y="644"/>
      <point x="225" y="644" type="curve" smooth="yes"/>
      <point x="246" y="644"/>
      <point x="251" y="603"/>
      <point x="251" y="516" type="curve" smooth="yes"/>
      <point x="251" y="427"/>
      <point x="246" y="386"/>
    </contour>
  </outline>
</glyph>
<glyph name="AE" format="2">
  <advance width="809"/>
  <unicode hex="00C6"/>
  <anchor x="518" y="741" name="top"/>
  <outline>
    <contour>
      <point x="224" y="309" type="line"/>
      <point x="181" y="223" type="line"/>
      <point x="355" y="223" type="line"/>
      <point x="355" y="309" type="line"/>
    </contour>
    <contour>
      <point x="573" y="401" type="curve"/>
      <point x="573" y="326" type="line"/>
      <point x="622" y="321"/>
      <point x="673" y="317"/>
      <point x="722" y="313" type="curve"/>
      <point x="722" y="414" type="line"/>
      <point x="674" y="409"/>
      <point x="623" y="406"/>
    </contour>
    <contour>
      <point x="311" y="0" type="line"/>
      <point x="796" y="0" type="line"/>
      <point x="796" y="232" type="line"/>
      <point x="697" y="232" type="line"/>
      <point x="687" y="130" type="line" smooth="yes"/>
      <point x="683" y="94"/>
      <point x="660" y="87"/>
      <point x="598" y="87" type="curve" smooth="yes"/>
      <point x="595" y="87" type="line"/>
      <point x="595" y="623" type="line"/>
      <point x="605" y="623" type="line" smooth="yes"/>
      <point x="641" y="623"/>
      <point x="671" y="616"/>
      <point x="673" y="580" type="curve" smooth="yes"/>
      <point x="676" y="503" type="line"/>
      <point x="773" y="503" type="line"/>
      <point x="773" y="710" type="line"/>
      <point x="164" y="710" type="line"/>
      <point x="164" y="633" type="line"/>
      <point x="183" y="633" type="line" smooth="yes"/>
      <point x="236" y="633"/>
      <point x="256" y="623"/>
      <point x="257" y="601" type="curve"/>
      <point x="52" y="120" type="line" smooth="yes"/>
      <point x="38" y="88"/>
      <point x="23" y="77"/>
      <point x="8" y="77" type="curve" smooth="yes"/>
      <point x="4" y="77" type="line"/>
      <point x="4" y="0" type="line"/>
      <point x="178" y="0" type="line"/>
      <point x="178" y="77" type="line"/>
      <point x="170" y="77" type="line" smooth="yes"/>
      <point x="152" y="77"/>
      <point x="140" y="84"/>
      <point x="140" y="95" type="curve"/>
      <point x="348" y="603" type="line"/>
      <point x="348" y="603" type="line"/>
      <point x="348" y="109" type="line"/>
      <point x="348" y="83"/>
      <point x="338" y="77"/>
      <point x="319" y="77" type="curve" smooth="yes"/>
      <point x="311" y="77" type="line"/>
    </contour>
  </outline>
</glyph>
<glyph name="Eth" format="2">
  <advance width="701"/>
  <unicode hex="00D0"/>
  <outline>
    <contour>
      <point x="14" y="402" type="line"/>
      <point x="14" y="308" type="line"/>
      <point x="362" y="308" type="line"/>
      <point x="362" y="402" type="line"/>
    </contour>
    <component base="D"/>
  </outline>
</glyph>
<glyph name="Thorn" format="2">
  <advance width="621"/>
  <unicode hex="00DE"/>
  <outline>
    <contour>
      <point x="346" y="710" type="line"/>
      <point x="346" y="633" type="line"/>
      <point x="326" y="633" type="line" smooth="yes"/>
      <point x="314" y="633"/>
      <point x="299" y="630"/>
      <point x="299" y="623" type="curve"/>
      <point x="299" y="87" type="line" smooth="yes"/>
      <point x="299" y="80"/>
      <point x="314" y="77"/>
      <point x="326" y="77" type="curve" smooth="yes"/>
      <point x="346" y="77" type="line"/>
      <point x="346" y="0" type="line"/>
      <point x="14" y="0" type="line"/>
      <point x="14" y="77" type="line"/>
      <point x="23" y="77" type="line" smooth="yes"/>
      <point x="40" y="77"/>
      <point x="52" y="84"/>
      <point x="52" y="113" type="curve" smooth="yes"/>
      <point x="52" y="597" type="line" smooth="yes"/>
      <point x="52" y="626"/>
      <point x="40" y="633"/>
      <point x="23" y="633" type="curve" smooth="yes"/>
      <point x="14" y="633" type="line"/>
      <point x="14" y="710" type="line"/>
    </contour>
    <contour>
      <point x="622" y="367" type="curve" smooth="yes"/>
      <point x="622" y="231"/>
      <point x="527" y="149"/>
      <point x="373" y="149" type="curve" smooth="yes"/>
      <point x="208" y="149" type="line"/>
      <point x="208" y="237" type="line"/>
      <point x="305" y="237" type="line" smooth="yes"/>
      <point x="348" y="237"/>
      <point x="381" y="278"/>
      <point x="381" y="363" type="curve" smooth="yes"/>
      <point x="381" y="448"/>
      <point x="348" y="484"/>
      <point x="307" y="484" type="curve" smooth="yes"/>
      <point x="208" y="484" type="line"/>
      <point x="206" y="572" type="line"/>
      <point x="377" y="572" type="line" smooth="yes"/>
      <point x="533" y="572"/>
      <point x="622" y="499"/>
    </contour>
  </outline>
</glyph>
<glyph name="germandbls" format="2">
  <advance width="603"/>
  <unicode hex="00DF"/>
  <outline>
    <contour>
      <point x="-6" y="513" type="line"/>
      <point x="-6" y="432" type="line"/>
      <point x="107" y="432" type="line"/>
      <point x="107" y="513" type="line"/>
    </contour>
    <contour>
      <point x="336" y="424" type="line"/>
      <point x="451" y="422"/>
      <point x="548" y="475"/>
      <point x="548" y="583" type="curve" smooth="yes"/>
      <point x="548" y="688"/>
      <point x="460" y="748"/>
      <point x="306" y="748" type="curve" smooth="yes"/>
      <point x="106" y="748"/>
      <point x="47" y="666"/>
      <point x="47" y="533" type="curve" smooth="yes"/>
      <point x="47" y="102" type="line" smooth="yes"/>
      <point x="47" y="81"/>
      <point x="38" y="72"/>
      <point x="18" y="72" type="curve" smooth="yes"/>
      <point x="8" y="72" type="line"/>
      <point x="8" y="0" type="line"/>
      <point x="279" y="0" type="line"/>
      <point x="279" y="556" type="line" smooth="yes"/>
      <point x="279" y="633"/>
      <point x="285" y="659"/>
      <point x="311" y="659" type="curve" smooth="yes"/>
      <point x="331" y="659"/>
      <point x="339" y="635"/>
      <point x="339" y="585" type="curve" smooth="yes"/>
      <point x="339" y="501"/>
      <point x="319" y="464"/>
      <point x="303" y="457" type="curve"/>
      <point x="303" y="381" type="line"/>
      <point x="307" y="380" type="line" smooth="yes"/>
      <point x="334" y="372"/>
      <point x="353" y="311"/>
      <point x="353" y="208" type="curve" smooth="yes"/>
      <point x="353" y="103"/>
      <point x="331" y="79"/>
      <point x="316" y="79" type="curve" smooth="yes"/>
      <point x="308" y="79"/>
      <point x="306" y="85"/>
      <point x="303" y="86" type="curve"/>
      <point x="303" y="8" type="line"/>
      <point x="324" y="-1"/>
      <point x="360" y="-10"/>
      <point x="400" y="-10" type="curve" smooth="yes"/>
      <point x="521" y="-10"/>
      <point x="589" y="60"/>
      <point x="589" y="195" type="curve" smooth="yes"/>
      <point x="589" y="327"/>
      <point x="492" y="424"/>
      <point x="348" y="443" type="curve"/>
      <point x="390" y="407" type="line"/>
      <point x="390" y="453" type="line"/>
    </contour>
  </outline>
</glyph>
<glyph name="icircumflex" format="2">
  <advance width="291"/>
  <unicode hex="00EE"/>
  <outline>
    <contour>
      <point x="232" y="730" type="line"/>
      <point x="333" y="581" type="line"/>
      <point x="333" y="556" type="line"/>
      <point x="238" y="556" type="line"/>
      <point x="74" y="662" type="line"/>
      <point x="217" y="662" type="line"/>
      <point x="51" y="556" type="line"/>
      <point x="-35" y="556" type="line"/>
      <point x="-35" y="581" type="line"/>
      <point x="67" y="730" type="line"/>
    </contour>
    <component base="dotlessi"/>
  </outline>
</glyph>
<glyph name="thorn" format="2">
  <advance width="590"/>
  <unicode hex="00FE"/>
  <outline>
    <contour>
      <point x="12" y="-223" type="line"/>
      <point x="304" y="-223" type="line"/>
      <point x="304" y="-151" type="line"/>
      <point x="307" y="-151" type="line"/>
      <point x="289" y="-151"/>
      <point x="265" y="-149"/>
      <point x="265" y="-143" type="curve"/>
      <point x="265" y="735" type="line"/>
      <point x="12" y="735" type="line"/>
      <point x="12" y="660" type="line"/>
      <point x="18" y="658" type="line" smooth="yes"/>
      <point x="29" y="651"/>
      <point x="32" y="647"/>
      <point x="32" y="629" type="curve" smooth="yes"/>
      <point x="32" y="-124" type="line" smooth="yes"/>
      <point x="32" y="-145"/>
      <point x="23" y="-151"/>
      <point x="13" y="-151" type="curve" smooth="yes"/>
      <point x="12" y="-151" type="line"/>
    </contour>
    <contour>
      <point x="334" y="263" type="curve" smooth="yes"/>
      <point x="334" y="161"/>
      <point x="326" y="97"/>
      <point x="295" y="97" type="curve" smooth="yes"/>
      <point x="262" y="97"/>
      <point x="256" y="145"/>
      <point x="242" y="209" type="curve"/>
      <point x="195" y="156" type="line"/>
      <point x="224" y="41"/>
      <point x="276" y="-10"/>
      <point x="375" y="-10" type="curve" smooth="yes"/>
      <point x="489" y="-10"/>
      <point x="571" y="103"/>
      <point x="571" y="263" type="curve" smooth="yes"/>
      <point x="571" y="419"/>
      <point x="497" y="523"/>
      <point x="381" y="523" type="curve" smooth="yes"/>
      <point x="298" y="523"/>
      <point x="261" y="465"/>
      <point x="218" y="351" type="curve"/>
      <point x="243" y="293" type="line"/>
      <point x="265" y="368"/>
      <point x="275" y="416"/>
      <point x="302" y="416" type="curve" smooth="yes"/>
      <point x="326" y="416"/>
      <point x="334" y="363"/>
    </contour>
  </outline>
</glyph>
<glyph name="Hbar" format="2">
  <advance width="683"/>
  <unicode hex="0126"/>
  <outline>
    <contour>
      <point x="14" y="470" type="line"/>
      <point x="675" y="470" type="line"/>
      <point x="675" y="548" type="line"/>
      <point x="14" y="548" type="line"/>
    </contour>
    <contour>
      <point x="138" y="388" type="line"/>
      <point x="138" y="309" type="line"/>
      <point x="501" y="309" type="line"/>
      <point x="501" y="388" type="line"/>
    </contour>
    <contour>
      <point x="14" y="0" type="line"/>
      <point x="335" y="0" type="line"/>
      <point x="335" y="77" type="line"/>
      <point x="328" y="77" type="line" smooth="yes"/>
      <point x="315" y="77"/>
      <point x="299" y="80"/>
      <point x="299" y="87" type="curve" smooth="yes"/>
      <point x="299" y="623" type="line"/>
      <point x="299" y="630"/>
      <point x="315" y="633"/>
      <point x="328" y="633" type="curve" smooth="yes"/>
      <point x="335" y="633" type="line"/>
      <point x="335" y="710" type="line"/>
      <point x="14" y="710" type="line"/>
      <point x="14" y="633" type="line"/>
      <point x="23" y="633" type="line" smooth="yes"/>
      <point x="40" y="633"/>
      <point x="52" y="626"/>
      <point x="52" y="597" type="curve" smooth="yes"/>
      <point x="52" y="113" type="line" smooth="yes"/>
      <point x="52" y="84"/>
      <point x="40" y="77"/>
      <point x="23" y="77" type="curve" smooth="yes"/>
      <point x="14" y="77" type="line"/>
    </contour>
    <contour>
      <point x="355" y="0" type="line"/>
      <point x="675" y="0" type="line"/>
      <point x="675" y="77" type="line"/>
      <point x="667" y="77" type="line" smooth="yes"/>
      <point x="650" y="77"/>
      <point x="638" y="84"/>
      <point x="638" y="113" type="curve" smooth="yes"/>
      <point x="638" y="597" type="line" smooth="yes"/>
      <point x="638" y="626"/>
      <point x="650" y="633"/>
      <point x="667" y="633" type="curve" smooth="yes"/>
      <point x="675" y="633" type="line"/>
      <point x="675" y="710" type="line"/>
      <point x="355" y="710" type="line"/>
      <point x="355" y="633" type="line"/>
      <point x="361" y="633" type="line" smooth="yes"/>
      <point x="375" y="633"/>
      <point x="391" y="630"/>
      <point x="391" y="623" type="curve"/>
      <point x="391" y="87" type="line" smooth="yes"/>
      <point x="391" y="80"/>
      <point x="375" y="77"/>
      <point x="361" y="77" type="curve" smooth="yes"/>
      <point x="355" y="77" type="line"/>
    </contour>
  </outline>
</glyph>
<glyph name="hbar" format="2">
  <advance width="580"/>
  <unicode hex="0127"/>
  <outline>
    <contour>
      <point x="577" y="0" type="line"/>
      <point x="577" y="72" type="line"/>
      <point x="576" y="72" type="line" smooth="yes"/>
      <point x="565" y="72"/>
      <point x="557" y="78"/>
      <point x="557" y="99" type="curve"/>
      <point x="557" y="345" type="line" smooth="yes"/>
      <point x="557" y="461"/>
      <point x="497" y="523"/>
      <point x="406" y="523" type="curve" smooth="yes"/>
      <point x="332" y="523"/>
      <point x="276" y="475"/>
      <point x="257" y="404" type="curve"/>
      <point x="263" y="325" type="line"/>
      <point x="272" y="375"/>
      <point x="286" y="407"/>
      <point x="304" y="407" type="curve" smooth="yes"/>
      <point x="320" y="407"/>
      <point x="325" y="389"/>
      <point x="325" y="352" type="curve" smooth="yes"/>
      <point x="325" y="80" type="line" smooth="yes"/>
      <point x="325" y="74"/>
      <point x="315" y="72"/>
      <point x="308" y="72" type="curve" smooth="yes"/>
      <point x="307" y="72" type="line"/>
      <point x="307" y="0" type="line"/>
    </contour>
    <contour>
      <point x="377" y="654" type="line"/>
      <point x="3" y="654" type="line"/>
      <point x="3" y="565" type="line"/>
      <point x="377" y="565" type="line"/>
    </contour>
    <contour>
      <point x="30" y="735" type="line"/>
      <point x="30" y="99" type="line"/>
      <point x="30" y="78"/>
      <point x="21" y="72"/>
      <point x="10" y="72" type="curve" smooth="yes"/>
      <point x="10" y="72" type="line"/>
      <point x="10" y="0" type="line"/>
      <point x="280" y="0" type="line"/>
      <point x="280" y="72" type="line"/>
      <point x="277" y="72" type="line" smooth="yes"/>
      <point x="272" y="72"/>
      <point x="262" y="74"/>
      <point x="262" y="80" type="curve"/>
      <point x="262" y="735" type="line"/>
    </contour>
  </outline>
</glyph>
<glyph name="itilde" format="2">
  <advance width="290"/>
  <unicode hex="0129"/>
  <outline>
    <contour>
      <point x="205" y="556" type="curve" smooth="yes"/>
      <point x="269" y="556"/>
      <point x="304" y="618"/>
      <point x="322" y="714" type="curve"/>
      <point x="237" y="744" type="line"/>
      <point x="229" y="708"/>
      <point x="223" y="689"/>
      <point x="203" y="689" type="curve" smooth="yes"/>
      <point x="170" y="689"/>
      <point x="150" y="742"/>
      <point x="91" y="742" type="curve" smooth="yes"/>
      <point x="21" y="742"/>
      <point x="-8" y="683"/>
      <point x="-22" y="584" type="curve"/>
      <point x="62" y="556" type="line"/>
      <point x="69" y="593"/>
      <point x="74" y="611"/>
      <point x="93" y="611" type="curve" smooth="yes"/>
      <point x="122" y="611"/>
      <point x="139" y="556"/>
    </contour>
    <component base="dotlessi"/>
  </outline>
</glyph>
<glyph name="dotlessi" format="2">
  <advance width="291"/>
  <unicode hex="0131"/>
  <anchor x="156" y="513" name="top"/>
  <outline>
    <contour>
      <point x="262" y="513" type="line"/>
      <point x="10" y="513" type="line"/>
      <point x="10" y="438" type="line"/>
      <point x="15" y="436" type="line" smooth="yes"/>
      <point x="27" y="430"/>
      <point x="30" y="425"/>
      <point x="30" y="407" type="curve" smooth="yes"/>
      <point x="30" y="99" type="line" smooth="yes"/>
      <point x="30" y="78"/>
      <point x="21" y="72"/>
      <point x="10" y="72" type="curve" smooth="yes"/>
      <point x="9" y="72" type="line"/>
      <point x="9" y="0" type="line"/>
      <point x="282" y="0" type="line"/>
      <point x="282" y="72" type="line"/>
      <point x="282" y="72" type="line" smooth="yes"/>
      <point x="271" y="72"/>
      <point x="262" y="78"/>
      <point x="262" y="99" type="curve" smooth="yes"/>
    </contour>
  </outline>
</glyph>
<glyph name="lslash" format="2">
  <advance width="343"/>
  <unicode hex="0142"/>
  <outline>
    <contour>
      <point x="10" y="190" type="line"/>
      <point x="333" y="428" type="line"/>
      <point x="333" y="526" type="line"/>
      <point x="10" y="288" type="line"/>
    </contour>
    <component base="l" xOffset="25"/>
  </outline>
</glyph>
<glyph name="oe" format="2">
  <advance width="832"/>
  <unicode hex="0153"/>
  <outline>
    <contour>
      <point x="271" y="-10" type="curve" smooth="yes"/>
      <point x="425" y="-10"/>
      <point x="499" y="116"/>
      <point x="499" y="257" type="curve" smooth="yes"/>
      <point x="499" y="396"/>
      <point x="425" y="523"/>
      <point x="271" y="523" type="curve" smooth="yes"/>
      <point x="114" y="523"/>
      <point x="15" y="415"/>
      <point x="15" y="257" type="curve" smooth="yes"/>
      <point x="15" y="98"/>
      <point x="114" y="-10"/>
    </contour>
    <contour>
      <point x="286" y="80" type="curve" smooth="yes"/>
      <point x="260" y="80"/>
      <point x="252" y="135"/>
      <point x="252" y="257" type="curve" smooth="yes"/>
      <point x="252" y="378"/>
      <point x="260" y="434"/>
      <point x="286" y="434" type="curve" smooth="yes"/>
      <point x="312" y="434"/>
      <point x="321" y="378"/>
      <point x="321" y="257" type="curve" smooth="yes"/>
      <point x="321" y="135"/>
      <point x="312" y="80"/>
    </contour>
    <contour>
      <point x="605" y="-10" type="curve" smooth="yes"/>
      <point x="705" y="-10"/>
      <point x="770" y="45"/>
      <point x="804" y="124" type="curve"/>
      <point x="734" y="172" type="line"/>
      <point x="716" y="129"/>
      <point x="686" y="84"/>
      <point x="636" y="84" type="curve" smooth="yes"/>
      <point x="564" y="84"/>
      <point x="553" y="144"/>
      <point x="553" y="255" type="curve" smooth="yes"/>
      <point x="553" y="387"/>
      <point x="564" y="434"/>
      <point x="582" y="434" type="curve"/>
      <point x="601" y="434"/>
      <point x="608" y="402"/>
      <point x="609" y="268" type="curve"/>
      <point x="628" y="304" type="line"/>
      <point x="427" y="304" type="line"/>
      <point x="428" y="222" type="line"/>
      <point x="818" y="222" type="line"/>
      <point x="817" y="423"/>
      <point x="733" y="523"/>
      <point x="589" y="523" type="curve" smooth="yes"/>
      <point x="457" y="523"/>
      <point x="380" y="398"/>
      <point x="380" y="255" type="curve" smooth="yes"/>
      <point x="380" y="110"/>
      <point x="453" y="-10"/>
    </contour>
  </outline>
</glyph>
<glyph name="tbar" format="2">
  <advance width="369"/>
  <unicode hex="0167"/>
  <outline>
    <contour>
      <point x="-1" y="243" type="line"/>
      <point x="359" y="243" type="line"/>
      <point x="359" y="332" type="line"/>
      <point x="-1" y="332" type="line"/>
    </contour>
    <component base="t"/>
  </outline>
</glyph>
<glyph name="Schwa" format="2">
  <advance width="661"/>
  <unicode hex="018F"/>
  <outline>
    <contour>
      <point x="312" y="720" type="curve" smooth="yes"/>
      <point x="164" y="720"/>
      <point x="81" y="639"/>
      <point x="35" y="537" type="curve"/>
      <point x="110" y="484" type="line"/>
      <point x="142" y="551"/>
      <point x="190" y="626"/>
      <point x="269" y="626" type="curve" smooth="yes"/>
      <point x="364" y="626"/>
      <point x="385" y="533"/>
      <point x="385" y="357" type="curve" smooth="yes"/>
      <point x="385" y="155"/>
      <point x="371" y="84"/>
      <point x="334" y="84" type="curve" smooth="yes"/>
      <point x="298" y="84"/>
      <point x="285" y="134"/>
      <point x="282" y="336" type="curve"/>
      <point x="256" y="311" type="line"/>
      <point x="524" y="311" type="line"/>
      <point x="522" y="399" type="line"/>
      <point x="21" y="399" type="line"/>
      <point x="21" y="126"/>
      <point x="127" y="-10"/>
      <point x="334" y="-10" type="curve" smooth="yes"/>
      <point x="509" y="-10"/>
      <point x="641" y="139"/>
      <point x="641" y="357" type="curve" smooth="yes"/>
      <point x="641" y="580"/>
      <point x="522" y="720"/>
    </contour>
  </outline>
</glyph>
<glyph name="ohorn" format="2">
  <advance width="587"/>
  <unicode hex="01A1"/>
  <anchor x="283" y="513" name="top"/>
  <outline>
    <contour>
      <point x="286" y="80" type="curve" smooth="yes"/>
      <point x="260" y="80"/>
      <point x="252" y="135"/>
      <point x="252" y="257" type="curve" smooth="yes"/>
      <point x="252" y="378"/>
      <point x="260" y="434"/>
      <point x="286" y="434" type="curve" smooth="yes"/>
      <point x="310" y="434"/>
      <point x="319" y="378"/>
      <point x="319" y="257" type="curve" smooth="yes"/>
      <point x="319" y="135"/>
      <point x="310" y="80"/>
    </contour>
    <contour>
      <point x="434" y="447" type="line"/>
      <point x="442" y="446"/>
      <point x="450" y="444"/>
      <point x="458" y="444" type="curve" smooth="yes"/>
      <point x="575" y="444"/>
      <point x="613" y="534"/>
      <point x="612" y="680" type="curve"/>
      <point x="464" y="680" type="line"/>
      <point x="459" y="596"/>
      <point x="451" y="511"/>
      <point x="393" y="511" type="curve" smooth="yes"/>
      <point x="366" y="511"/>
      <point x="339" y="523"/>
      <point x="285" y="523" type="curve"/>
      <point x="114" y="523"/>
      <point x="15" y="415"/>
      <point x="15" y="257" type="curve" smooth="yes"/>
      <point x="15" y="98"/>
      <point x="114" y="-10"/>
      <point x="286" y="-10" type="curve" smooth="yes"/>
      <point x="457" y="-10"/>
      <point x="556" y="98"/>
      <point x="556" y="255" type="curve" smooth="yes"/>
      <point x="556" y="352"/>
      <point x="505" y="433"/>
      <point x="434" y="464" type="curve"/>
      <point x="467" y="432" type="line"/>
      <point x="467" y="467" type="line"/>
    </contour>
  </outline>
</glyph>
<glyph name="Uhorn" format="2">
  <advance width="695"/>
  <unicode hex="01AF"/>
  <anchor x="346" y="663" name="top"/>
  <outline>
    <contour>
      <point x="586" y="639" type="curve" smooth="yes"/>
      <point x="670" y="655"/>
      <point x="732" y="723"/>
      <point x="732" y="877" type="curve"/>
      <point x="581" y="877" type="line"/>
      <point x="577" y="743"/>
      <point x="568" y="710"/>
      <point x="465" y="710" type="curve" smooth="yes"/>
      <point x="438" y="710" type="line"/>
      <point x="438" y="633" type="line"/>
      <point x="445" y="633" type="line" smooth="yes"/>
      <point x="459" y="633"/>
      <point x="475" y="627"/>
      <point x="475" y="613" type="curve" smooth="yes"/>
      <point x="475" y="279" type="line" smooth="yes"/>
      <point x="475" y="149"/>
      <point x="442" y="96"/>
      <point x="385" y="96" type="curve" smooth="yes"/>
      <point x="318" y="96"/>
      <point x="297" y="144"/>
      <point x="297" y="279" type="curve" smooth="yes"/>
      <point x="297" y="623" type="line" smooth="yes"/>
      <point x="297" y="630"/>
      <point x="313" y="633"/>
      <point x="326" y="633" type="curve" smooth="yes"/>
      <point x="334" y="633" type="line"/>
      <point x="334" y="710" type="line"/>
      <point x="13" y="710" type="line"/>
      <point x="13" y="633" type="line"/>
      <point x="21" y="633" type="line" smooth="yes"/>
      <point x="39" y="633"/>
      <point x="50" y="626"/>
      <point x="50" y="597" type="curve" smooth="yes"/>
      <point x="50" y="279" type="line" smooth="yes"/>
      <point x="50" y="76"/>
      <point x="152" y="-10"/>
      <point x="320" y="-10" type="curve" smooth="yes"/>
      <point x="459" y="-10"/>
      <point x="564" y="73"/>
      <point x="564" y="279" type="curve" smooth="yes"/>
      <point x="564" y="600" type="line" smooth="yes"/>
      <point x="564" y="624"/>
      <point x="569" y="634"/>
    </contour>
  </outline>
</glyph>
<glyph name="uhorn" format="2">
  <advance width="633"/>
  <unicode hex="01B0"/>
  <anchor x="284" y="513" name="top"/>
  <outline>
    <contour>
      <point x="418" y="466" type="line"/>
      <point x="608" y="467"/>
      <point x="660" y="517"/>
      <point x="660" y="680" type="curve"/>
      <point x="512" y="680" type="line"/>
      <point x="510" y="545"/>
      <point x="475" y="513"/>
      <point x="375" y="513" type="curve" smooth="yes"/>
      <point x="286" y="513" type="line"/>
      <point x="286" y="438" type="line"/>
      <point x="293" y="436" type="line" smooth="yes"/>
      <point x="304" y="432"/>
      <point x="320" y="425"/>
      <point x="320" y="407" type="curve" smooth="yes"/>
      <point x="320" y="108" type="line"/>
      <point x="333" y="119" type="line"/>
      <point x="333" y="0" type="line"/>
      <point x="573" y="0" type="line"/>
      <point x="573" y="75" type="line"/>
      <point x="566" y="77" type="line" smooth="yes"/>
      <point x="554" y="82"/>
      <point x="553" y="86"/>
      <point x="553" y="104" type="curve" smooth="yes"/>
      <point x="553" y="511" type="line"/>
    </contour>
    <contour>
      <point x="261" y="513" type="line"/>
      <point x="8" y="513" type="line"/>
      <point x="8" y="438" type="line"/>
      <point x="14" y="436" type="line" smooth="yes"/>
      <point x="25" y="429"/>
      <point x="28" y="425"/>
      <point x="28" y="407" type="curve" smooth="yes"/>
      <point x="28" y="168" type="line" smooth="yes"/>
      <point x="28" y="52"/>
      <point x="88" y="-10"/>
      <point x="179" y="-10" type="curve" smooth="yes"/>
      <point x="253" y="-10"/>
      <point x="320" y="39"/>
      <point x="343" y="143" type="curve"/>
      <point x="319" y="188" type="line"/>
      <point x="310" y="138"/>
      <point x="298" y="106"/>
      <point x="281" y="106" type="curve" smooth="yes"/>
      <point x="266" y="106"/>
      <point x="261" y="126"/>
      <point x="261" y="166" type="curve" smooth="yes"/>
    </contour>
  </outline>
</glyph>
<glyph name="Oogonek" format="2">
  <advance width="688"/>
  <unicode hex="01EA"/>
  <outline>
    <contour>
      <point x="344" y="84" type="curve" smooth="yes"/>
      <point x="300" y="84"/>
      <point x="276" y="177"/>
      <point x="276" y="355" type="curve" smooth="yes"/>
      <point x="276" y="533"/>
      <point x="300" y="626"/>
      <point x="344" y="626" type="curve" smooth="yes"/>
      <point x="389" y="626"/>
      <point x="412" y="533"/>
      <point x="412" y="355" type="curve" smooth="yes"/>
      <point x="412" y="177"/>
      <point x="389" y="84"/>
    </contour>
    <contour>
      <point x="376" y="-245" type="curve" smooth="yes"/>
      <point x="451" y="-245"/>
      <point x="494" y="-214"/>
      <point x="526" y="-169" type="curve"/>
      <point x="482" y="-120" type="line"/>
      <point x="474" y="-129"/>
      <point x="460" y="-148"/>
      <point x="437" y="-148" type="curve" smooth="yes"/>
      <point x="418" y="-148"/>
      <point x="407" y="-135"/>
      <point x="407" y="-107" type="curve" smooth="yes"/>
      <point x="407" y="-24"/>
      <point x="488" y="-14"/>
      <point x="589" y="94" type="curve" smooth="yes"/>
      <point x="639" y="158"/>
      <point x="667" y="252"/>
      <point x="667" y="355" type="curve" smooth="yes"/>
      <point x="667" y="575"/>
      <point x="537" y="720"/>
      <point x="344" y="720" type="curve" smooth="yes"/>
      <point x="151" y="720"/>
      <point x="21" y="575"/>
      <point x="21" y="355" type="curve" smooth="yes"/>
      <point x="21" y="134"/>
      <point x="151" y="-10"/>
      <point x="344" y="-10" type="curve" smooth="yes"/>
      <point x="386" y="-10"/>
      <point x="425" y="-3"/>
      <point x="461" y="9" type="curve"/>
      <point x="480" y="33" type="line"/>
      <point x="328" y="-9"/>
      <point x="246" y="-56"/>
      <point x="246" y="-140" type="curve" smooth="yes"/>
      <point x="246" y="-208"/>
      <point x="297" y="-245"/>
    </contour>
  </outline>
</glyph>
<glyph name="oogonek" format="2">
  <advance width="571"/>
  <unicode hex="01EB"/>
  <outline>
    <contour>
      <point x="286" y="79" type="curve" smooth="yes"/>
      <point x="260" y="79"/>
      <point x="252" y="135"/>
      <point x="252" y="256" type="curve" smooth="yes"/>
      <point x="252" y="378"/>
      <point x="260" y="434"/>
      <point x="286" y="434" type="curve" smooth="yes"/>
      <point x="310" y="434"/>
      <point x="319" y="378"/>
      <point x="319" y="256" type="curve" smooth="yes"/>
      <point x="319" y="135"/>
      <point x="310" y="79"/>
    </contour>
    <contour>
      <point x="321" y="-245" type="curve" smooth="yes"/>
      <point x="396" y="-245"/>
      <point x="439" y="-214"/>
      <point x="471" y="-169" type="curve"/>
      <point x="427" y="-120" type="line"/>
      <point x="419" y="-129"/>
      <point x="405" y="-148"/>
      <point x="382" y="-148" type="curve" smooth="yes"/>
      <point x="363" y="-148"/>
      <point x="352" y="-135"/>
      <point x="352" y="-107" type="curve" smooth="yes"/>
      <point x="352" y="-54"/>
      <point x="398" y="-6"/>
      <point x="452" y="41" type="curve" smooth="yes"/>
      <point x="513" y="87"/>
      <point x="556" y="158"/>
      <point x="556" y="256" type="curve" smooth="yes"/>
      <point x="556" y="415"/>
      <point x="457" y="523"/>
      <point x="286" y="523" type="curve" smooth="yes"/>
      <point x="114" y="523"/>
      <point x="15" y="415"/>
      <point x="15" y="256" type="curve" smooth="yes"/>
      <point x="15" y="98"/>
      <point x="114" y="-10"/>
      <point x="286" y="-10" type="curve" smooth="yes"/>
      <point x="333" y="-10"/>
      <point x="374" y="-2"/>
      <point x="409" y="14" type="curve"/>
      <point x="417" y="45" type="line"/>
      <point x="265" y="-7"/>
      <point x="192" y="-60"/>
      <point x="192" y="-140" type="curve" smooth="yes"/>
      <point x="192" y="-208"/>
      <point x="242" y="-245"/>
    </contour>
  </outline>
</glyph>
<glyph name="schwa" format="2">
  <advance width="527"/>
  <unicode hex="0259"/>
  <outline>
    <contour>
      <point x="246" y="523" type="curve" smooth="yes"/>
      <point x="135" y="523"/>
      <point x="66" y="468"/>
      <point x="27" y="389" type="curve"/>
      <point x="97" y="341" type="line"/>
      <point x="120" y="384"/>
      <point x="155" y="429"/>
      <point x="206" y="429" type="curve" smooth="yes"/>
      <point x="270" y="429"/>
      <point x="280" y="369"/>
      <point x="280" y="258" type="curve" smooth="yes"/>
      <point x="280" y="126"/>
      <point x="275" y="80"/>
      <point x="256" y="80" type="curve" smooth="yes"/>
      <point x="237" y="80"/>
      <point x="229" y="112"/>
      <point x="227" y="243" type="curve"/>
      <point x="209" y="205" type="line"/>
      <point x="406" y="205" type="line"/>
      <point x="405" y="288" type="line"/>
      <point x="15" y="288" type="line"/>
      <point x="16" y="90"/>
      <point x="102" y="-10"/>
      <point x="260" y="-10" type="curve"/>
      <point x="409" y="-10"/>
      <point x="512" y="96"/>
      <point x="512" y="258" type="curve" smooth="yes"/>
      <point x="512" y="422"/>
      <point x="419" y="523"/>
    </contour>
  </outline>
</glyph>
<glyph name="ring" format="2">
  <advance width="421"/>
  <unicode hex="02DA"/>
  <anchor x="210" y="526" name="_top"/>
  <outline>
    <contour>
      <point x="210" y="617" type="curve" smooth="yes"/>
      <point x="195" y="617"/>
      <point x="185" y="632"/>
      <point x="185" y="663" type="curve" smooth="yes"/>
      <point x="185" y="695"/>
      <point x="197" y="709"/>
      <point x="210" y="709" type="curve" smooth="yes"/>
      <point x="225" y="709"/>
      <point x="236" y="695"/>
      <point x="236" y="663" type="curve" smooth="yes"/>
      <point x="236" y="632"/>
      <point x="226" y="617"/>
    </contour>
    <contour>
      <point x="210" y="772" type="curve" smooth="yes"/>
      <point x="135" y="772"/>
      <point x="81" y="736"/>
      <point x="81" y="663" type="curve" smooth="yes"/>
      <point x="81" y="590"/>
      <point x="135" y="554"/>
      <point x="210" y="554" type="curve" smooth="yes"/>
      <point x="286" y="554"/>
      <point x="339" y="590"/>
      <point x="339" y="663" type="curve" smooth="yes"/>
      <point x="339" y="736"/>
      <point x="286" y="772"/>
    </contour>
  </outline>
</glyph>
<glyph name="ogonek" format="2">
  <advance width="505"/>
  <unicode hex="02DB"/>
  <anchor x="311" y="9" name="_right"/>
  <outline>
    <contour>
      <point x="316" y="42" type="line"/>
      <point x="172" y="-7"/>
      <point x="98" y="-54"/>
      <point x="98" y="-140" type="curve" smooth="yes"/>
      <point x="98" y="-208"/>
      <point x="149" y="-245"/>
      <point x="228" y="-245" type="curve" smooth="yes"/>
      <point x="303" y="-245"/>
      <point x="346" y="-214"/>
      <point x="378" y="-169" type="curve"/>
      <point x="334" y="-120" type="line"/>
      <point x="327" y="-129"/>
      <point x="312" y="-148"/>
      <point x="290" y="-148" type="curve" smooth="yes"/>
      <point x="270" y="-148"/>
      <point x="259" y="-135"/>
      <point x="259" y="-107" type="curve" smooth="yes"/>
      <point x="259" y="-72"/>
      <point x="279" y="-28"/>
      <point x="355" y="14" type="curve"/>
    </contour>
  </outline>
</glyph>
<glyph name="Delta" format="2">
  <advance width="678"/>
  <unicode hex="0394"/>
  <outline>
    <contour>
      <point x="18" y="0" type="line"/>
      <point x="661" y="0" type="line"/>
      <point x="661" y="128" type="line"/>
      <point x="424" y="710" type="line"/>
      <point x="254" y="710" type="line"/>
      <point x="18" y="128" type="line"/>
    </contour>
    <contour>
      <point x="441" y="73" type="line"/>
      <point x="569" y="149" type="line"/>
      <point x="64" y="149" type="line"/>
      <point x="87" y="97" type="line"/>
      <point x="326" y="690" type="line"/>
      <point x="228" y="643" type="line"/>
    </contour>
  </outline>
</glyph>
<glyph name="mu" format="2">
  <advance width="693"/>
  <unicode hex="03BC"/>
  <outline>
    <contour>
      <point x="504" y="-10" type="curve" smooth="yes"/>
      <point x="611" y="-10"/>
      <point x="661" y="52"/>
      <point x="684" y="131" type="curve"/>
      <point x="608" y="170" type="line"/>
      <point x="599" y="130"/>
      <point x="592" y="106"/>
      <point x="575" y="106" type="curve" smooth="yes"/>
      <point x="559" y="106"/>
      <point x="556" y="117"/>
      <point x="556" y="143" type="curve" smooth="yes"/>
      <point x="556" y="513" type="line"/>
      <point x="323" y="513" type="line"/>
      <point x="323" y="123" type="line"/>
      <point x="333" y="127" type="line"/>
      <point x="341" y="38"/>
      <point x="402" y="-10"/>
    </contour>
    <contour>
      <point x="62" y="164" type="line"/>
      <point x="95" y="33"/>
      <point x="151" y="-10"/>
      <point x="219" y="-10" type="curve" smooth="yes"/>
      <point x="274" y="-10"/>
      <point x="314" y="35"/>
      <point x="344" y="136" type="curve"/>
      <point x="322" y="188" type="line"/>
      <point x="313" y="138"/>
      <point x="301" y="106"/>
      <point x="283" y="106" type="curve" smooth="yes"/>
      <point x="268" y="106"/>
      <point x="264" y="126"/>
      <point x="264" y="169" type="curve" smooth="yes"/>
      <point x="264" y="513" type="line"/>
      <point x="31" y="513" type="line"/>
      <point x="31" y="-250" type="line"/>
      <point x="263" y="-250" type="line"/>
      <point x="263" y="-104"/>
      <point x="87" y="-40"/>
      <point x="75" y="189" type="curve"/>
    </contour>
  </outline>
</glyph>
<glyph name="pi" format="2">
  <advance width="734"/>
  <unicode hex="03C0"/>
  <outline>
    <contour>
      <point x="358" y="0" type="line"/>
      <point x="358" y="452" type="line"/>
      <point x="218" y="452" type="line"/>
      <point x="211" y="197"/>
      <point x="177" y="174"/>
      <point x="177" y="0" type="curve"/>
    </contour>
    <contour>
      <point x="668" y="361" type="line"/>
      <point x="668" y="513" type="line"/>
      <point x="249" y="513" type="line" smooth="yes"/>
      <point x="94" y="513"/>
      <point x="40" y="425"/>
      <point x="13" y="305" type="curve"/>
      <point x="125" y="252" type="line"/>
      <point x="140" y="318"/>
      <point x="158" y="361"/>
      <point x="228" y="361" type="curve" smooth="yes"/>
    </contour>
    <contour>
      <point x="567" y="147" type="curve" smooth="yes"/>
      <point x="567" y="452" type="line"/>
      <point x="425" y="452" type="line"/>
      <point x="412" y="280"/>
      <point x="382" y="215"/>
      <point x="382" y="147" type="curve" smooth="yes"/>
      <point x="382" y="39"/>
      <point x="455" y="-10"/>
      <point x="547" y="-10" type="curve" smooth="yes"/>
      <point x="633" y="-10"/>
      <point x="684" y="43"/>
      <point x="709" y="133" type="curve"/>
      <point x="637" y="172" type="line"/>
      <point x="623" y="129"/>
      <point x="610" y="98"/>
      <point x="591" y="98" type="curve" smooth="yes"/>
      <point x="576" y="98"/>
      <point x="567" y="111"/>
    </contour>
  </outline>
</glyph>
<glyph name="thai:baht" format="2">
  <advance width="472"/>
  <unicode hex="0E3F"/>
  <outline>
    <contour>
      <point x="238" y="411" type="curve" smooth="yes"/>
      <point x="194" y="411" type="line"/>
      <point x="194" y="626" type="line"/>
      <point x="259" y="626" type="line"/>
      <point x="292" y="626"/>
      <point x="307" y="590"/>
      <point x="307" y="525" type="curve" smooth="yes"/>
      <point x="307" y="450"/>
      <point x="295" y="411"/>
    </contour>
    <contour>
      <point x="236" y="330" type="line" smooth="yes"/>
      <point x="295" y="330"/>
      <point x="310" y="286"/>
      <point x="310" y="211" type="curve" smooth="yes"/>
      <point x="310" y="123"/>
      <point x="288" y="84"/>
      <point x="246" y="84" type="curve" smooth="yes"/>
      <point x="194" y="84" type="line"/>
      <point x="194" y="330" type="line"/>
    </contour>
    <contour>
      <point x="196" y="790" type="line"/>
      <point x="196" y="676" type="line"/>
      <point x="218" y="660" type="line"/>
      <point x="218" y="46" type="line"/>
      <point x="196" y="36" type="line"/>
      <point x="196" y="-110" type="line"/>
      <point x="297" y="-110" type="line"/>
      <point x="297" y="38" type="line"/>
      <point x="274" y="50" type="line"/>
      <point x="274" y="662" type="line"/>
      <point x="297" y="673" type="line"/>
      <point x="297" y="790" type="line"/>
    </contour>
    <contour>
      <point x="345" y="372" type="line"/>
      <point x="411" y="377"/>
      <point x="467" y="427"/>
      <point x="467" y="539" type="curve" smooth="yes"/>
      <point x="467" y="644"/>
      <point x="413" y="709"/>
      <point x="296" y="709" type="curve" smooth="yes"/>
      <point x="10" y="709" type="line"/>
      <point x="10" y="632" type="line"/>
      <point x="19" y="632" type="line" smooth="yes"/>
      <point x="28" y="632"/>
      <point x="35" y="625"/>
      <point x="35" y="596" type="curve" smooth="yes"/>
      <point x="35" y="114" type="line" smooth="yes"/>
      <point x="35" y="85"/>
      <point x="28" y="78"/>
      <point x="19" y="78" type="curve" smooth="yes"/>
      <point x="10" y="78" type="line"/>
      <point x="10" y="1" type="line"/>
      <point x="289" y="1" type="line" smooth="yes"/>
      <point x="415" y="1"/>
      <point x="473" y="77"/>
      <point x="473" y="202" type="curve" smooth="yes"/>
      <point x="473" y="318"/>
      <point x="411" y="374"/>
      <point x="335" y="380" type="curve"/>
      <point x="357" y="366" type="line"/>
      <point x="357" y="388" type="line"/>
    </contour>
  </outline>
</glyph>
<glyph name="idieresisacute" format="2">
  <advance width="291"/>
  <unicode hex="1E2F"/>
  <outline>
    <contour>
      <point x="36" y="563" type="curve" smooth="yes"/>
      <point x="104" y="563"/>
      <point x="143" y="598"/>
      <point x="143" y="655" type="curve" smooth="yes"/>
      <point x="143" y="713"/>
      <point x="104" y="747"/>
      <point x="36" y="747" type="curve" smooth="yes"/>
      <point x="-31" y="747"/>
      <point x="-71" y="713"/>
      <point x="-71" y="655" type="curve" smooth="yes"/>
      <point x="-71" y="597"/>
      <point x="-31" y="563"/>
    </contour>
    <contour>
      <point x="259" y="563" type="curve" smooth="yes"/>
      <point x="327" y="563"/>
      <point x="366" y="598"/>
      <point x="366" y="655" type="curve" smooth="yes"/>
      <point x="366" y="713"/>
      <point x="327" y="747"/>
      <point x="259" y="747" type="curve" smooth="yes"/>
      <point x="192" y="747"/>
      <point x="152" y="713"/>
      <point x="152" y="655" type="curve" smooth="yes"/>
      <point x="152" y="597"/>
      <point x="192" y="563"/>
    </contour>
    <contour>
      <point x="121" y="888" type="curve" smooth="yes"/>
      <point x="104" y="791" type="line"/>
      <point x="104" y="761" type="line"/>
      <point x="170" y="761" type="line"/>
      <point x="229" y="810" type="line" smooth="yes"/>
      <point x="281" y="841"/>
      <point x="305" y="875"/>
      <point x="305" y="916" type="curve" smooth="yes"/>
      <point x="305" y="956"/>
      <point x="273" y="986"/>
      <point x="224" y="986" type="curve" smooth="yes"/>
      <point x="166" y="986"/>
      <point x="136" y="950"/>
    </contour>
    <component base="dotlessi"/>
  </outline>
</glyph>
<glyph name="endash" format="2">
  <advance width="523"/>
  <unicode hex="2013"/>
  <outline>
    <contour>
      <point x="53" y="375" type="line"/>
      <point x="53" y="255" type="line"/>
      <point x="471" y="255" type="line"/>
      <point x="471" y="375" type="line"/>
    </contour>
  </outline>
</glyph>
<glyph name="quoteright" format="2">
  <advance width="227"/>
  <unicode hex="2019"/>
  <outline>
    <contour>
      <point x="97" y="339" type="line"/>
      <point x="176" y="416"/>
      <point x="215" y="506"/>
      <point x="215" y="601" type="curve" smooth="yes"/>
      <point x="215" y="680"/>
      <point x="174" y="715"/>
      <point x="114" y="715" type="curve" smooth="yes"/>
      <point x="54" y="715"/>
      <point x="19" y="674"/>
      <point x="19" y="625" type="curve" smooth="yes"/>
      <point x="19" y="575"/>
      <point x="57" y="539"/>
      <point x="112" y="539" type="curve" smooth="yes"/>
      <point x="129" y="539"/>
      <point x="140" y="540"/>
      <point x="148" y="549" type="curve"/>
      <point x="123" y="575" type="line"/>
      <point x="118" y="511"/>
      <point x="65" y="447"/>
      <point x="-8" y="392" type="curve"/>
    </contour>
  </outline>
</glyph>
<glyph name="dagger" format="2">
  <advance width="491"/>
  <unicode hex="2020"/>
  <outline>
    <contour>
      <point x="202" y="464" type="line"/>
      <point x="289" y="464" type="line"/>
      <point x="436" y="387" type="line"/>
      <point x="471" y="387" type="line"/>
      <point x="471" y="581" type="line"/>
      <point x="436" y="581" type="line"/>
      <point x="289" y="518" type="line"/>
      <point x="202" y="518" type="line"/>
      <point x="56" y="581" type="line"/>
      <point x="21" y="581" type="line"/>
      <point x="21" y="387" type="line"/>
      <point x="56" y="387" type="line"/>
    </contour>
    <contour>
      <point x="378" y="710" type="line"/>
      <point x="113" y="710" type="line"/>
      <point x="113" y="666" type="line" smooth="yes"/>
      <point x="113" y="631"/>
      <point x="201" y="547"/>
      <point x="201" y="490" type="curve" smooth="yes"/>
      <point x="201" y="430"/>
      <point x="166" y="377"/>
      <point x="92" y="347" type="curve"/>
      <point x="92" y="318" type="line" smooth="yes"/>
      <point x="92" y="283"/>
      <point x="161" y="193"/>
      <point x="207" y="0" type="curve"/>
      <point x="284" y="0" type="line"/>
      <point x="330" y="193"/>
      <point x="400" y="283"/>
      <point x="400" y="318" type="curve" smooth="yes"/>
      <point x="400" y="347" type="line"/>
      <point x="326" y="377"/>
      <point x="290" y="430"/>
      <point x="290" y="490" type="curve" smooth="yes"/>
      <point x="290" y="547"/>
      <point x="378" y="631"/>
      <point x="378" y="666" type="curve" smooth="yes"/>
    </contour>
  </outline>
</glyph>
<glyph name="daggerdbl" format="2">
  <advance width="491"/>
  <unicode hex="2021"/>
  <outline>
    <contour>
      <point x="289" y="541" type="line"/>
      <point x="202" y="541" type="line"/>
      <point x="56" y="601" type="line"/>
      <point x="21" y="601" type="line"/>
      <point x="21" y="430" type="line"/>
      <point x="56" y="430" type="line"/>
      <point x="202" y="492" type="line"/>
      <point x="289" y="492" type="line"/>
      <point x="436" y="430" type="line"/>
      <point x="471" y="430" type="line"/>
      <point x="471" y="601" type="line"/>
      <point x="436" y="601" type="line"/>
    </contour>
    <contour>
      <point x="378" y="710" type="line"/>
      <point x="113" y="710" type="line"/>
      <point x="113" y="675" type="line" smooth="yes"/>
      <point x="113" y="640"/>
      <point x="201" y="565"/>
      <point x="201" y="508" type="curve"/>
      <point x="201" y="450"/>
      <point x="158" y="416"/>
      <point x="84" y="386" type="curve"/>
      <point x="84" y="324" type="line"/>
      <point x="158" y="294"/>
      <point x="201" y="260"/>
      <point x="201" y="202" type="curve"/>
      <point x="201" y="145"/>
      <point x="113" y="70"/>
      <point x="113" y="35" type="curve" smooth="yes"/>
      <point x="113" y="0" type="line"/>
      <point x="378" y="0" type="line"/>
      <point x="378" y="35" type="line" smooth="yes"/>
      <point x="378" y="70"/>
      <point x="290" y="145"/>
      <point x="290" y="202" type="curve"/>
      <point x="290" y="260"/>
      <point x="333" y="294"/>
      <point x="407" y="324" type="curve"/>
      <point x="407" y="386" type="line"/>
      <point x="333" y="416"/>
      <point x="290" y="450"/>
      <point x="290" y="508" type="curve"/>
      <point x="290" y="565"/>
      <point x="378" y="640"/>
      <point x="378" y="675" type="curve" smooth="yes"/>
    </contour>
    <contour>
      <point x="289" y="218" type="line"/>
      <point x="202" y="218" type="line"/>
      <point x="56" y="280" type="line"/>
      <point x="21" y="280" type="line"/>
      <point x="21" y="109" type="line"/>
      <point x="56" y="109" type="line"/>
      <point x="202" y="169" type="line"/>
      <point x="289" y="169" type="line"/>
      <point x="436" y="109" type="line"/>
      <point x="471" y="109" type="line"/>
      <point x="471" y="280" type="line"/>
      <point x="436" y="280" type="line"/>
    </contour>
  </outline>
</glyph>
<glyph name="naira" format="2">
  <advance width="471"/>
  <unicode hex="20A6"/>
  <outline>
    <contour>
      <point x="7" y="0" type="line"/>
      <point x="154" y="0" type="line"/>
      <point x="154" y="77" type="line"/>
      <point x="150" y="77" type="line" smooth="yes"/>
      <point x="136" y="77"/>
      <point x="125" y="85"/>
      <point x="125" y="92" type="curve" smooth="yes"/>
      <point x="125" y="673" type="line"/>
      <point x="88" y="693" type="line"/>
      <point x="206" y="0" type="line"/>
      <point x="429" y="0" type="line"/>
      <point x="429" y="596" type="line" smooth="yes"/>
      <point x="429" y="625"/>
      <point x="441" y="633"/>
      <point x="457" y="633" type="curve" smooth="yes"/>
      <point x="464" y="633" type="line"/>
      <point x="464" y="710" type="line"/>
      <point x="320" y="710" type="line"/>
      <point x="320" y="633" type="line"/>
      <point x="324" y="633" type="line" smooth="yes"/>
      <point x="336" y="633"/>
      <point x="346" y="625"/>
      <point x="346" y="618" type="curve" smooth="yes"/>
      <point x="346" y="59" type="line"/>
      <point x="388" y="21" type="line"/>
      <point x="278" y="710" type="line"/>
      <point x="7" y="710" type="line"/>
      <point x="7" y="633" type="line"/>
      <point x="14" y="633" type="line" smooth="yes"/>
      <point x="30" y="633"/>
      <point x="42" y="626"/>
      <point x="42" y="597" type="curve" smooth="yes"/>
      <point x="42" y="118" type="line" smooth="yes"/>
      <point x="42" y="89"/>
      <point x="30" y="77"/>
      <point x="14" y="77" type="curve" smooth="yes"/>
      <point x="7" y="77" type="line"/>
    </contour>
    <contour>
      <point x="73" y="506" type="line"/>
      <point x="8" y="506" type="line"/>
      <point x="8" y="430" type="line"/>
      <point x="74" y="430" type="line"/>
    </contour>
    <contour>
      <point x="463" y="430" type="line"/>
      <point x="463" y="506" type="line"/>
      <point x="210" y="506" type="line"/>
      <point x="207" y="439" type="line"/>
      <point x="378" y="439" type="line"/>
      <point x="390" y="430" type="line"/>
    </contour>
    <contour>
      <point x="8" y="253" type="line"/>
      <point x="285" y="253" type="line"/>
      <point x="290" y="320" type="line"/>
      <point x="93" y="320" type="line"/>
      <point x="87" y="329" type="line"/>
      <point x="8" y="329" type="line"/>
    </contour>
    <contour>
      <point x="394" y="253" type="line"/>
      <point x="463" y="253" type="line"/>
      <point x="463" y="329" type="line"/>
      <point x="394" y="329" type="line"/>
    </contour>
  </outline>
</glyph>
<glyph name="dong" format="2">
  <advance width="471"/>
  <unicode hex="20AB"/>
  <outline>
    <contour>
      <point x="220" y="250" type="curve" smooth="yes"/>
      <point x="220" y="352"/>
      <point x="220" y="416"/>
      <point x="237" y="416" type="curve" smooth="yes"/>
      <point x="251" y="416"/>
      <point x="250" y="370"/>
      <point x="247" y="305" type="curve"/>
      <point x="281" y="314" type="line"/>
      <point x="276" y="456"/>
      <point x="237" y="523"/>
      <point x="158" y="523" type="curve" smooth="yes"/>
      <point x="66" y="523"/>
      <point x="9" y="418"/>
      <point x="9" y="250" type="curve" smooth="yes"/>
      <point x="9" y="85"/>
      <point x="61" y="-10"/>
      <point x="156" y="-10" type="curve" smooth="yes"/>
      <point x="224" y="-10"/>
      <point x="252" y="47"/>
      <point x="279" y="168" type="curve"/>
      <point x="255" y="215" type="line"/>
      <point x="253" y="142"/>
      <point x="245" y="97"/>
      <point x="234" y="97" type="curve" smooth="yes"/>
      <point x="221" y="97"/>
      <point x="220" y="150"/>
    </contour>
    <contour>
      <point x="236" y="731" type="line"/>
      <point x="236" y="100" type="line"/>
      <point x="249" y="112" type="line"/>
      <point x="249" y="0" type="line"/>
      <point x="456" y="0" type="line"/>
      <point x="456" y="75" type="line"/>
      <point x="450" y="77" type="line" smooth="yes"/>
      <point x="440" y="81"/>
      <point x="440" y="86"/>
      <point x="440" y="104" type="curve" smooth="yes"/>
      <point x="440" y="731" type="line"/>
    </contour>
    <contour>
      <point x="59" y="-91" type="line"/>
      <point x="59" y="-190" type="line"/>
      <point x="426" y="-190" type="line"/>
      <point x="426" y="-91" type="line"/>
    </contour>
    <contour>
      <point x="149" y="663" type="line"/>
      <point x="149" y="574" type="line"/>
      <point x="461" y="574" type="line"/>
      <point x="461" y="663" type="line"/>
    </contour>
  </outline>
</glyph>
<glyph name="Euro" format="2">
  <advance width="472"/>
  <unicode hex="20AC"/>
  <outline>
    <contour>
      <point x="7" y="316" type="line"/>
      <point x="7" y="226" type="line"/>
      <point x="341" y="226" type="line"/>
      <point x="341" y="316" type="line"/>
    </contour>
    <contour>
      <point x="7" y="472" type="line"/>
      <point x="7" y="382" type="line"/>
      <point x="373" y="382" type="line"/>
      <point x="373" y="472" type="line"/>
    </contour>
    <contour>
      <point x="287" y="-10" type="curve" smooth="yes"/>
      <point x="395" y="-10"/>
      <point x="448" y="61"/>
      <point x="472" y="162" type="curve"/>
      <point x="395" y="204" type="line"/>
      <point x="383" y="149"/>
      <point x="355" y="89"/>
      <point x="319" y="89" type="curve" smooth="yes"/>
      <point x="279" y="89"/>
      <point x="264" y="163"/>
      <point x="264" y="355" type="curve" smooth="yes"/>
      <point x="264" y="554"/>
      <point x="268" y="625"/>
      <point x="300" y="625" type="curve" smooth="yes"/>
      <point x="308" y="625"/>
      <point x="315" y="613"/>
      <point x="320" y="598" type="curve"/>
      <point x="348" y="613"/>
      <point x="358" y="629"/>
      <point x="302" y="643" type="curve"/>
      <point x="302" y="539" type="line"/>
      <point x="463" y="539" type="line"/>
      <point x="463" y="676" type="line"/>
      <point x="446" y="689"/>
      <point x="393" y="720"/>
      <point x="303" y="720" type="curve" smooth="yes"/>
      <point x="151" y="720"/>
      <point x="39" y="611"/>
      <point x="39" y="355" type="curve" smooth="yes"/>
      <point x="39" y="102"/>
      <point x="137" y="-10"/>
    </contour>
  </outline>
</glyph>
<glyph name="kip" format="2">
  <advance width="471"/>
  <unicode hex="20AD"/>
  <outline>
    <contour>
      <point x="3" y="419" type="line"/>
      <point x="3" y="330" type="line"/>
      <point x="477" y="330" type="line"/>
      <point x="477" y="419" type="line"/>
    </contour>
    <contour>
      <point x="3" y="0" type="line"/>
      <point x="233" y="0" type="line"/>
      <point x="233" y="77" type="line"/>
      <point x="232" y="77" type="line" smooth="yes"/>
      <point x="229" y="77"/>
      <point x="230" y="80"/>
      <point x="230" y="83" type="curve" smooth="yes"/>
      <point x="230" y="623" type="line" smooth="yes"/>
      <point x="230" y="630"/>
      <point x="238" y="633"/>
      <point x="246" y="633" type="curve" smooth="yes"/>
      <point x="256" y="633" type="line"/>
      <point x="256" y="710" type="line"/>
      <point x="3" y="710" type="line"/>
      <point x="3" y="633" type="line"/>
      <point x="6" y="633" type="line" smooth="yes"/>
      <point x="15" y="633"/>
      <point x="23" y="626"/>
      <point x="23" y="606" type="curve" smooth="yes"/>
      <point x="23" y="104" type="line" smooth="yes"/>
      <point x="23" y="84"/>
      <point x="15" y="77"/>
      <point x="6" y="77" type="curve" smooth="yes"/>
      <point x="3" y="77" type="line"/>
    </contour>
    <contour>
      <point x="473" y="77" type="line"/>
      <point x="473" y="77" type="line" smooth="yes"/>
      <point x="466" y="77"/>
      <point x="460" y="83"/>
      <point x="459" y="103" type="curve" smooth="yes"/>
      <point x="396" y="498" type="line"/>
      <point x="337" y="352" type="line"/>
      <point x="424" y="596" type="line" smooth="yes"/>
      <point x="437" y="627"/>
      <point x="444" y="633"/>
      <point x="459" y="633" type="curve" smooth="yes"/>
      <point x="466" y="633" type="line"/>
      <point x="466" y="710" type="line"/>
      <point x="306" y="710" type="line"/>
      <point x="306" y="633" type="line"/>
      <point x="315" y="633" type="line" smooth="yes"/>
      <point x="327" y="633"/>
      <point x="338" y="632"/>
      <point x="337" y="625" type="curve"/>
      <point x="234" y="364" type="line"/>
      <point x="236" y="352" type="line"/>
      <point x="250" y="83" type="line"/>
      <point x="250" y="80"/>
      <point x="250" y="77"/>
      <point x="246" y="77" type="curve" smooth="yes"/>
      <point x="245" y="77" type="line"/>
      <point x="245" y="0" type="line"/>
      <point x="473" y="0" type="line"/>
    </contour>
  </outline>
</glyph>
<glyph name="peso" format="2">
  <advance width="471"/>
  <unicode hex="20B1"/>
  <outline>
    <contour>
      <point x="8" y="0" type="line"/>
      <point x="239" y="0" type="line"/>
      <point x="239" y="77" type="line"/>
      <point x="237" y="77" type="line" smooth="yes"/>
      <point x="219" y="77"/>
      <point x="212" y="79"/>
      <point x="212" y="86" type="curve" smooth="yes"/>
      <point x="212" y="206" type="line"/>
      <point x="220" y="206" type="line" smooth="yes"/>
      <point x="369" y="206"/>
      <point x="444" y="298"/>
      <point x="444" y="465" type="curve" smooth="yes"/>
      <point x="444" y="627"/>
      <point x="377" y="710"/>
      <point x="237" y="710" type="curve" smooth="yes"/>
      <point x="8" y="710" type="line"/>
      <point x="8" y="633" type="line"/>
      <point x="16" y="633" type="line" smooth="yes"/>
      <point x="25" y="633"/>
      <point x="32" y="626"/>
      <point x="32" y="597" type="curve" smooth="yes"/>
      <point x="32" y="113" type="line" smooth="yes"/>
      <point x="32" y="84"/>
      <point x="25" y="77"/>
      <point x="16" y="77" type="curve" smooth="yes"/>
      <point x="8" y="77" type="line"/>
    </contour>
    <contour>
      <point x="224" y="622" type="line" smooth="yes"/>
      <point x="245" y="622"/>
      <point x="262" y="597"/>
      <point x="262" y="461" type="curve" smooth="yes"/>
      <point x="262" y="325"/>
      <point x="245" y="294"/>
      <point x="226" y="294" type="curve" smooth="yes"/>
      <point x="212" y="294" type="line"/>
      <point x="212" y="622" type="line"/>
    </contour>
    <contour>
      <point x="8" y="505" type="line"/>
      <point x="8" y="424" type="line"/>
      <point x="173" y="424" type="line"/>
      <point x="185" y="432" type="line"/>
      <point x="339" y="432" type="line"/>
      <point x="371" y="424" type="line"/>
      <point x="471" y="424" type="line"/>
      <point x="471" y="505" type="line"/>
      <point x="383" y="505" type="line"/>
      <point x="355" y="496" type="line"/>
      <point x="164" y="496" type="line"/>
      <point x="160" y="505" type="line"/>
    </contour>
  </outline>
</glyph>
<glyph name="guarani" format="2">
  <advance width="471"/>
  <unicode hex="20B2"/>
  <outline>
    <contour>
      <point x="214" y="790" type="line"/>
      <point x="214" y="662" type="line"/>
      <point x="232" y="648" type="line"/>
      <point x="232" y="62" type="line"/>
      <point x="214" y="40" type="line"/>
      <point x="214" y="-120" type="line"/>
      <point x="315" y="-120" type="line"/>
      <point x="315" y="39" type="line"/>
      <point x="297" y="64" type="line"/>
      <point x="297" y="652" type="line"/>
      <point x="315" y="670" type="line"/>
      <point x="315" y="790" type="line"/>
    </contour>
    <contour>
      <point x="268" y="-7" type="curve" smooth="yes"/>
      <point x="359" y="-7"/>
      <point x="421" y="36"/>
      <point x="451" y="78" type="curve"/>
      <point x="451" y="253" type="line"/>
      <point x="451" y="278"/>
      <point x="455" y="285"/>
      <point x="463" y="285" type="curve" smooth="yes"/>
      <point x="467" y="285" type="line"/>
      <point x="467" y="362" type="line"/>
      <point x="329" y="362" type="line"/>
      <point x="329" y="285" type="line" smooth="yes"/>
      <point x="329" y="285" type="line"/>
      <point x="325" y="285"/>
      <point x="323" y="278"/>
      <point x="323" y="249" type="curve"/>
      <point x="323" y="104" type="line"/>
      <point x="314" y="92"/>
      <point x="297" y="78"/>
      <point x="279" y="78" type="curve" smooth="yes"/>
      <point x="218" y="78"/>
      <point x="197" y="174"/>
      <point x="197" y="355" type="curve" smooth="yes"/>
      <point x="197" y="521"/>
      <point x="205" y="632"/>
      <point x="284" y="632" type="curve" smooth="yes"/>
      <point x="322" y="632"/>
      <point x="341" y="614"/>
      <point x="357" y="583" type="curve"/>
      <point x="397" y="586"/>
      <point x="418" y="632"/>
      <point x="334" y="626" type="curve"/>
      <point x="334" y="514" type="line"/>
      <point x="455" y="514" type="line"/>
      <point x="455" y="659" type="line"/>
      <point x="443" y="680"/>
      <point x="386" y="717"/>
      <point x="271" y="717" type="curve" smooth="yes"/>
      <point x="118" y="717"/>
      <point x="7" y="567"/>
      <point x="7" y="355" type="curve" smooth="yes"/>
      <point x="7" y="136"/>
      <point x="113" y="-7"/>
    </contour>
  </outline>
</glyph>
<glyph name="uni20B8" format="2">
  <advance width="471"/>
  <unicode hex="20B8"/>
  <outline>
    <contour>
      <point x="6" y="710" type="line"/>
      <point x="6" y="623" type="line"/>
      <point x="465" y="623" type="line"/>
      <point x="465" y="710" type="line"/>
    </contour>
    <contour>
      <point x="130" y="113" type="line" smooth="yes"/>
      <point x="130" y="84"/>
      <point x="119" y="77"/>
      <point x="102" y="77" type="curve" smooth="yes"/>
      <point x="90" y="77" type="line"/>
      <point x="90" y="0" type="line"/>
      <point x="380" y="0" type="line"/>
      <point x="380" y="77" type="line"/>
      <point x="369" y="77" type="line" smooth="yes"/>
      <point x="351" y="77"/>
      <point x="340" y="84"/>
      <point x="340" y="113" type="curve" smooth="yes"/>
      <point x="340" y="462" type="line"/>
      <point x="340" y="462" type="line" smooth="yes"/>
      <point x="349" y="462"/>
      <point x="373" y="455"/>
      <point x="375" y="416" type="curve" smooth="yes"/>
      <point x="379" y="315" type="line"/>
      <point x="465" y="315" type="line"/>
      <point x="465" y="549" type="line"/>
      <point x="6" y="549" type="line"/>
      <point x="6" y="315" type="line"/>
      <point x="92" y="315" type="line"/>
      <point x="96" y="416" type="line" smooth="yes"/>
      <point x="98" y="455"/>
      <point x="121" y="462"/>
      <point x="131" y="462" type="curve" smooth="yes"/>
      <point x="130" y="462" type="line"/>
    </contour>
  </outline>
</glyph>
<glyph name="manat" format="2">
  <advance width="471"/>
  <unicode hex="20BC"/>
  <outline>
    <contour>
      <point x="207" y="720" type="line"/>
      <point x="207" y="160" type="line"/>
      <point x="264" y="160" type="line"/>
      <point x="264" y="720" type="line"/>
    </contour>
    <contour>
      <point x="235" y="505" type="curve" smooth="yes"/>
      <point x="295" y="505"/>
      <point x="303" y="395"/>
      <point x="284" y="0" type="curve"/>
      <point x="465" y="0" type="line"/>
      <point x="465" y="346"/>
      <point x="382" y="590"/>
      <point x="235" y="590" type="curve" smooth="yes"/>
      <point x="89" y="590"/>
      <point x="6" y="346"/>
      <point x="6" y="0" type="curve"/>
      <point x="188" y="0" type="line"/>
      <point x="168" y="395"/>
      <point x="175" y="505"/>
    </contour>
  </outline>
</glyph>
<glyph name="ruble" format="2">
  <advance width="471"/>
  <unicode hex="20BD"/>
  <outline>
    <contour>
      <point x="6" y="379" type="line"/>
      <point x="228" y="379" type="line" smooth="yes"/>
      <point x="252" y="379"/>
      <point x="271" y="421"/>
      <point x="271" y="508" type="curve" smooth="yes"/>
      <point x="271" y="589"/>
      <point x="252" y="622"/>
      <point x="232" y="622" type="curve" smooth="yes"/>
      <point x="239" y="622" type="line"/>
      <point x="239" y="87" type="line"/>
      <point x="239" y="80"/>
      <point x="254" y="77"/>
      <point x="267" y="77" type="curve" smooth="yes"/>
      <point x="271" y="77" type="line"/>
      <point x="271" y="0" type="line"/>
      <point x="6" y="0" type="line"/>
      <point x="6" y="77" type="line"/>
      <point x="10" y="77" type="line" smooth="yes"/>
      <point x="22" y="77"/>
      <point x="29" y="84"/>
      <point x="29" y="113" type="curve" smooth="yes"/>
      <point x="29" y="597" type="line" smooth="yes"/>
      <point x="29" y="626"/>
      <point x="22" y="633"/>
      <point x="10" y="633" type="curve" smooth="yes"/>
      <point x="6" y="633" type="line"/>
      <point x="6" y="710" type="line"/>
      <point x="242" y="710" type="line" smooth="yes"/>
      <point x="391" y="710"/>
      <point x="471" y="640"/>
      <point x="471" y="512" type="curve" smooth="yes"/>
      <point x="471" y="379"/>
      <point x="384" y="300"/>
      <point x="241" y="300" type="curve" smooth="yes"/>
      <point x="6" y="300" type="line"/>
    </contour>
    <contour>
      <point x="320" y="164" type="line"/>
      <point x="6" y="164" type="line"/>
      <point x="6" y="243" type="line"/>
      <point x="320" y="243" type="line"/>
    </contour>
  </outline>
</glyph>
<glyph name="radical" format="2">
  <advance width="621"/>
  <unicode hex="221A"/>
  <outline>
    <contour>
      <point x="32" y="330" type="line"/>
      <point x="267" y="330" type="line"/>
      <point x="85" y="383" type="line"/>
      <point x="205" y="0" type="line"/>
      <point x="378" y="0" type="line"/>
      <point x="383" y="39" type="line"/>
      <point x="263" y="422" type="line"/>
      <point x="32" y="422" type="line"/>
    </contour>
    <contour>
      <point x="500" y="710" type="line"/>
      <point x="301" y="0" type="line"/>
      <point x="416" y="0" type="line"/>
      <point x="615" y="710" type="line"/>
    </contour>
  </outline>
</glyph>
<glyph name="infinity" format="2">
  <advance width="653"/>
  <unicode hex="221E"/>
  <outline>
    <contour>
      <point x="180" y="137" type="curve" smooth="yes"/>
      <point x="97" y="137"/>
      <point x="42" y="221"/>
      <point x="42" y="344" type="curve" smooth="yes"/>
      <point x="42" y="469"/>
      <point x="109" y="556"/>
      <point x="208" y="556" type="curve" smooth="yes"/>
      <point x="311" y="556"/>
      <point x="360" y="460"/>
      <point x="392" y="371" type="curve" smooth="yes"/>
      <point x="417" y="295"/>
      <point x="437" y="249"/>
      <point x="481" y="249" type="curve" smooth="yes"/>
      <point x="523" y="249"/>
      <point x="542" y="289"/>
      <point x="542" y="351" type="curve" smooth="yes"/>
      <point x="542" y="405"/>
      <point x="515" y="445"/>
      <point x="465" y="445" type="curve" smooth="yes"/>
      <point x="415" y="445"/>
      <point x="384" y="409"/>
      <point x="372" y="360" type="curve"/>
      <point x="319" y="361" type="line"/>
      <point x="337" y="464"/>
      <point x="394" y="556"/>
      <point x="473" y="556" type="curve" smooth="yes"/>
      <point x="555" y="556"/>
      <point x="610" y="472"/>
      <point x="610" y="348" type="curve" smooth="yes"/>
      <point x="610" y="224"/>
      <point x="544" y="137"/>
      <point x="445" y="137" type="curve" smooth="yes"/>
      <point x="346" y="137"/>
      <point x="294" y="228"/>
      <point x="260" y="331" type="curve" smooth="yes"/>
      <point x="240" y="399"/>
      <point x="219" y="443"/>
      <point x="177" y="443" type="curve" smooth="yes"/>
      <point x="133" y="443"/>
      <point x="110" y="403"/>
      <point x="110" y="346" type="curve" smooth="yes"/>
      <point x="110" y="283"/>
      <point x="138" y="247"/>
      <point x="187" y="247" type="curve" smooth="yes"/>
      <point x="238" y="247"/>
      <point x="269" y="285"/>
      <point x="281" y="332" type="curve"/>
      <point x="333" y="331" type="line"/>
      <point x="315" y="229"/>
      <point x="261" y="137"/>
    </contour>
  </outline>
</glyph>
<glyph name="notequal" format="2">
  <advance width="471"/>
  <unicode hex="2260"/>
  <outline>
    <contour>
      <point x="304" y="639" type="line"/>
      <point x="31" y="41" type="line"/>
      <point x="150" y="41" type="line"/>
      <point x="423" y="639" type="line"/>
    </contour>
    <component base="equal" xOffset="-8" yOffset="1"/>
  </outline>
</glyph>
<glyph name="hook" format="2">
  <advance width="430"/>
  <unicode hex="2440"/>
  <anchor x="199" y="517" name="_top"/>
  <outline>
    <contour>
      <point x="51" y="686" type="line"/>
      <point x="55" y="741"/>
      <point x="91" y="793"/>
      <point x="192" y="793" type="curve" smooth="yes"/>
      <point x="280" y="793"/>
      <point x="325" y="755"/>
      <point x="325" y="695" type="curve" smooth="yes"/>
      <point x="325" y="624"/>
      <point x="273" y="597"/>
      <point x="180" y="589" type="curve"/>
      <point x="226" y="627" type="line"/>
      <point x="226" y="557" type="line"/>
      <point x="134" y="557" type="line"/>
      <point x="134" y="636" type="line"/>
      <point x="188" y="642"/>
      <point x="208" y="658"/>
      <point x="208" y="686" type="curve" smooth="yes"/>
      <point x="208" y="705"/>
      <point x="198" y="719"/>
      <point x="182" y="719" type="curve" smooth="yes"/>
      <point x="163" y="719"/>
      <point x="152" y="706"/>
      <point x="150" y="686" type="curve"/>
    </contour>
  </outline>
</glyph>
<glyph name="one.den" format="2">
  <advance width="316"/>
  <unicode hex="E403"/>
  <outline>
    <contour>
      <point x="239" y="80" type="curve" smooth="yes"/>
      <point x="239" y="373" type="line"/>
      <point x="106" y="373" type="line"/>
      <point x="89" y="343"/>
      <point x="70" y="326"/>
      <point x="8" y="325" type="curve"/>
      <point x="8" y="244" type="line"/>
      <point x="58" y="243"/>
      <point x="83" y="258"/>
      <point x="100" y="314" type="curve"/>
      <point x="87" y="310" type="line"/>
      <point x="87" y="80" type="line" smooth="yes"/>
      <point x="87" y="56"/>
      <point x="59" y="52"/>
      <point x="29" y="52" type="curve" smooth="yes"/>
      <point x="19" y="52" type="line"/>
      <point x="19" y="0" type="line"/>
      <point x="299" y="0" type="line"/>
      <point x="299" y="52" type="line"/>
      <point x="295" y="52" type="line" smooth="yes"/>
      <point x="264" y="52"/>
      <point x="239" y="56"/>
    </contour>
  </outline>
</glyph>
<glyph name="six.den" format="2">
  <advance width="359"/>
  <unicode hex="E408"/>
  <outline>
    <contour>
      <point x="323" y="328" type="line"/>
      <point x="218" y="318"/>
      <point x="161" y="273"/>
      <point x="161" y="163" type="curve" smooth="yes"/>
      <point x="161" y="69"/>
      <point x="168" y="50"/>
      <point x="180" y="50" type="curve" smooth="yes"/>
      <point x="194" y="50"/>
      <point x="195" y="71"/>
      <point x="195" y="130" type="curve" smooth="yes"/>
      <point x="195" y="173"/>
      <point x="193" y="204"/>
      <point x="174" y="204" type="curve" smooth="yes"/>
      <point x="164" y="204"/>
      <point x="154" y="187"/>
      <point x="146" y="163" type="curve"/>
      <point x="147" y="203" type="line"/>
      <point x="153" y="227"/>
      <point x="180" y="258"/>
      <point x="227" y="258" type="curve" smooth="yes"/>
      <point x="296" y="258"/>
      <point x="340" y="215"/>
      <point x="340" y="136" type="curve" smooth="yes"/>
      <point x="340" y="44"/>
      <point x="277" y="-6"/>
      <point x="182" y="-6" type="curve" smooth="yes"/>
      <point x="74" y="-6"/>
      <point x="18" y="50"/>
      <point x="18" y="161" type="curve" smooth="yes"/>
      <point x="18" y="291"/>
      <point x="122" y="379"/>
      <point x="315" y="384" type="curve"/>
    </contour>
  </outline>
</glyph>
<glyph name="nine.den" format="2">
  <advance width="359"/>
  <unicode hex="E40B"/>
  <outline>
    <contour>
      <point x="46" y="46" type="line"/>
      <point x="138" y="53"/>
      <point x="197" y="104"/>
      <point x="197" y="218" type="curve" smooth="yes"/>
      <point x="197" y="306"/>
      <point x="192" y="322"/>
      <point x="180" y="322" type="curve" smooth="yes"/>
      <point x="167" y="322"/>
      <point x="164" y="305"/>
      <point x="164" y="253" type="curve" smooth="yes"/>
      <point x="164" y="212"/>
      <point x="168" y="184"/>
      <point x="187" y="184" type="curve" smooth="yes"/>
      <point x="198" y="184"/>
      <point x="207" y="202"/>
      <point x="216" y="226" type="curve"/>
      <point x="214" y="188" type="line"/>
      <point x="209" y="163"/>
      <point x="181" y="131"/>
      <point x="130" y="131" type="curve" smooth="yes"/>
      <point x="64" y="131"/>
      <point x="18" y="174"/>
      <point x="18" y="248" type="curve" smooth="yes"/>
      <point x="18" y="332"/>
      <point x="85" y="379"/>
      <point x="180" y="379" type="curve" smooth="yes"/>
      <point x="291" y="379"/>
      <point x="340" y="325"/>
      <point x="340" y="218" type="curve" smooth="yes"/>
      <point x="340" y="84"/>
      <point x="226" y="0"/>
      <point x="53" y="-10" type="curve"/>
    </contour>
  </outline>
</glyph>
<glyph name="f_f_i" format="2">
  <advance width="911"/>
  <unicode hex="FB03"/>
  <outline>
    <contour>
      <point x="-6" y="513" type="line"/>
      <point x="-6" y="432" type="line"/>
      <point x="351" y="432" type="line"/>
      <point x="351" y="513" type="line"/>
    </contour>
    <contour>
      <point x="294" y="513" type="line"/>
      <point x="294" y="432" type="line"/>
      <point x="652" y="432" type="line"/>
      <point x="652" y="513" type="line"/>
    </contour>
    <contour>
      <point x="764" y="565" type="curve" smooth="yes"/>
      <point x="838" y="565"/>
      <point x="879" y="599"/>
      <point x="879" y="657" type="curve" smooth="yes"/>
      <point x="879" y="714"/>
      <point x="838" y="749"/>
      <point x="764" y="749" type="curve" smooth="yes"/>
      <point x="691" y="749"/>
      <point x="649" y="714"/>
      <point x="649" y="657" type="curve" smooth="yes"/>
      <point x="649" y="598"/>
      <point x="691" y="565"/>
    </contour>
    <contour>
      <point x="629" y="0" type="line"/>
      <point x="902" y="0" type="line"/>
      <point x="902" y="72" type="line"/>
      <point x="901" y="72" type="line" smooth="yes"/>
      <point x="890" y="72"/>
      <point x="881" y="78"/>
      <point x="881" y="99" type="curve" smooth="yes"/>
      <point x="881" y="513" type="line"/>
      <point x="629" y="513" type="line"/>
      <point x="629" y="432" type="line"/>
      <point x="634" y="432" type="line" smooth="yes"/>
      <point x="646" y="432"/>
      <point x="649" y="421"/>
      <point x="649" y="403" type="curve"/>
      <point x="649" y="80" type="line"/>
      <point x="649" y="74"/>
      <point x="639" y="72"/>
      <point x="632" y="72" type="curve" smooth="yes"/>
      <point x="629" y="72" type="line"/>
    </contour>
    <contour>
      <point x="279" y="80" type="curve"/>
      <point x="279" y="576" type="line" smooth="yes"/>
      <point x="279" y="632"/>
      <point x="289" y="649"/>
      <point x="310" y="649" type="curve" smooth="yes"/>
      <point x="320" y="649"/>
      <point x="334" y="642"/>
      <point x="332" y="640" type="curve"/>
      <point x="332" y="725" type="line"/>
      <point x="322" y="731"/>
      <point x="291" y="737"/>
      <point x="252" y="737" type="curve" smooth="yes"/>
      <point x="141" y="737"/>
      <point x="48" y="685"/>
      <point x="48" y="532" type="curve" smooth="yes"/>
      <point x="48" y="102" type="line"/>
      <point x="48" y="81"/>
      <point x="38" y="72"/>
      <point x="19" y="72" type="curve" smooth="yes"/>
      <point x="9" y="72" type="line"/>
      <point x="9" y="0" type="line"/>
      <point x="302" y="0" type="line"/>
      <point x="302" y="72" type="line"/>
      <point x="300" y="72" type="line" smooth="yes"/>
      <point x="285" y="72"/>
      <point x="279" y="74"/>
    </contour>
    <contour>
      <point x="349" y="80" type="line"/>
      <point x="349" y="74"/>
      <point x="343" y="72"/>
      <point x="333" y="72" type="curve" smooth="yes"/>
      <point x="334" y="72" type="line"/>
      <point x="334" y="0" type="line"/>
      <point x="597" y="0" type="line"/>
      <point x="597" y="72" type="line"/>
      <point x="597" y="72" type="line" smooth="yes"/>
      <point x="589" y="72"/>
      <point x="579" y="74"/>
      <point x="579" y="80" type="curve"/>
      <point x="579" y="586" type="line" smooth="yes"/>
      <point x="579" y="643"/>
      <point x="589" y="659"/>
      <point x="610" y="659" type="curve" smooth="yes"/>
      <point x="618" y="659"/>
      <point x="632" y="653"/>
      <point x="631" y="651" type="curve"/>
      <point x="631" y="735" type="line"/>
      <point x="621" y="741"/>
      <point x="591" y="748"/>
      <point x="552" y="748" type="curve" smooth="yes"/>
      <point x="440" y="748"/>
      <point x="349" y="695"/>
      <point x="349" y="543" type="curve"/>
    </contour>
  </outline>
</glyph>
<glyph name="E.alt" format="2">
  <advance width="544"/>
  <outline>
    <contour>
      <point x="531" y="211" type="line"/>
      <point x="432" y="211" type="line"/>
      <point x="422" y="130" type="line" smooth="yes"/>
      <point x="417" y="94"/>
      <point x="395" y="87"/>
      <point x="333" y="87" type="curve" smooth="yes"/>
      <point x="299" y="87" type="line"/>
      <point x="299" y="623" type="line"/>
      <point x="340" y="623" type="line" smooth="yes"/>
      <point x="376" y="623"/>
      <point x="405" y="616"/>
      <point x="408" y="580" type="curve" smooth="yes"/>
      <point x="411" y="524" type="line"/>
      <point x="509" y="524" type="line"/>
      <point x="509" y="710" type="line"/>
      <point x="14" y="710" type="line"/>
      <point x="14" y="633" type="line"/>
      <point x="23" y="633" type="line" smooth="yes"/>
      <point x="40" y="633"/>
      <point x="52" y="626"/>
      <point x="52" y="597" type="curve" smooth="yes"/>
      <point x="52" y="113" type="line" smooth="yes"/>
      <point x="52" y="84"/>
      <point x="40" y="77"/>
      <point x="23" y="77" type="curve" smooth="yes"/>
      <point x="14" y="77" type="line"/>
      <point x="14" y="0" type="line"/>
      <point x="531" y="0" type="line"/>
    </contour>
    <contour>
      <point x="221" y="408" type="line"/>
      <point x="221" y="325" type="line"/>
      <point x="330" y="325" type="line" smooth="yes"/>
      <point x="355" y="325"/>
      <point x="362" y="302"/>
      <point x="362" y="277" type="curve" smooth="yes"/>
      <point x="362" y="271" type="line"/>
      <point x="438" y="271" type="line"/>
      <point x="438" y="463" type="line"/>
      <point x="362" y="463" type="line"/>
      <point x="362" y="457" type="line" smooth="yes"/>
      <point x="362" y="431"/>
      <point x="355" y="408"/>
      <point x="330" y="408" type="curve" smooth="yes"/>
    </contour>
  </outline>
</glyph>
<glyph name="F.alt" format="2">
  <advance width="528"/>
  <outline>
    <contour>
      <point x="299" y="623" type="line"/>
      <point x="344" y="623" type="line" smooth="yes"/>
      <point x="379" y="623"/>
      <point x="408" y="616"/>
      <point x="411" y="580" type="curve" smooth="yes"/>
      <point x="416" y="517" type="line"/>
      <point x="513" y="517" type="line"/>
      <point x="513" y="710" type="line"/>
      <point x="14" y="710" type="line"/>
      <point x="14" y="633" type="line"/>
      <point x="23" y="633" type="line" smooth="yes"/>
      <point x="40" y="633"/>
      <point x="52" y="626"/>
      <point x="52" y="597" type="curve" smooth="yes"/>
      <point x="52" y="113" type="line" smooth="yes"/>
      <point x="52" y="84"/>
      <point x="40" y="77"/>
      <point x="23" y="77" type="curve" smooth="yes"/>
      <point x="14" y="77" type="line"/>
      <point x="14" y="0" type="line"/>
      <point x="354" y="0" type="line"/>
      <point x="354" y="77" type="line"/>
      <point x="340" y="77" type="line" smooth="yes"/>
      <point x="321" y="77"/>
      <point x="299" y="78"/>
      <point x="299" y="113" type="curve" smooth="yes"/>
    </contour>
    <contour>
      <point x="236" y="396" type="line"/>
      <point x="236" y="313" type="line"/>
      <point x="340" y="313" type="line" smooth="yes"/>
      <point x="364" y="313"/>
      <point x="371" y="291"/>
      <point x="371" y="265" type="curve" smooth="yes"/>
      <point x="371" y="259" type="line"/>
      <point x="447" y="259" type="line"/>
      <point x="447" y="451" type="line"/>
      <point x="371" y="451" type="line"/>
      <point x="371" y="445" type="line" smooth="yes"/>
      <point x="371" y="420"/>
      <point x="364" y="396"/>
      <point x="340" y="396" type="curve" smooth="yes"/>
    </contour>
  </outline>
</glyph>
<glyph name="OE.alt" format="2">
  <advance width="862"/>
  <outline>
    <contour>
      <point x="849" y="211" type="line"/>
      <point x="749" y="211" type="line"/>
      <point x="739" y="130" type="line" smooth="yes"/>
      <point x="735" y="94"/>
      <point x="713" y="87"/>
      <point x="651" y="87" type="curve" smooth="yes"/>
      <point x="647" y="87" type="line"/>
      <point x="647" y="623" type="line"/>
      <point x="658" y="623" type="line" smooth="yes"/>
      <point x="694" y="623"/>
      <point x="722" y="616"/>
      <point x="725" y="580" type="curve" smooth="yes"/>
      <point x="729" y="524" type="line"/>
      <point x="827" y="524" type="line"/>
      <point x="827" y="710" type="line"/>
      <point x="364" y="710" type="line"/>
      <point x="164" y="710"/>
      <point x="21" y="578"/>
      <point x="21" y="353" type="curve" smooth="yes"/>
      <point x="21" y="127"/>
      <point x="164" y="0"/>
      <point x="364" y="0" type="curve"/>
      <point x="849" y="0" type="line"/>
    </contour>
    <contour>
      <point x="277" y="353" type="curve" smooth="yes"/>
      <point x="277" y="523"/>
      <point x="321" y="622"/>
      <point x="376" y="622" type="curve" smooth="yes"/>
      <point x="400" y="622" type="line"/>
      <point x="400" y="88" type="line"/>
      <point x="376" y="88" type="line" smooth="yes"/>
      <point x="321" y="88"/>
      <point x="277" y="183"/>
    </contour>
    <contour>
      <point x="559" y="408" type="line"/>
      <point x="559" y="325" type="line"/>
      <point x="669" y="325" type="line" smooth="yes"/>
      <point x="694" y="325"/>
      <point x="701" y="302"/>
      <point x="701" y="277" type="curve" smooth="yes"/>
      <point x="701" y="271" type="line"/>
      <point x="777" y="271" type="line"/>
      <point x="777" y="463" type="line"/>
      <point x="701" y="463" type="line"/>
      <point x="701" y="457" type="line" smooth="yes"/>
      <point x="701" y="431"/>
      <point x="694" y="408"/>
      <point x="669" y="408" type="curve" smooth="yes"/>
    </contour>
  </outline>
</glyph>
<glyph name="acute.uc" format="2">
  <advance width="421"/>
  <anchor x="155" y="727" name="_top"/>
  <outline>
    <contour>
      <point x="192" y="869" type="curve" smooth="yes"/>
      <point x="160" y="788" type="line"/>
      <point x="160" y="757" type="line"/>
      <point x="225" y="757" type="line"/>
      <point x="281" y="783" type="line" smooth="yes"/>
      <point x="349" y="805"/>
      <point x="375" y="834"/>
      <point x="375" y="878" type="curve" smooth="yes"/>
      <point x="375" y="918"/>
      <point x="344" y="948"/>
      <point x="298" y="948" type="curve" smooth="yes"/>
      <point x="248" y="948"/>
      <point x="219" y="921"/>
    </contour>
  </outline>
</glyph>
<glyph name="acute.ucpl" format="2">
  <advance width="421"/>
  <anchor x="149" y="694" name="_top"/>
  <outline>
    <contour>
      <point x="132" y="871" type="curve" smooth="yes"/>
      <point x="130" y="780" type="line"/>
      <point x="130" y="754" type="line"/>
      <point x="205" y="754" type="line"/>
      <point x="238" y="806" type="line" smooth="yes"/>
      <point x="278" y="861"/>
      <point x="293" y="892"/>
      <point x="293" y="924" type="curve" smooth="yes"/>
      <point x="293" y="959"/>
      <point x="271" y="989"/>
      <point x="220" y="989" type="curve" smooth="yes"/>
      <point x="159" y="989"/>
      <point x="133" y="946"/>
    </contour>
  </outline>
</glyph>
<glyph name="blackleftpointingtriangle" format="2">
  <advance width="482"/>
  <outline>
    <contour>
      <point x="373" y="10" type="line"/>
      <point x="59" y="277" type="line"/>
      <point x="373" y="545" type="line"/>
    </contour>
  </outline>
</glyph>
<glyph name="breve.uc" format="2">
  <advance width="421"/>
  <anchor x="210" y="694" name="_top"/>
  <outline>
    <contour>
      <point x="210" y="747" type="curve" smooth="yes"/>
      <point x="129" y="747"/>
      <point x="63" y="799"/>
      <point x="59" y="914" type="curve"/>
      <point x="158" y="914" type="line"/>
      <point x="160" y="875"/>
      <point x="179" y="863"/>
      <point x="213" y="863" type="curve" smooth="yes"/>
      <point x="246" y="863"/>
      <point x="265" y="875"/>
      <point x="268" y="914" type="curve"/>
      <point x="362" y="914" type="line"/>
      <point x="358" y="799"/>
      <point x="291" y="747"/>
    </contour>
  </outline>
</glyph>
<glyph name="breve_acute.uc" format="2">
  <advance width="429"/>
  <anchor x="212" y="744" name="_top"/>
  <outline>
    <contour>
      <point x="199" y="1033" type="curve" smooth="yes"/>
      <point x="172" y="959" type="line"/>
      <point x="172" y="931" type="line"/>
      <point x="230" y="931" type="line"/>
      <point x="278" y="955" type="line" smooth="yes"/>
      <point x="340" y="976"/>
      <point x="362" y="1003"/>
      <point x="362" y="1045" type="curve" smooth="yes"/>
      <point x="362" y="1081"/>
      <point x="336" y="1106"/>
      <point x="295" y="1106" type="curve" smooth="yes"/>
      <point x="251" y="1106"/>
      <point x="222" y="1081"/>
    </contour>
    <component base="breve.uc"/>
  </outline>
</glyph>
<glyph name="breve_hook" format="2">
  <advance width="429"/>
  <anchor x="210" y="525" name="_top"/>
  <outline>
    <contour>
      <point x="96" y="840" type="line"/>
      <point x="100" y="883"/>
      <point x="130" y="927"/>
      <point x="218" y="927" type="curve" smooth="yes"/>
      <point x="296" y="927"/>
      <point x="336" y="895"/>
      <point x="336" y="846" type="curve" smooth="yes"/>
      <point x="336" y="791"/>
      <point x="295" y="767"/>
      <point x="230" y="761" type="curve"/>
      <point x="255" y="788" type="line"/>
      <point x="255" y="738" type="line"/>
      <point x="169" y="738" type="line"/>
      <point x="169" y="801" type="line"/>
      <point x="213" y="804"/>
      <point x="230" y="817"/>
      <point x="230" y="841" type="curve"/>
      <point x="230" y="857"/>
      <point x="224" y="866"/>
      <point x="210" y="866" type="curve" smooth="yes"/>
      <point x="198" y="866"/>
      <point x="189" y="856"/>
      <point x="187" y="840" type="curve"/>
    </contour>
    <contour>
      <point x="210" y="559" type="curve" smooth="yes"/>
      <point x="116" y="559"/>
      <point x="52" y="617"/>
      <point x="56" y="727" type="curve"/>
      <point x="154" y="727" type="line"/>
      <point x="160" y="684"/>
      <point x="183" y="675"/>
      <point x="213" y="675" type="curve" smooth="yes"/>
      <point x="242" y="675"/>
      <point x="265" y="684"/>
      <point x="271" y="727" type="curve"/>
      <point x="364" y="727" type="line"/>
      <point x="368" y="617"/>
      <point x="304" y="559"/>
    </contour>
  </outline>
</glyph>
<glyph name="breve_hook.uc" format="2">
  <advance width="419"/>
  <anchor x="204" y="724" name="_top"/>
  <outline>
    <contour>
      <point x="100" y="1006" type="line"/>
      <point x="103" y="1049"/>
      <point x="134" y="1090"/>
      <point x="222" y="1090" type="curve" smooth="yes"/>
      <point x="299" y="1090"/>
      <point x="340" y="1061"/>
      <point x="340" y="1013" type="curve" smooth="yes"/>
      <point x="340" y="957"/>
      <point x="299" y="937"/>
      <point x="234" y="931" type="curve"/>
      <point x="258" y="956" type="line"/>
      <point x="258" y="909" type="line"/>
      <point x="172" y="909" type="line"/>
      <point x="172" y="967" type="line"/>
      <point x="216" y="970"/>
      <point x="233" y="983"/>
      <point x="233" y="1007" type="curve"/>
      <point x="233" y="1023"/>
      <point x="227" y="1032"/>
      <point x="213" y="1032" type="curve" smooth="yes"/>
      <point x="201" y="1032"/>
      <point x="193" y="1023"/>
      <point x="191" y="1006" type="curve"/>
    </contour>
    <contour>
      <point x="210" y="758" type="curve" smooth="yes"/>
      <point x="129" y="758"/>
      <point x="63" y="801"/>
      <point x="59" y="900" type="curve"/>
      <point x="158" y="900" type="line"/>
      <point x="160" y="861"/>
      <point x="180" y="850"/>
      <point x="213" y="850" type="curve" smooth="yes"/>
      <point x="246" y="850"/>
      <point x="265" y="861"/>
      <point x="268" y="900" type="curve"/>
      <point x="362" y="900" type="line"/>
      <point x="358" y="801"/>
      <point x="291" y="758"/>
    </contour>
  </outline>
</glyph>
<glyph name="breve_tilde" format="2">
  <advance width="419"/>
  <anchor x="209" y="524" name="_top"/>
  <outline>
    <contour>
      <point x="268" y="764" type="curve" smooth="yes"/>
      <point x="332" y="764"/>
      <point x="371" y="816"/>
      <point x="387" y="897" type="curve"/>
      <point x="304" y="927" type="line"/>
      <point x="297" y="896"/>
      <point x="289" y="880"/>
      <point x="268" y="880" type="curve" smooth="yes"/>
      <point x="236" y="880"/>
      <point x="215" y="925"/>
      <point x="150" y="925" type="curve" smooth="yes"/>
      <point x="78" y="925"/>
      <point x="46" y="875"/>
      <point x="33" y="792" type="curve"/>
      <point x="116" y="764" type="line"/>
      <point x="122" y="796"/>
      <point x="129" y="810"/>
      <point x="149" y="810" type="curve" smooth="yes"/>
      <point x="180" y="810"/>
      <point x="196" y="764"/>
    </contour>
    <contour>
      <point x="209" y="559" type="curve" smooth="yes"/>
      <point x="115" y="559"/>
      <point x="51" y="620"/>
      <point x="55" y="725" type="curve"/>
      <point x="153" y="725" type="line"/>
      <point x="157" y="685"/>
      <point x="180" y="675"/>
      <point x="212" y="675" type="curve" smooth="yes"/>
      <point x="243" y="675"/>
      <point x="266" y="685"/>
      <point x="270" y="725" type="curve"/>
      <point x="364" y="725" type="line"/>
      <point x="367" y="620"/>
      <point x="303" y="559"/>
    </contour>
  </outline>
</glyph>
<glyph name="breve_tilde.uc" format="2">
  <advance width="421"/>
  <anchor x="242" y="694" name="_top"/>
  <outline>
    <contour>
      <point x="212" y="758" type="curve" smooth="yes"/>
      <point x="132" y="758"/>
      <point x="65" y="806"/>
      <point x="61" y="906" type="curve"/>
      <point x="159" y="906" type="line"/>
      <point x="162" y="868"/>
      <point x="182" y="857"/>
      <point x="215" y="857" type="curve" smooth="yes"/>
      <point x="247" y="857"/>
      <point x="266" y="868"/>
      <point x="269" y="906" type="curve"/>
      <point x="364" y="906" type="line"/>
      <point x="360" y="806"/>
      <point x="293" y="758"/>
    </contour>
    <contour>
      <point x="266" y="933" type="curve" smooth="yes"/>
      <point x="330" y="933"/>
      <point x="371" y="982"/>
      <point x="386" y="1059" type="curve"/>
      <point x="302" y="1089" type="line"/>
      <point x="296" y="1060"/>
      <point x="286" y="1045"/>
      <point x="268" y="1045" type="curve" smooth="yes"/>
      <point x="238" y="1045"/>
      <point x="221" y="1088"/>
      <point x="157" y="1088" type="curve" smooth="yes"/>
      <point x="88" y="1088"/>
      <point x="52" y="1041"/>
      <point x="39" y="963" type="curve"/>
      <point x="123" y="934" type="line"/>
      <point x="128" y="964"/>
      <point x="137" y="978"/>
      <point x="155" y="978" type="curve" smooth="yes"/>
      <point x="180" y="978"/>
      <point x="198" y="933"/>
    </contour>
  </outline>
</glyph>
<glyph name="brokenbar.uc" format="2">
  <advance width="256"/>
  <outline>
    <contour>
      <point x="198" y="415" type="line"/>
      <point x="198" y="741" type="line"/>
      <point x="58" y="741" type="line"/>
      <point x="58" y="415" type="line"/>
    </contour>
    <contour>
      <point x="58" y="292" type="line"/>
      <point x="58" y="-35" type="line"/>
      <point x="198" y="-35" type="line"/>
      <point x="198" y="292" type="line"/>
    </contour>
  </outline>
</glyph>
<glyph name="cedi.proportional" format="2">
  <advance width="626"/>
  <outline>
    <contour>
      <point x="348" y="717" type="curve"/>
      <point x="157" y="717"/>
      <point x="23" y="572"/>
      <point x="23" y="355" type="curve" smooth="yes"/>
      <point x="23" y="139"/>
      <point x="153" y="-7"/>
      <point x="341" y="-7" type="curve" smooth="yes"/>
      <point x="498" y="-7"/>
      <point x="573" y="92"/>
      <point x="596" y="236" type="curve"/>
      <point x="522" y="269" type="line"/>
      <point x="506" y="158"/>
      <point x="453" y="83"/>
      <point x="377" y="83" type="curve" smooth="yes"/>
      <point x="277" y="83"/>
      <point x="250" y="182"/>
      <point x="250" y="355" type="curve" smooth="yes"/>
      <point x="250" y="520"/>
      <point x="267" y="628"/>
      <point x="364" y="628" type="curve" smooth="yes"/>
      <point x="429" y="628"/>
      <point x="460" y="590"/>
      <point x="473" y="543" type="curve"/>
      <point x="548" y="545"/>
      <point x="477" y="623"/>
      <point x="430" y="632" type="curve"/>
      <point x="430" y="495" type="line"/>
      <point x="585" y="495" type="line"/>
      <point x="585" y="638" type="line"/>
      <point x="572" y="657"/>
      <point x="501" y="717"/>
    </contour>
    <contour>
      <point x="306" y="790" type="line"/>
      <point x="306" y="662" type="line"/>
      <point x="319" y="644" type="line"/>
      <point x="319" y="61" type="line"/>
      <point x="306" y="39" type="line"/>
      <point x="306" y="-120" type="line"/>
      <point x="397" y="-120" type="line"/>
      <point x="397" y="38" type="line"/>
      <point x="384" y="63" type="line"/>
      <point x="384" y="650" type="line"/>
      <point x="397" y="669" type="line"/>
      <point x="397" y="790" type="line"/>
    </contour>
  </outline>
</glyph>
<glyph name="cent.proportional" format="2">
  <advance width="520"/>
  <outline>
    <contour>
      <point x="328" y="74" type="curve" smooth="yes"/>
      <point x="259" y="74"/>
      <point x="226" y="118"/>
      <point x="226" y="254" type="curve" smooth="yes"/>
      <point x="226" y="382"/>
      <point x="233" y="438"/>
      <point x="310" y="438" type="curve" smooth="yes"/>
      <point x="359" y="438"/>
      <point x="370" y="417"/>
      <point x="376" y="401" type="curve"/>
      <point x="419" y="388"/>
      <point x="445" y="434"/>
      <point x="360" y="459" type="curve"/>
      <point x="360" y="326" type="line"/>
      <point x="490" y="326" type="line"/>
      <point x="490" y="457" type="line"/>
      <point x="471" y="479"/>
      <point x="415" y="523"/>
      <point x="294" y="523" type="curve" smooth="yes"/>
      <point x="135" y="523"/>
      <point x="24" y="423"/>
      <point x="24" y="254" type="curve" smooth="yes"/>
      <point x="24" y="84"/>
      <point x="138" y="-14"/>
      <point x="291" y="-14" type="curve" smooth="yes"/>
      <point x="407" y="-14"/>
      <point x="465" y="47"/>
      <point x="502" y="134" type="curve"/>
      <point x="435" y="181" type="line"/>
      <point x="416" y="133"/>
      <point x="382" y="74"/>
    </contour>
    <contour>
      <point x="249" y="623" type="line"/>
      <point x="249" y="471" type="line"/>
      <point x="271" y="455" type="line"/>
      <point x="271" y="54" type="line"/>
      <point x="249" y="37" type="line"/>
      <point x="249" y="-126" type="line"/>
      <point x="350" y="-126" type="line"/>
      <point x="350" y="28" type="line"/>
      <point x="328" y="43" type="line"/>
      <point x="328" y="462" type="line"/>
      <point x="350" y="479" type="line"/>
      <point x="350" y="623" type="line"/>
    </contour>
  </outline>
</glyph>
<glyph name="circumflex_acute" format="2">
  <advance width="429"/>
  <anchor x="178" y="558" name="_top"/>
  <outline>
    <contour>
      <point x="388" y="805" type="curve" smooth="yes"/>
      <point x="367" y="709" type="line"/>
      <point x="367" y="679" type="line"/>
      <point x="433" y="679" type="line"/>
      <point x="493" y="728" type="line" smooth="yes"/>
      <point x="545" y="759"/>
      <point x="569" y="793"/>
      <point x="569" y="834" type="curve" smooth="yes"/>
      <point x="569" y="873"/>
      <point x="537" y="903"/>
      <point x="490" y="903" type="curve" smooth="yes"/>
      <point x="432" y="903"/>
      <point x="406" y="866"/>
    </contour>
    <component base="circumflex" xOffset="-8"/>
  </outline>
</glyph>
<glyph name="circumflex_acute.uc" format="2">
  <advance width="429"/>
  <anchor x="188" y="749" name="_top"/>
  <outline>
    <contour>
      <point x="404" y="973" type="curve" smooth="yes"/>
      <point x="373" y="893" type="line"/>
      <point x="373" y="866" type="line"/>
      <point x="429" y="866" type="line"/>
      <point x="482" y="892" type="line" smooth="yes"/>
      <point x="537" y="913"/>
      <point x="565" y="936"/>
      <point x="565" y="984" type="curve" smooth="yes"/>
      <point x="565" y="1020"/>
      <point x="539" y="1049"/>
      <point x="499" y="1049" type="curve" smooth="yes"/>
      <point x="453" y="1049"/>
      <point x="429" y="1022"/>
    </contour>
    <component base="circumflex.uc"/>
  </outline>
</glyph>
<glyph name="circumflex_hook" format="2">
  <advance width="429"/>
  <anchor x="191" y="559" name="_top"/>
  <outline>
    <contour>
      <point x="300" y="805" type="line"/>
      <point x="304" y="848"/>
      <point x="334" y="892"/>
      <point x="422" y="892" type="curve" smooth="yes"/>
      <point x="498" y="892"/>
      <point x="539" y="859"/>
      <point x="539" y="810" type="curve" smooth="yes"/>
      <point x="539" y="755"/>
      <point x="499" y="731"/>
      <point x="435" y="725" type="curve"/>
      <point x="458" y="752" type="line"/>
      <point x="458" y="702" type="line"/>
      <point x="373" y="702" type="line"/>
      <point x="373" y="766" type="line"/>
      <point x="417" y="769"/>
      <point x="433" y="782"/>
      <point x="433" y="806" type="curve"/>
      <point x="433" y="822"/>
      <point x="428" y="832"/>
      <point x="413" y="832" type="curve" smooth="yes"/>
      <point x="401" y="832"/>
      <point x="392" y="822"/>
      <point x="390" y="805" type="curve"/>
    </contour>
    <component base="circumflex"/>
  </outline>
</glyph>
<glyph name="circumflex_hook.uc" format="2">
  <advance width="429"/>
  <anchor x="189" y="694" name="_top"/>
  <outline>
    <contour>
      <point x="323" y="940" type="line"/>
      <point x="326" y="983"/>
      <point x="356" y="1024"/>
      <point x="444" y="1024" type="curve" smooth="yes"/>
      <point x="521" y="1024"/>
      <point x="561" y="995"/>
      <point x="561" y="946" type="curve" smooth="yes"/>
      <point x="561" y="891"/>
      <point x="520" y="869"/>
      <point x="456" y="863" type="curve"/>
      <point x="480" y="890" type="line"/>
      <point x="480" y="840" type="line"/>
      <point x="395" y="840" type="line"/>
      <point x="395" y="900" type="line"/>
      <point x="439" y="903"/>
      <point x="455" y="917"/>
      <point x="455" y="941" type="curve"/>
      <point x="455" y="957"/>
      <point x="450" y="966"/>
      <point x="435" y="966" type="curve" smooth="yes"/>
      <point x="423" y="966"/>
      <point x="414" y="956"/>
      <point x="412" y="940" type="curve"/>
    </contour>
    <component base="circumflex.uc"/>
  </outline>
</glyph>
<glyph name="colonmonetary.proportional" format="2">
  <advance width="631"/>
  <outline>
    <contour>
      <point x="350" y="717" type="curve" smooth="yes"/>
      <point x="165" y="717"/>
      <point x="23" y="572"/>
      <point x="23" y="355" type="curve" smooth="yes"/>
      <point x="23" y="139"/>
      <point x="157" y="-7"/>
      <point x="348" y="-7" type="curve" smooth="yes"/>
      <point x="506" y="-7"/>
      <point x="583" y="92"/>
      <point x="606" y="238" type="curve"/>
      <point x="531" y="271" type="line"/>
      <point x="516" y="158"/>
      <point x="462" y="83"/>
      <point x="385" y="83" type="curve" smooth="yes"/>
      <point x="259" y="83"/>
      <point x="222" y="178"/>
      <point x="222" y="355" type="curve" smooth="yes"/>
      <point x="222" y="517"/>
      <point x="250" y="628"/>
      <point x="371" y="628" type="curve" smooth="yes"/>
      <point x="447" y="628"/>
      <point x="484" y="592"/>
      <point x="500" y="543" type="curve"/>
      <point x="557" y="545"/>
      <point x="499" y="616"/>
      <point x="465" y="623" type="curve"/>
      <point x="465" y="490" type="line"/>
      <point x="600" y="490" type="line"/>
      <point x="600" y="645" type="line"/>
      <point x="589" y="660"/>
      <point x="505" y="717"/>
    </contour>
    <contour>
      <point x="296" y="790" type="line"/>
      <point x="285" y="669" type="line"/>
      <point x="290" y="639" type="line"/>
      <point x="248" y="91" type="line"/>
      <point x="227" y="59" type="line"/>
      <point x="211" y="-120" type="line"/>
      <point x="277" y="-120" type="line"/>
      <point x="290" y="33" type="line"/>
      <point x="289" y="52" type="line"/>
      <point x="336" y="646" type="line"/>
      <point x="349" y="665" type="line"/>
      <point x="362" y="790" type="line"/>
    </contour>
    <contour>
      <point x="405" y="790" type="line"/>
      <point x="396" y="684" type="line"/>
      <point x="398" y="662" type="line"/>
      <point x="350" y="52" type="line"/>
      <point x="333" y="29" type="line"/>
      <point x="320" y="-120" type="line"/>
      <point x="385" y="-120" type="line"/>
      <point x="398" y="26" type="line"/>
      <point x="395" y="47" type="line"/>
      <point x="442" y="647" type="line"/>
      <point x="460" y="674" type="line"/>
      <point x="471" y="790" type="line"/>
    </contour>
  </outline>
</glyph>
<glyph name="currency.proportional" format="2">
  <advance width="487"/>
  <outline>
    <contour>
      <point x="291" y="373" type="curve" smooth="yes"/>
      <point x="291" y="324"/>
      <point x="273" y="291"/>
      <point x="243" y="291" type="curve" smooth="yes"/>
      <point x="213" y="291"/>
      <point x="197" y="324"/>
      <point x="197" y="373" type="curve" smooth="yes"/>
      <point x="197" y="421"/>
      <point x="213" y="455"/>
      <point x="243" y="455" type="curve" smooth="yes"/>
      <point x="273" y="455"/>
      <point x="291" y="421"/>
    </contour>
    <contour>
      <point x="53" y="373" type="curve" smooth="yes"/>
      <point x="53" y="245"/>
      <point x="136" y="153"/>
      <point x="243" y="153" type="curve" smooth="yes"/>
      <point x="353" y="153"/>
      <point x="434" y="245"/>
      <point x="434" y="373" type="curve" smooth="yes"/>
      <point x="434" y="501"/>
      <point x="353" y="593"/>
      <point x="243" y="593" type="curve" smooth="yes"/>
      <point x="136" y="593"/>
      <point x="53" y="501"/>
    </contour>
    <contour>
      <point x="13" y="565" type="line"/>
      <point x="106" y="456" type="line"/>
      <point x="202" y="539" type="line"/>
      <point x="102" y="655" type="line"/>
    </contour>
    <contour>
      <point x="475" y="565" type="line"/>
      <point x="386" y="655" type="line"/>
      <point x="286" y="539" type="line"/>
      <point x="381" y="456" type="line"/>
    </contour>
    <contour>
      <point x="13" y="181" type="line"/>
      <point x="102" y="91" type="line"/>
      <point x="202" y="207" type="line"/>
      <point x="106" y="290" type="line"/>
    </contour>
    <contour>
      <point x="475" y="181" type="line"/>
      <point x="381" y="290" type="line"/>
      <point x="286" y="207" type="line"/>
      <point x="386" y="91" type="line"/>
    </contour>
  </outline>
</glyph>
<glyph name="dieresis.uc" format="2">
  <advance width="421"/>
  <anchor x="210" y="694" name="_top"/>
  <outline>
    <contour>
      <point x="99" y="762" type="curve" smooth="yes"/>
      <point x="166" y="762"/>
      <point x="205" y="797"/>
      <point x="205" y="854" type="curve" smooth="yes"/>
      <point x="205" y="912"/>
      <point x="166" y="946"/>
      <point x="99" y="946" type="curve" smooth="yes"/>
      <point x="31" y="946"/>
      <point x="-8" y="912"/>
      <point x="-8" y="854" type="curve" smooth="yes"/>
      <point x="-8" y="796"/>
      <point x="31" y="762"/>
    </contour>
    <contour>
      <point x="321" y="762" type="curve" smooth="yes"/>
      <point x="390" y="762"/>
      <point x="429" y="797"/>
      <point x="429" y="854" type="curve" smooth="yes"/>
      <point x="429" y="912"/>
      <point x="390" y="946"/>
      <point x="321" y="946" type="curve" smooth="yes"/>
      <point x="254" y="946"/>
      <point x="214" y="912"/>
      <point x="214" y="854" type="curve" smooth="yes"/>
      <point x="214" y="796"/>
      <point x="254" y="762"/>
    </contour>
  </outline>
</glyph>
<glyph name="dollar.alt" format="2">
  <advance width="471"/>
  <outline>
    <contour>
      <point x="191" y="790" type="line"/>
      <point x="191" y="663" type="line"/>
      <point x="282" y="663" type="line"/>
      <point x="282" y="790" type="line"/>
    </contour>
    <contour>
      <point x="191" y="65" type="line"/>
      <point x="191" y="-120" type="line"/>
      <point x="282" y="-120" type="line"/>
      <point x="282" y="65" type="line"/>
    </contour>
    <contour>
      <point x="217" y="106" type="curve" smooth="yes"/>
      <point x="178" y="106"/>
      <point x="146" y="129"/>
      <point x="125" y="167" type="curve"/>
      <point x="114" y="156"/>
      <point x="130" y="106"/>
      <point x="161" y="108" type="curve"/>
      <point x="161" y="207" type="line"/>
      <point x="8" y="207" type="line"/>
      <point x="8" y="82" type="line"/>
      <point x="36" y="52"/>
      <point x="123" y="12"/>
      <point x="224" y="12" type="curve" smooth="yes"/>
      <point x="381" y="12"/>
      <point x="463" y="98"/>
      <point x="463" y="241" type="curve" smooth="yes"/>
      <point x="463" y="367"/>
      <point x="401" y="419"/>
      <point x="289" y="461" type="curve" smooth="yes"/>
      <point x="242" y="482"/>
      <point x="189" y="498"/>
      <point x="189" y="549" type="curve" smooth="yes"/>
      <point x="189" y="588"/>
      <point x="207" y="609"/>
      <point x="235" y="609" type="curve" smooth="yes"/>
      <point x="263" y="609"/>
      <point x="284" y="589"/>
      <point x="309" y="553" type="curve"/>
      <point x="320" y="566"/>
      <point x="308" y="614"/>
      <point x="276" y="611" type="curve"/>
      <point x="276" y="520" type="line"/>
      <point x="426" y="520" type="line"/>
      <point x="426" y="643" type="line"/>
      <point x="402" y="668"/>
      <point x="334" y="698"/>
      <point x="240" y="698" type="curve" smooth="yes"/>
      <point x="96" y="698"/>
      <point x="4" y="624"/>
      <point x="4" y="492" type="curve" smooth="yes"/>
      <point x="4" y="364"/>
      <point x="66" y="310"/>
      <point x="145" y="274" type="curve" smooth="yes"/>
      <point x="213" y="243"/>
      <point x="272" y="238"/>
      <point x="272" y="176" type="curve" smooth="yes"/>
      <point x="272" y="128"/>
      <point x="251" y="106"/>
    </contour>
  </outline>
</glyph>
<glyph name="dollar.proportional" format="2">
  <advance width="521"/>
  <outline>
    <contour>
      <point x="210" y="790" type="line"/>
      <point x="210" y="645" type="line"/>
      <point x="225" y="627" type="line"/>
      <point x="225" y="79" type="line"/>
      <point x="210" y="57" type="line"/>
      <point x="210" y="-120" type="line"/>
      <point x="311" y="-120" type="line"/>
      <point x="311" y="56" type="line"/>
      <point x="296" y="81" type="line"/>
      <point x="296" y="633" type="line"/>
      <point x="311" y="652" type="line"/>
      <point x="311" y="790" type="line"/>
    </contour>
    <contour>
      <point x="255" y="100" type="curve" smooth="yes"/>
      <point x="184" y="100"/>
      <point x="127" y="136"/>
      <point x="100" y="171" type="curve"/>
      <point x="90" y="168"/>
      <point x="123" y="107"/>
      <point x="155" y="109" type="curve"/>
      <point x="155" y="218" type="line"/>
      <point x="18" y="218" type="line"/>
      <point x="18" y="85" type="line"/>
      <point x="54" y="50"/>
      <point x="137" y="12"/>
      <point x="258" y="12" type="curve" smooth="yes"/>
      <point x="414" y="12"/>
      <point x="504" y="89"/>
      <point x="504" y="241" type="curve" smooth="yes"/>
      <point x="504" y="369"/>
      <point x="424" y="422"/>
      <point x="280" y="465" type="curve" smooth="yes"/>
      <point x="223" y="486"/>
      <point x="176" y="494"/>
      <point x="176" y="547" type="curve"/>
      <point x="176" y="590"/>
      <point x="204" y="611"/>
      <point x="260" y="611" type="curve" smooth="yes"/>
      <point x="312" y="611"/>
      <point x="355" y="595"/>
      <point x="389" y="561" type="curve"/>
      <point x="400" y="573"/>
      <point x="386" y="621"/>
      <point x="351" y="618" type="curve"/>
      <point x="351" y="518" type="line"/>
      <point x="477" y="518" type="line"/>
      <point x="477" y="637" type="line"/>
      <point x="445" y="666"/>
      <point x="357" y="698"/>
      <point x="261" y="698" type="curve" smooth="yes"/>
      <point x="121" y="698"/>
      <point x="24" y="626"/>
      <point x="24" y="495" type="curve" smooth="yes"/>
      <point x="24" y="366"/>
      <point x="105" y="310"/>
      <point x="223" y="272" type="curve" smooth="yes"/>
      <point x="312" y="243"/>
      <point x="345" y="232"/>
      <point x="345" y="173" type="curve" smooth="yes"/>
      <point x="345" y="120"/>
      <point x="313" y="100"/>
    </contour>
  </outline>
</glyph>
<glyph name="dong.proportional" format="2">
  <advance width="590"/>
  <outline>
    <contour>
      <point x="259" y="248" type="curve" smooth="yes"/>
      <point x="259" y="352"/>
      <point x="267" y="416"/>
      <point x="294" y="416" type="curve" smooth="yes"/>
      <point x="324" y="416"/>
      <point x="329" y="369"/>
      <point x="343" y="304" type="curve"/>
      <point x="380" y="322" type="line"/>
      <point x="364" y="454"/>
      <point x="313" y="523"/>
      <point x="214" y="523" type="curve" smooth="yes"/>
      <point x="103" y="523"/>
      <point x="23" y="410"/>
      <point x="23" y="248" type="curve" smooth="yes"/>
      <point x="23" y="91"/>
      <point x="94" y="-13"/>
      <point x="207" y="-13" type="curve" smooth="yes"/>
      <point x="293" y="-13"/>
      <point x="329" y="45"/>
      <point x="368" y="159" type="curve"/>
      <point x="342" y="216" type="line"/>
      <point x="320" y="143"/>
      <point x="312" y="93"/>
      <point x="287" y="93" type="curve" smooth="yes"/>
      <point x="266" y="93"/>
      <point x="259" y="147"/>
    </contour>
    <contour>
      <point x="320" y="714" type="line"/>
      <point x="320" y="108" type="line"/>
      <point x="333" y="121" type="line"/>
      <point x="333" y="0" type="line"/>
      <point x="572" y="0" type="line"/>
      <point x="572" y="75" type="line"/>
      <point x="565" y="77" type="line" smooth="yes"/>
      <point x="553" y="82"/>
      <point x="553" y="86"/>
      <point x="553" y="104" type="curve" smooth="yes"/>
      <point x="553" y="714" type="line"/>
    </contour>
    <contour>
      <point x="87" y="-91" type="line"/>
      <point x="87" y="-190" type="line"/>
      <point x="515" y="-190" type="line"/>
      <point x="515" y="-91" type="line"/>
    </contour>
    <contour>
      <point x="209" y="653" type="line"/>
      <point x="209" y="564" type="line"/>
      <point x="579" y="564" type="line"/>
      <point x="579" y="653" type="line"/>
    </contour>
  </outline>
</glyph>
<glyph name="f.short" format="2">
  <advance width="370"/>
  <outline>
    <contour>
      <point x="-6" y="513" type="line"/>
      <point x="-6" y="432" type="line"/>
      <point x="364" y="432" type="line"/>
      <point x="364" y="513" type="line"/>
    </contour>
    <contour>
      <point x="279" y="80" type="curve" smooth="yes"/>
      <point x="279" y="573" type="line" smooth="yes"/>
      <point x="279" y="636"/>
      <point x="290" y="661"/>
      <point x="321" y="661" type="curve" smooth="yes"/>
      <point x="344" y="661"/>
      <point x="365" y="650"/>
      <point x="367" y="647" type="curve"/>
      <point x="367" y="735" type="line"/>
      <point x="356" y="740"/>
      <point x="322" y="748"/>
      <point x="278" y="748" type="curve" smooth="yes"/>
      <point x="149" y="748"/>
      <point x="48" y="695"/>
      <point x="48" y="543" type="curve" smooth="yes"/>
      <point x="48" y="102" type="line"/>
      <point x="48" y="81"/>
      <point x="38" y="72"/>
      <point x="19" y="72" type="curve" smooth="yes"/>
      <point x="9" y="72" type="line"/>
      <point x="9" y="0" type="line"/>
      <point x="329" y="0" type="line"/>
      <point x="329" y="72" type="line"/>
      <point x="322" y="72" type="line" smooth="yes"/>
      <point x="305" y="72"/>
      <point x="279" y="74"/>
    </contour>
  </outline>
</glyph>
<glyph name="f_f_b" format="2">
  <advance width="1206"/>
  <outline>
    <contour>
      <point x="949" y="263" type="curve" smooth="yes"/>
      <point x="949" y="161"/>
      <point x="941" y="97"/>
      <point x="910" y="97" type="curve" smooth="yes"/>
      <point x="878" y="97"/>
      <point x="872" y="145"/>
      <point x="859" y="209" type="curve"/>
      <point x="811" y="156" type="line"/>
      <point x="840" y="41"/>
      <point x="892" y="-10"/>
      <point x="990" y="-10" type="curve" smooth="yes"/>
      <point x="1104" y="-10"/>
      <point x="1186" y="103"/>
      <point x="1186" y="263" type="curve" smooth="yes"/>
      <point x="1186" y="419"/>
      <point x="1113" y="523"/>
      <point x="998" y="523" type="curve" smooth="yes"/>
      <point x="914" y="523"/>
      <point x="877" y="465"/>
      <point x="834" y="351" type="curve"/>
      <point x="859" y="293" type="line"/>
      <point x="881" y="368"/>
      <point x="891" y="416"/>
      <point x="918" y="416" type="curve" smooth="yes"/>
      <point x="942" y="416"/>
      <point x="949" y="363"/>
    </contour>
    <contour>
      <point x="-6" y="513" type="line"/>
      <point x="-6" y="432" type="line"/>
      <point x="352" y="432" type="line"/>
      <point x="352" y="513" type="line"/>
    </contour>
    <contour>
      <point x="294" y="513" type="line"/>
      <point x="294" y="432" type="line"/>
      <point x="626" y="432" type="line"/>
      <point x="626" y="513" type="line"/>
    </contour>
    <contour>
      <point x="881" y="731" type="line"/>
      <point x="626" y="731" type="line"/>
      <point x="649" y="674" type="line"/>
      <point x="649" y="0" type="line"/>
      <point x="788" y="0" type="line"/>
      <point x="859" y="105" type="line"/>
      <point x="881" y="111" type="line"/>
    </contour>
    <contour>
      <point x="48" y="102" type="line"/>
      <point x="48" y="81"/>
      <point x="38" y="72"/>
      <point x="19" y="72" type="curve" smooth="yes"/>
      <point x="9" y="72" type="line"/>
      <point x="9" y="0" type="line"/>
      <point x="302" y="0" type="line"/>
      <point x="302" y="72" type="line"/>
      <point x="300" y="72" type="line" smooth="yes"/>
      <point x="285" y="72"/>
      <point x="279" y="74"/>
      <point x="279" y="80" type="curve"/>
      <point x="279" y="576" type="line" smooth="yes"/>
      <point x="279" y="632"/>
      <point x="289" y="649"/>
      <point x="310" y="649" type="curve" smooth="yes"/>
      <point x="320" y="649"/>
      <point x="334" y="642"/>
      <point x="332" y="640" type="curve"/>
      <point x="332" y="725" type="line"/>
      <point x="322" y="731"/>
      <point x="291" y="737"/>
      <point x="252" y="737" type="curve" smooth="yes"/>
      <point x="141" y="737"/>
      <point x="48" y="685"/>
      <point x="48" y="532" type="curve" smooth="yes"/>
    </contour>
    <contour>
      <point x="610" y="0" type="line"/>
      <point x="610" y="72" type="line"/>
      <point x="606" y="72" type="line" smooth="yes"/>
      <point x="592" y="72"/>
      <point x="579" y="74"/>
      <point x="579" y="80" type="curve"/>
      <point x="579" y="574" type="line" smooth="yes"/>
      <point x="579" y="636"/>
      <point x="593" y="659"/>
      <point x="624" y="659" type="curve" smooth="yes"/>
      <point x="658" y="659"/>
      <point x="679" y="634"/>
      <point x="691" y="572" type="curve"/>
      <point x="796" y="695" type="line"/>
      <point x="752" y="722"/>
      <point x="694" y="748"/>
      <point x="598" y="748" type="curve" smooth="yes"/>
      <point x="463" y="748"/>
      <point x="349" y="695"/>
      <point x="349" y="543" type="curve"/>
      <point x="349" y="80" type="line"/>
      <point x="349" y="74"/>
      <point x="343" y="72"/>
      <point x="333" y="72" type="curve" smooth="yes"/>
      <point x="334" y="72" type="line"/>
      <point x="334" y="0" type="line"/>
    </contour>
  </outline>
</glyph>
<glyph name="f_f_j.alt" format="2">
  <advance width="899"/>
  <outline>
    <contour>
      <point x="9" y="0" type="line"/>
      <point x="302" y="0" type="line"/>
      <point x="302" y="72" type="line"/>
      <point x="300" y="72" type="line" smooth="yes"/>
      <point x="285" y="72"/>
      <point x="279" y="74"/>
      <point x="279" y="80" type="curve"/>
      <point x="279" y="552" type="line" smooth="yes"/>
      <point x="279" y="628"/>
      <point x="288" y="660"/>
      <point x="329" y="660" type="curve" smooth="yes"/>
      <point x="353" y="660"/>
      <point x="365" y="644"/>
      <point x="364" y="630" type="curve"/>
      <point x="387" y="635"/>
      <point x="386" y="684"/>
      <point x="349" y="683" type="curve"/>
      <point x="349" y="526" type="line"/>
      <point x="500" y="576" type="line"/>
      <point x="500" y="685" type="line"/>
      <point x="464" y="712"/>
      <point x="406" y="745"/>
      <point x="302" y="745" type="curve" smooth="yes"/>
      <point x="152" y="745"/>
      <point x="48" y="689"/>
      <point x="48" y="540" type="curve" smooth="yes"/>
      <point x="48" y="102" type="line" smooth="yes"/>
      <point x="48" y="81"/>
      <point x="38" y="72"/>
      <point x="19" y="72" type="curve" smooth="yes"/>
      <point x="9" y="72" type="line"/>
    </contour>
    <contour>
      <point x="349" y="80" type="line" smooth="yes"/>
      <point x="349" y="74"/>
      <point x="337" y="72"/>
      <point x="336" y="72" type="curve" smooth="yes"/>
      <point x="334" y="72" type="line"/>
      <point x="334" y="0" type="line"/>
      <point x="600" y="0" type="line"/>
      <point x="600" y="72" type="line"/>
      <point x="600" y="72" type="line" smooth="yes"/>
      <point x="586" y="72"/>
      <point x="579" y="74"/>
      <point x="579" y="80" type="curve" smooth="yes"/>
      <point x="579" y="555" type="line" smooth="yes"/>
      <point x="579" y="631"/>
      <point x="594" y="663"/>
      <point x="644" y="663" type="curve" smooth="yes"/>
      <point x="675" y="663"/>
      <point x="689" y="645"/>
      <point x="690" y="632" type="curve"/>
      <point x="714" y="636"/>
      <point x="713" y="687"/>
      <point x="674" y="689" type="curve"/>
      <point x="674" y="579" type="line"/>
      <point x="856" y="579" type="line"/>
      <point x="856" y="704" type="line"/>
      <point x="815" y="723"/>
      <point x="735" y="748"/>
      <point x="631" y="748" type="curve" smooth="yes"/>
      <point x="475" y="748"/>
      <point x="349" y="692"/>
      <point x="349" y="543" type="curve" smooth="yes"/>
    </contour>
    <contour>
      <point x="649" y="-27" type="line" smooth="yes"/>
      <point x="649" y="-117"/>
      <point x="635" y="-146"/>
      <point x="600" y="-146" type="curve" smooth="yes"/>
      <point x="575" y="-146"/>
      <point x="555" y="-136"/>
      <point x="538" y="-128" type="curve"/>
      <point x="538" y="-221" type="line"/>
      <point x="551" y="-228"/>
      <point x="595" y="-236"/>
      <point x="649" y="-236" type="curve" smooth="yes"/>
      <point x="815" y="-236"/>
      <point x="880" y="-173"/>
      <point x="880" y="0" type="curve" smooth="yes"/>
      <point x="880" y="513" type="line"/>
      <point x="619" y="513" type="line"/>
      <point x="619" y="432" type="line"/>
      <point x="634" y="432" type="line" smooth="yes"/>
      <point x="646" y="432"/>
      <point x="649" y="421"/>
      <point x="649" y="403" type="curve" smooth="yes"/>
    </contour>
    <contour>
      <point x="-6" y="513" type="line"/>
      <point x="-6" y="432" type="line"/>
      <point x="355" y="432" type="line"/>
      <point x="355" y="513" type="line"/>
    </contour>
    <contour>
      <point x="294" y="513" type="line"/>
      <point x="294" y="432" type="line"/>
      <point x="652" y="432" type="line"/>
      <point x="652" y="513" type="line"/>
    </contour>
  </outline>
</glyph>
